<svg xmlns="http://www.w3.org/2000/svg" width="25.153" height="20.132" viewBox="0 0 25.153 20.132"><defs><style>.a{fill:#006fff;}</style></defs><path class="a" d="M251.792-106.265a3.7,3.7,0,0,1,3.684-3.716l11.377-.048-1.749-1.735a2.741,2.741,0,0,1-.4-3.495,2.644,2.644,0,0,1,4.024-.355l7.438,7.375a2.644,2.644,0,0,1,.019,3.736h0L268.8-97.064a2.644,2.644,0,0,1-3.736.083,2.64,2.64,0,0,1-.082-3.735c.021-.022.043-.045.066-.067l1.831-1.85-11.377.048a3.7,3.7,0,0,1-3.714-3.68Z" transform="translate(-251.792 116.38)"/></svg>