<svg xmlns="http://www.w3.org/2000/svg" width="270.359" height="766.155" viewBox="0 0 270.359 766.155"><defs><style>.a{opacity:0.05;}.b{fill:#006fff;}</style></defs><g class="a" transform="translate(1836.332 -416) rotate(90)"><path class="b" d="M251.793,19.461a49.666,49.666,0,0,1,49.468-49.9l152.79-.645L430.562-54.376c-12.549-12.442-15.666-32.556-5.415-46.933a35.508,35.508,0,0,1,54.045-4.77L579.074-7.036a35.513,35.513,0,0,1,.258,50.178h-.021l-99.044,99.882a35.475,35.475,0,1,1-51.273-49.039c.279-.3.581-.6.882-.9l24.583-24.842-152.788.645a49.666,49.666,0,0,1-49.877-49.425Z" transform="translate(164.208 1682.353)"/><path class="b" d="M251.793,19.461a49.666,49.666,0,0,1,49.468-49.9l152.79-.645L430.562-54.376c-12.549-12.442-15.666-32.556-5.415-46.933a35.508,35.508,0,0,1,54.045-4.77L579.074-7.036a35.513,35.513,0,0,1,.258,50.178h-.021l-99.044,99.882a35.475,35.475,0,1,1-51.273-49.039c.279-.3.581-.6.882-.9l24.583-24.842-152.788.645a49.666,49.666,0,0,1-49.877-49.425Z" transform="translate(592.573 1682.353)"/></g></svg>