<svg xmlns="http://www.w3.org/2000/svg" width="75.64" height="22.66" viewBox="0 0 75.64 22.66"><defs><style>.a{fill:#fff;}</style></defs><path class="a" d="M326.68-246.378v-3.881H326.1c-3.874,0-7.745.007-11.619-.009a.853.853,0,0,0-.814.433c-.682,1.044-1.393,2.069-2.076,3.11a.761.761,0,0,1-.728.385c-1.407-.019-2.813-.009-4.322-.009l1.287-1.923c-.039-.023-.079-.055-.086-.049a10.027,10.027,0,0,1-6.514,1.89c-6.069.026-12.139,0-18.208.018-.448,0-.607-.105-.6-.586q.021-10.724.011-21.447c0-.164.021-.327.035-.542h.577q8.906,0,17.816,0a10.035,10.035,0,0,1,4.13.8c4.113,1.841,4.744,7.471,1.123,9.9-.061.04-.114.091-.246.2a6.472,6.472,0,0,1,3.112,3.286,8,8,0,0,1,.185,4.538c.109-.149.22-.3.323-.452q6.05-8.912,12.088-17.834a.887.887,0,0,1,.846-.459q5.248.026,10.5,0a1.429,1.429,0,0,1,1.153.5q4.006,4.238,8.039,8.454c.076.079.118.192.093.151.874-.795,1.734-1.5,2.507-2.3,2.115-2.171,4.192-4.383,6.295-6.571a.749.749,0,0,1,.473-.215c2.179-.014,4.355-.009,6.579-.009v22.6h-4.262v-18.928l-11.4,11.963-11.4-11.972v18.943Zm-32.3-9.428c-2.342,0-4.686.011-7.028-.009-.454,0-.617.121-.608.593.026,1.414.03,2.827,0,4.241-.012.5.158.622.638.621,4.426-.016,8.851.019,13.277-.033a8.822,8.822,0,0,0,2.766-.519,2.107,2.107,0,0,0,1.556-2.249,2.361,2.361,0,0,0-1.769-2.309,7.684,7.684,0,0,0-2.024-.322C298.917-255.831,296.649-255.806,294.379-255.806Zm-7.585-9.185c-.016.237-.039.417-.04.6,0,1.338.018,2.678-.012,4.016-.011.482.165.584.61.582,4.538-.014,9.076,0,13.614-.019a4.962,4.962,0,0,0,1.633-.283,2.449,2.449,0,0,0,1.588-2.81,2.223,2.223,0,0,0-2.08-1.985,5.915,5.915,0,0,0-1-.095q-6.836-.008-13.67,0Zm29.908,10.7h9.909v-14.442l-.1-.039Z" transform="translate(-282.411 269)"/></svg>