<svg xmlns="http://www.w3.org/2000/svg" width="87.788" height="88.974" viewBox="0 0 87.788 88.974"><defs><style>.a,.b{fill:#2bcb2b;}.a{opacity:0.2;}</style></defs><rect class="a" width="87.788" height="88.974" rx="20"/><path class="b" d="M47.947,0H2.524A2.524,2.524,0,0,0,0,2.524V27.759a2.524,2.524,0,0,0,2.524,2.524H47.947a2.524,2.524,0,0,0,2.524-2.524V2.524A2.524,2.524,0,0,0,47.947,0ZM3.785,26.5V21.45A5.047,5.047,0,0,1,8.832,26.5Zm0-17.665V3.785H8.832A5.047,5.047,0,0,1,3.785,8.832Zm21.45,13.879c-3.485,0-6.309-3.39-6.309-7.571s2.825-7.571,6.309-7.571,6.309,3.389,6.309,7.571S28.718,22.712,25.235,22.712ZM46.685,26.5H41.638a5.047,5.047,0,0,1,5.047-5.047Zm0-17.665a5.047,5.047,0,0,1-5.047-5.047h5.047Z" transform="translate(15.069 36.043) rotate(-13)"/></svg>