<svg xmlns="http://www.w3.org/2000/svg" width="82.896" height="38.413" viewBox="0 0 82.896 38.413"><defs><style>.a{fill:#fff;}</style></defs><g transform="translate(0)"><path class="a" d="M-945.358,1207.792q-.109.886-.218,1.771a23.208,23.208,0,0,1-2.192,7.818,13.553,13.553,0,0,1-8.84,7.1,23.232,23.232,0,0,1-5.106.756,73.413,73.413,0,0,1-9.832-.194c-3.817-.314-7.628-.691-11.44-1.052-2.816-.267-5.63-.563-8.446-.83a125.8,125.8,0,0,0-12.75-.666,44.293,44.293,0,0,0-9.257.884,17.166,17.166,0,0,0-6.163,2.485c-.359.247-.681.55-1.042.794a.8.8,0,0,1-.525.147c-1.459-.261-2.911-.557-4.369-.822a.645.645,0,0,1-.589-.524c-.357-1.436-.778-2.858-1.074-4.305a50.762,50.762,0,0,1-1.035-11.615c.032-1.159.162-2.315.254-3.471a24.587,24.587,0,0,1,1.331-6.142,15.7,15.7,0,0,1,4.754-7.183,14.766,14.766,0,0,1,6.538-3.019,20.324,20.324,0,0,1,5.111-.431c2.907.137,5.814.282,8.717.493,2.51.183,5.016.439,7.519.706,2.446.26,4.886.586,7.33.863s4.869.538,7.305.784c3.093.313,6.194.5,9.3.5a36.71,36.71,0,0,0,10.752-1.263,14.379,14.379,0,0,0,5.393-2.834c.051-.044.094-.1.141-.147h.069c.216.062.434.118.647.188,1.658.543,3.31,1.1,4.975,1.624a1,1,0,0,1,.726.719,41.992,41.992,0,0,1,1.8,8.328q.107.886.216,1.772Zm-80,16.756c.086-.044.139-.066.186-.1a23.669,23.669,0,0,1,8.233-3.127,48.8,48.8,0,0,1,10.574-.869c2.771.05,5.542.211,8.309.391,2.088.135,4.171.358,6.253.578s4.157.485,6.236.728c2.056.24,4.111.487,6.168.714,1.909.211,3.817.436,5.731.589q3.182.254,6.374.382a36.784,36.784,0,0,0,8.727-.582,13.416,13.416,0,0,0,9.677-7.128,21.9,21.9,0,0,0,2.293-9.673,46.858,46.858,0,0,0-1.451-12.77c-.172-.709-.377-1.411-.574-2.145-.164.072-.276.123-.391.171-.88.367-1.746.773-2.642,1.092a40.094,40.094,0,0,1-12.642,2.069,87.82,87.82,0,0,1-13.12-.751c-3.09-.392-6.176-.823-9.258-1.274s-6.178-.961-9.269-1.43a108.061,108.061,0,0,0-11.622-1.26,34.326,34.326,0,0,0-7.327.377,13.213,13.213,0,0,0-8.041,4.577,17.514,17.514,0,0,0-3.609,7.432,36.862,36.862,0,0,0-.521,12.615,64.249,64.249,0,0,0,1.284,7.534C-1025.64,1223.3-1025.5,1223.916-1025.357,1224.548Z" transform="translate(1028.255 -1188.398)"/><path class="a" d="M-602.942,1373.344q.566-2.534,1.133-5.068c.273-1.221.552-2.44.816-3.663.042-.193.11-.271.313-.27,1.957.006,3.914,0,5.872.005a1.268,1.268,0,0,1,.206.035v16h-3.945v-9.748l-.09-.014c-.116.468-.236.935-.347,1.4q-.947,4-1.884,8.009c-.066.284-.176.388-.477.382-1.093-.019-2.187-.016-3.281,0-.288,0-.418-.071-.489-.371-.705-2.994-1.427-5.983-2.146-8.974a.622.622,0,0,0-.153-.3v9.606H-611.4V1380q0-7.626-.008-15.252c0-.346.113-.413.432-.411,1.819.014,3.638.02,5.457,0,.378-.005.5.112.581.47.607,2.792,1.236,5.579,1.859,8.368a1.628,1.628,0,0,0,.062.179Z" transform="translate(640.228 -1352.171)"/><path class="a" d="M-345.43,1382.5v-16.111h.387c2.314,0,4.628-.006,6.941,0a8.151,8.151,0,0,1,2.95.447,3.545,3.545,0,0,1,2.4,3.3,3.719,3.719,0,0,1-1.6,3.575,1.823,1.823,0,0,0,.189.138,4.3,4.3,0,0,1,2.134,4.437c-.238,2.421-2,3.656-4.062,4.063a9.025,9.025,0,0,1-1.679.155c-2.44.017-4.881.008-7.321.007C-345.2,1382.515-345.3,1382.505-345.43,1382.5Zm4.726-6.819a.547.547,0,0,1,.02-.133c.442-.871.88-1.744,1.336-2.607a.421.421,0,0,1,.3-.15c.377-.033.76-.015,1.135-.062a1.364,1.364,0,0,0,1.285-1.445,1.248,1.248,0,0,0-1.138-1.43,1.839,1.839,0,0,0-.375-.051q-1.5-.021-3-.032a2.974,2.974,0,0,0-.3.027v9.4c1.269,0,2.511.018,3.751-.012a2.647,2.647,0,0,0,.955-.26,1.081,1.081,0,0,0,.657-1.05,5.078,5.078,0,0,0-.1-.956,1.315,1.315,0,0,0-1.083-1.115,6.15,6.15,0,0,0-1.127-.12C-339.157,1375.666-339.925,1375.679-340.7,1375.679Z" transform="translate(392.641 -1354.079)"/><path class="a" d="M-898.209,1381.555v-16.081c.13-.008.251-.021.372-.021,2.349,0,4.7-.009,7.046,0a7.832,7.832,0,0,1,2.912.466,3.568,3.568,0,0,1,2.353,3.344,3.735,3.735,0,0,1-1.629,3.527l.33.185a3.7,3.7,0,0,1,1.982,3.154,6.7,6.7,0,0,1-.108,1.914,4.307,4.307,0,0,1-3.148,3.171,7.54,7.54,0,0,1-2.411.362q-3.7,0-7.392,0C-897.991,1381.578-898.081,1381.565-898.209,1381.555Zm4.731-6.946c.451-.968.867-1.873,1.3-2.77.034-.072.183-.117.281-.124.39-.027.785,0,1.17-.055a1.338,1.338,0,0,0,1.3-1.455c.009-.895-.329-1.286-1.265-1.455a2.209,2.209,0,0,0-.378-.03c-.921-.006-1.843.008-2.763-.02-.349-.011-.447.085-.445.438.014,2.91.008,5.82.009,8.731,0,.124.013.247.021.377a1.518,1.518,0,0,0,.194.027c1.14,0,2.28.02,3.419-.016a3.189,3.189,0,0,0,1.092-.272,1.141,1.141,0,0,0,.724-1.049,4.593,4.593,0,0,0-.052-.927,1.465,1.465,0,0,0-1.424-1.346c-.308-.034-.62-.048-.93-.051C-891.949,1374.6-892.674,1374.609-893.478,1374.609Z" transform="translate(907.2 -1353.208)"/><path class="a" d="M-134.812,1362.807a8.018,8.018,0,0,1,8.049,8.045,8.058,8.058,0,0,1-8.112,8.068,8.032,8.032,0,0,1-8.028-8.173A8.044,8.044,0,0,1-134.812,1362.807Zm-4.317,8.035a4.336,4.336,0,0,0,4.286,4.323,4.215,4.215,0,0,0,4.238-4.187,4.259,4.259,0,0,0-4.24-4.412A4.292,4.292,0,0,0-139.129,1370.842Z" transform="translate(204.117 -1350.748)"/><path class="a" d="M-684.948,1381.859h-3.991v-16.082h3.991Z" transform="translate(712.399 -1353.513)"/><path class="a" d="M-597.1,1267.537a2.5,2.5,0,0,1-2.564,2.621,3.975,3.975,0,0,1-1.488-.2,2.5,2.5,0,0,1-1.656-2.966,2.665,2.665,0,0,1,3.023-2.153,3.437,3.437,0,0,1,1.071.228A2.367,2.367,0,0,1-597.1,1267.537Zm-2.841,1.624a1.6,1.6,0,0,0,1.637-1.67,1.623,1.623,0,0,0-1.672-1.648,1.6,1.6,0,0,0-1.644,1.627A1.588,1.588,0,0,0-599.944,1269.161Z" transform="translate(632.27 -1259.554)"/><path class="a" d="M-891.68,1265.317l-.758.826a2.106,2.106,0,0,0-1.639-.4,1.549,1.549,0,0,0-1.349,1.687,1.558,1.558,0,0,0,1.577,1.588c.1,0,.207,0,.31,0,.823-.016,1.018-.259.864-1.137h-.927v-1.01c.631,0,1.249-.007,1.866.01.062,0,.172.143.173.221.013.747.015,1.494,0,2.241a.373.373,0,0,1-.192.277,4.218,4.218,0,0,1-3.876-.09,2,2,0,0,1-.872-1.036c-.5-1.376-.218-3.422,2.115-3.75a3.675,3.675,0,0,1,2.223.267C-892.006,1265.093-891.862,1265.2-891.68,1265.317Z" transform="translate(905.808 -1259.414)"/><path class="a" d="M-807.031,1269.435l1.345,2.119c-.473,0-.88.012-1.286-.01-.083,0-.183-.123-.234-.212-.263-.458-.541-.911-.757-1.391a.613.613,0,0,0-.856-.363v1.955h-1.138v-5c.177,0,.356,0,.534,0,.712.016,1.424.024,2.135.058a1.661,1.661,0,0,1,.56.158,1.259,1.259,0,0,1,.8,1.411,1.175,1.175,0,0,1-.941,1.2A1.551,1.551,0,0,0-807.031,1269.435Zm-1.085-2.012c-.71-.006-.71-.006-.709.7a1.969,1.969,0,0,0,.007.343c.011.064.079.172.117.17a8.378,8.378,0,0,0,1.254-.1.444.444,0,0,0,.279-.642,1.051,1.051,0,0,0-.473-.46C-807.763,1267.367-807.955,1267.423-808.115,1267.423Z" transform="translate(825.05 -1261.13)"/><path class="a" d="M-743.446,1266.827h1.15c0,.417,0,.816,0,1.214,0,.666-.008,1.333.008,2a.882.882,0,0,0,.958.9c.707.016,1.126-.266,1.148-.851.035-.929.02-1.861.026-2.791,0-.148,0-.3,0-.469h1.1a1.773,1.773,0,0,1,.031.235c0,1,.007,2-.007,3a1.754,1.754,0,0,1-.959,1.705,2.9,2.9,0,0,1-2.313.077,1.7,1.7,0,0,1-1.126-1.556c-.015-.16-.017-.321-.017-.482C-743.447,1268.827-743.446,1267.84-743.446,1266.827Z" transform="translate(763.138 -1261.405)"/><path class="a" d="M-667.055,1266.983a22.523,22.523,0,0,1,2.661.02,1.434,1.434,0,0,1,.97,2.4,1.779,1.779,0,0,1-1.347.51c-.365.024-.734,0-1.157,0v1.934h-1.126Zm1.2.9-.074,1.222c.4,0,.744.016,1.085,0a.557.557,0,0,0,.595-.575.574.574,0,0,0-.569-.637C-665.147,1267.856-665.48,1267.879-665.855,1267.879Z" transform="translate(692.028 -1261.519)"/></g></svg>