<svg xmlns="http://www.w3.org/2000/svg" width="141.335" height="24.717" viewBox="0 0 141.335 24.717"><defs><style>.a{fill:#fff;}</style></defs><g transform="translate(2254.563 206.361)"><path class="a" d="M-2244.707-185.015s2.626-.5,2.626-3.96v-3.066a3.959,3.959,0,0,0-3.959-3.96h-8.523v23.967h9.856a3.124,3.124,0,0,0,3.126-3.126v-6.731A3.124,3.124,0,0,0-2244.707-185.015Zm-1.368,7.13a2.355,2.355,0,0,1-2.357,2.357h-2.137v-7.989h2.137a2.355,2.355,0,0,1,2.357,2.357Zm0-10.985a2.355,2.355,0,0,1-2.357,2.357h-2.137V-192.5h2.137a2.355,2.355,0,0,1,2.357,2.357Z" transform="translate(0 -9.611)"/><path class="a" d="M-2009.615-176.028v3.5H-2020.1V-196h3.994v19.972Z" transform="translate(-217.486 -9.611)"/><path class="a" d="M-1594.367-176.028v3.5h-11.984V-196h11.484v3.5h-6.99v5.992h6.491v3.5h-6.491v6.99Z" transform="translate(-601.277 -9.611)"/><g transform="translate(-2224.93 -205.525)"><path class="a" d="M-1839.034-171.19a6.287,6.287,0,0,1-6.28-6.28v-17.352h3.994v17.352a2.288,2.288,0,0,0,2.285,2.285,2.288,2.288,0,0,0,2.285-2.285v-17.352h3.995v17.352A6.287,6.287,0,0,1-1839.034-171.19Z" transform="translate(1845.314 194.822)"/></g><g transform="translate(-2184.869 -205.525)"><path class="a" d="M-1284.345-171.568h-7.7v-23.254h1.5v21.756h6.2Z" transform="translate(1292.045 194.822)"/></g><g transform="translate(-2133.44 -205.525)"><path class="a" d="M-574.075-171.568h-7.7v-23.254h1.5v21.756h6.2Z" transform="translate(581.774 194.822)"/></g><g transform="translate(-2145.923 -205.538)"><path class="a" d="M-752.672-193.49v9.007h5.488v1.5h-5.488v9.743h6.2v1.51h-7.7V-195h7.7v1.51Z" transform="translate(754.17 195)"/></g><g transform="translate(-2174.439 -205.538)"><path class="a" d="M-1141.759-195h-1.467L-1148-171.757h1.665l1.364-6.838h5l1.383,6.838h1.521Zm-2.914,14.907,2.185-10.95,2.215,10.95Z" transform="translate(1148 195)"/></g><g transform="translate(-2159.693 -205.538)"><path class="a" d="M-937.077-184.294a2.941,2.941,0,0,0,.716-1.929v-5.857a2.9,2.9,0,0,0-2.867-2.92h-5.121v23.395h5.621a2.9,2.9,0,0,0,2.867-2.92v-7.383A2.935,2.935,0,0,0-937.077-184.294Zm-5.775-9.181h3.624a1.383,1.383,0,0,1,1.369,1.395v5.857a1.383,1.383,0,0,1-1.369,1.395h-3.624Zm5.493,18.949a1.384,1.384,0,0,1-1.369,1.395h-4.124V-183.3h4.124a1.384,1.384,0,0,1,1.369,1.395Z" transform="translate(944.35 195)"/></g><g transform="translate(-2120.564 -206.361)"><path class="a" d="M-403.95-203.449v-2.912h1.111l.667,1.986.66-1.986h1.114v2.912h-.69v-2.292l-.73,2.292h-.715l-.728-2.292v2.292Z" transform="translate(403.95 206.361)"/><path class="a" d="M-349.859-203.449l1.257-1.519-1.139-1.392h.868l.738.936.723-.936h.861l-1.144,1.414,1.257,1.5h-.9l-.815-1.007-.818,1.007Z" transform="translate(353.776 206.361)"/></g></g></svg>