<svg xmlns="http://www.w3.org/2000/svg" width="87.788" height="87.788" viewBox="0 0 87.788 87.788"><defs><style>.a,.b{fill:#f1404c;}.a{opacity:0.2;}</style></defs><rect class="a" width="87.788" height="87.788" rx="20" transform="translate(0)"/><path class="b" d="M44.979,5.784H6.958a4.4,4.4,0,0,0-4.387,4.387V36.493a4.4,4.4,0,0,0,4.387,4.387H44.979a4.4,4.4,0,0,0,4.387-4.387V10.171a4.4,4.4,0,0,0-4.387-4.387ZM6.958,8.709H44.979a1.482,1.482,0,0,1,1.462,1.462v4.387H5.5V10.171A1.482,1.482,0,0,1,6.958,8.709ZM44.979,37.956H6.958A1.482,1.482,0,0,1,5.5,36.493V23.332H46.441V36.493a1.482,1.482,0,0,1-1.462,1.462ZM8.42,29.182h2.925v5.849H8.42Zm5.849,0h2.925v5.849H14.27Zm5.849,0h2.925v5.849H20.119Z" transform="translate(18.297 19.473)"/></svg>