<svg xmlns="http://www.w3.org/2000/svg" width="76.81" height="28.84" viewBox="0 0 76.81 28.84"><defs><style>.a{fill:#fff;}</style></defs><g transform="translate(0)"><path class="a" d="M-905.505,1363.046a2.091,2.091,0,0,0,.207-.526,8.356,8.356,0,0,1,1.109-3.283,10.2,10.2,0,0,1,3.122-3.415,7.7,7.7,0,0,1,3.274-1.3,9.716,9.716,0,0,1,2.623-.1,9.342,9.342,0,0,1,2.45.637,9.175,9.175,0,0,1,3.039,2.08,8.109,8.109,0,0,1,1.654,2.33c.262.578.481,1.176.708,1.768.095.246-.1.234-.248.235-.68,0-1.36,0-2.04,0-.34,0-.68-.005-1.02,0a.456.456,0,0,1-.462-.289,5.961,5.961,0,0,0-3.011-2.794,5.219,5.219,0,0,0-3.137-.281,5.912,5.912,0,0,0-4.282,3.567,6.157,6.157,0,0,0-.428,3.393,6.055,6.055,0,0,0,2.445,4.164,5.276,5.276,0,0,0,4.207,1.053,5.739,5.739,0,0,0,4.255-3.163.452.452,0,0,1,.3-.23c1.11-.016,2.22-.009,3.33-.006a.677.677,0,0,1,.154.051,8.448,8.448,0,0,1-.429,1.231,18.425,18.425,0,0,1-1.37,2.341,8.147,8.147,0,0,1-2.159,2.012,9.439,9.439,0,0,1-2.729,1.187,9.719,9.719,0,0,1-3.064.206,8.039,8.039,0,0,1-2.79-.711,9.528,9.528,0,0,1-4.446-4.16,7.987,7.987,0,0,1-1.056-3.249,1.647,1.647,0,0,0-.206-.469Z" transform="translate(905.505 -1345.296)"/><path class="a" d="M224.336,1496.148c-.11.005-.219.015-.329.015H215.2c-.444,0-.445,0-.445-.451q0-1.124,0-2.248c0-.487,0-.487.474-.487h8.692c.14,0,.279-.007.419-.01Z" transform="translate(-147.526 -1475.577)"/><path class="a" d="M-459.2,1428.393q0,2.789,0,5.579c0,.569,0,.573-.555.575q-1.274,0-2.549,0c-.329,0-.426-.1-.434-.428-.007-.28.006-.56-.009-.84-.013-.238-.128-.3-.3-.158a6.162,6.162,0,0,1-3.388,1.272,9.2,9.2,0,0,1-1.081.142,5.3,5.3,0,0,1-1.185-.218,3.908,3.908,0,0,1-2.009-1.224,4.22,4.22,0,0,1-.867-2.19,5.72,5.72,0,0,1,.344-2.884,3.609,3.609,0,0,1,1.609-1.872,7.022,7.022,0,0,1,2.271-.8c.938-.187,1.881-.351,2.821-.527a5.451,5.451,0,0,0,.871-.182,1.209,1.209,0,0,0,.85-1.211,1.409,1.409,0,0,0-.851-1.393,4.185,4.185,0,0,0-2.226-.243,2.016,2.016,0,0,0-1.8,1.621c-.083.281-.2.427-.542.415-.879-.031-1.759-.01-2.639-.011-.4,0-.441-.033-.387-.436a5.041,5.041,0,0,1,1.916-3.65,4.9,4.9,0,0,1,2.369-.916c.633-.072,1.269-.147,1.905-.163a8.57,8.57,0,0,1,3.276.6,3.579,3.579,0,0,1,2.093,1.729,4.853,4.853,0,0,1,.506,2.163Q-459.2,1425.769-459.2,1428.393Zm-3.657-.421c0-.312,0-.552,0-.792-.006-.33-.138-.385-.436-.27-.507.2-1.025.371-1.548.516-.585.162-1.191.253-1.771.432a2.427,2.427,0,0,0-.852.48,2.126,2.126,0,0,0-.624,2.023,1.717,1.717,0,0,0,1.738,1.534,3.635,3.635,0,0,0,1.763-.388,2.6,2.6,0,0,0,1.449-1.544A6.016,6.016,0,0,0-462.852,1427.972Z" transform="translate(497.671 -1405.722)"/><path class="a" d="M-67.413,1436.332c-.189,0-.329,0-.469,0a5.974,5.974,0,0,1-2.7-.71,7.784,7.784,0,0,1-3.071-2.734,7.791,7.791,0,0,1-1.116-2.621,8.512,8.512,0,0,1-.122-3.039,7.621,7.621,0,0,1,1.622-3.835,7.41,7.41,0,0,1,3.008-2.351,7.5,7.5,0,0,1,2-.467,10.145,10.145,0,0,1,1.991.029,5.922,5.922,0,0,1,2.459.859,7.5,7.5,0,0,1,2.986,3.189,8.477,8.477,0,0,1,.668,2,9.21,9.21,0,0,1,.194,2.078,7.568,7.568,0,0,1-2.135,5.215,7.67,7.67,0,0,1-2.231,1.683c-.452.218-.964.307-1.428.5A4.2,4.2,0,0,1-67.413,1436.332Zm-.032-12.229a8.832,8.832,0,0,0-1.393.272,4.087,4.087,0,0,0-2.463,2.609,3.946,3.946,0,0,0-.056,2.558,4.187,4.187,0,0,0,2.429,2.851,3.586,3.586,0,0,0,3.544-.3,4.348,4.348,0,0,0,1.555-5.647A3.848,3.848,0,0,0-67.446,1424.1Z" transform="translate(124.81 -1407.493)"/><path class="a" d="M-218.007,1423.531c.158-.183.257-.289.346-.4a5.17,5.17,0,0,1,3.011-1.918c.33-.072.658-.154.992-.2.39-.054.5.055.507.458.006.59,0,1.18,0,1.769,0,.3.019.6.046.9.039.428-.039.524-.465.5a4.173,4.173,0,0,0-1.683.162,4.124,4.124,0,0,0-2.086,1.664,4.551,4.551,0,0,0-.618,2.58c-.013,2.439,0,4.878,0,7.317,0,.405,0,.407-.413.405-.919,0-1.839-.017-2.758-.008-.251,0-.346-.1-.35-.33,0-.08,0-.16,0-.24q0-7.077,0-14.154c0-.433,0-.44.427-.432.878.017,1.757.049,2.635.061.26,0,.322.131.316.357q-.013.539,0,1.079A2.743,2.743,0,0,0-218.007,1423.531Z" transform="translate(262.528 -1407.926)"/><path class="a" d="M-563.689,1364.076q0,4.664,0,9.328c0,.11,0,.22-.01.329a.237.237,0,0,1-.271.247c-.96-.005-1.92,0-2.879,0a.34.34,0,0,1-.357-.33,1.851,1.851,0,0,1-.008-.3q0-9.343,0-18.686c0-.428.008-.438.434-.439.91,0,1.82.01,2.729-.007.3-.005.369.1.368.381Q-563.7,1359.337-563.689,1364.076Z" transform="translate(587.516 -1345.153)"/><path class="a" d="M162.217,1240.874c-.06.077-.109.151-.17.214q-1.857,1.933-3.716,3.865-2.257,2.358-4.5,4.727c-.195.206-.318.231-.522.013-.586-.628-1.188-1.24-1.791-1.852-.139-.141-.163-.236-.009-.393.8-.812,1.583-1.635,2.374-2.454q2.121-2.2,4.242-4.4.851-.885,1.687-1.785c.153-.164.28-.194.447-.016.6.64,1.212,1.272,1.818,1.908C162.123,1240.75,162.162,1240.807,162.217,1240.874Z" transform="translate(-87.979 -1236.542)"/><path class="a" d="M31.538,1203.169c.971,0,1.9,0,2.828.009.072,0,.162.121.208.205.034.062.009.156.009.236q0,4.451,0,8.9c0,.417,0,.422-.415.422-.769,0-1.539-.007-2.308,0-.256,0-.351-.076-.35-.343q.011-4.556.006-9.112C31.515,1203.4,31.529,1203.3,31.538,1203.169Z" transform="translate(24.719 -1203.168)"/></g></svg>