<svg xmlns="http://www.w3.org/2000/svg" width="107.629" height="35.117" viewBox="0 0 107.629 35.117"><defs><style>.a{fill:#fff;}</style></defs><path class="a" d="M-90.2,1053.489c.234-1.052.947-.97,1.646-.953.73.018,1.46,0,2.325,0-.421.761-.767,1.4-1.127,2.034q-2.743,4.821-5.487,9.642a10.694,10.694,0,0,0-.649,1.408c-.06.156-.037.489.044.525a.679.679,0,0,0,.589-.026,16.271,16.271,0,0,0,2.1-1.846,24.7,24.7,0,0,0,2.241-3.029,1.173,1.173,0,0,1,1.459-.546c.014.062.033.094.024.109-2.02,3.2-4.068,6.373-7.481,8.319-.107.061-.217.118-.327.173a1.992,1.992,0,0,1-2.176.033,2.042,2.042,0,0,1-.635-2.018c.009-.093.018-.185.03-.311-.715.591-1.368,1.193-2.086,1.7a5.45,5.45,0,0,1-1.637.828,1.974,1.974,0,0,1-2.593-1.951,2.4,2.4,0,0,1,.082-.983c-.519.408-1.031.825-1.558,1.223a15.143,15.143,0,0,1-2.027,1.466,2.126,2.126,0,0,1-3.313-1.81,12.851,12.851,0,0,1,.391-3.422c.268-1.219.719-2.4,1.107-3.649-1.041.026-1.848.094-2.441,1.194a19.272,19.272,0,0,1-4.964,6.2,10.943,10.943,0,0,1-2.784,1.633,2.171,2.171,0,0,1-3.142-2.158,10.08,10.08,0,0,1,.463-3.268,21.825,21.825,0,0,1,6.986-10.078,10.025,10.025,0,0,1,2.752-1.553c2.084-.791,3.573.332,3.306,2.533a23.942,23.942,0,0,1-1,3.684,5.661,5.661,0,0,1-.333.74,1.773,1.773,0,0,0,2.105-1.031A63.3,63.3,0,0,1-96.559,1041a52.885,52.885,0,0,1,5.11-4.364,6.889,6.889,0,0,1,2.477-1.084c1.112-.286,1.857.327,1.716,1.465a9.994,9.994,0,0,1-.9,2.851c-.142.31-.751.407-1.147.6l-.125-.168a17.531,17.531,0,0,0,.853-1.915,5.825,5.825,0,0,0,.1-1.4,4.592,4.592,0,0,0-1.253.475,32.2,32.2,0,0,0-5.986,6.223,87.943,87.943,0,0,0-7.4,11.76,2.367,2.367,0,0,0-.292.909c.3-.2.625-.383.905-.615a62.249,62.249,0,0,0,9.66-10.081,1.525,1.525,0,0,1,1.708-.688c-.209.306-.384.59-.585.854a59.253,59.253,0,0,1-12.535,12.6,1.571,1.571,0,0,0-.59.627c-.686,1.92-1.333,3.855-1.989,5.786a.517.517,0,0,0-.038.29c.133.425.286.844.432,1.264.394-.14.92-.165,1.159-.439a31.577,31.577,0,0,0,2.545-3.252,44.978,44.978,0,0,1,5.5-7.413,21.423,21.423,0,0,1,3.1-2.5,4.7,4.7,0,0,1,1.943-.588C-91.3,1052.066-90.727,1052.653-90.2,1053.489Zm-9.546,11.845c.087.814.536,1.136,1.186.728a4.078,4.078,0,0,0,1.308-1.169c2.093-3.337,4.139-6.7,6.182-10.071.3-.49-.017-.948-.568-.8a3.291,3.291,0,0,0-1.265.7,26.278,26.278,0,0,0-5.851,8.01A24.012,24.012,0,0,0-99.745,1065.334Zm-15.413-7.383a18.507,18.507,0,0,0-3.247,6.245,3.122,3.122,0,0,0-.058.882,1,1,0,0,0,1.509.987,2.815,2.815,0,0,0,.7-.4,15.58,15.58,0,0,0,3.987-5.174Zm5.1-2.869c-.215-.415-.338-1.044-.671-1.188a2.226,2.226,0,0,0-1.425.206,2.459,2.459,0,0,0-.857.684,2.589,2.589,0,0,0,.936,4.256.7.7,0,0,0,.646-.135A10.9,10.9,0,0,0-110.057,1055.082Z" transform="translate(187.571 -1035.086)"/><path class="a" d="M-471.788,1096.879a6.531,6.531,0,0,0,1.232-.553c1.054-.808,2.084-1.648,3.1-2.5,1.037-.87,2.01-1.822,3.083-2.644a4.447,4.447,0,0,1,3.183-.976,2.255,2.255,0,0,1,2.125,2.465,5.344,5.344,0,0,1-1.678,3.452c-.442.422-.983.764-1.589.337-.638-.449-.476-1.1-.209-1.672a2.642,2.642,0,0,1,1.8-1.621c.205-.049.533-.414.5-.495-.123-.27-.427-.7-.585-.67a3.677,3.677,0,0,0-1.674.625,22.068,22.068,0,0,0-2.633,2.689,20.313,20.313,0,0,0-3.528,6.457,5.483,5.483,0,0,0-.253,2.027,1.291,1.291,0,0,0,1.822,1.225,7.514,7.514,0,0,0,2.587-1.627,68.967,68.967,0,0,0,4.546-5.443,35.608,35.608,0,0,1,4.921-5.7,12.941,12.941,0,0,1,2.23-1.571c1.465-.8,2.336-.642,3.363.318a7.862,7.862,0,0,1,1.351-.335c.829-.048,1.663-.014,2.635-.014-.194.359-.322.61-.463.855-2.165,3.761-4.342,7.516-6.484,11.291a4.46,4.46,0,0,0-.281,1.277c.414-.148.948-.181,1.223-.464,1.231-1.273,2.431-2.583,3.553-3.952a1.35,1.35,0,0,1,1.625-.567c-.1.175-.178.34-.281.489a29.936,29.936,0,0,1-5.859,6.73,8.258,8.258,0,0,1-2.015,1.214c-1.473.586-2.5-.209-2.433-1.79.006-.146.016-.293.03-.535a17.471,17.471,0,0,1-1.655,1.406,7.517,7.517,0,0,1-2.024,1.028,1.912,1.912,0,0,1-2.567-1.993,19.089,19.089,0,0,1,.265-2.214c-.79.727-1.544,1.469-2.35,2.151a7.271,7.271,0,0,1-4.825,2.141,2.734,2.734,0,0,1-2.672-1.854,5.408,5.408,0,0,1-.053-3.908c.53-1.375,1.135-2.721,1.717-4.1a2.3,2.3,0,0,0-2.049,1.219,21.392,21.392,0,0,1-5.749,7.067,9.523,9.523,0,0,1-2.64,1.432,2.238,2.238,0,0,1-3.069-1.875,7.621,7.621,0,0,1,.456-4.144,20.679,20.679,0,0,1,7.517-9.935,9.128,9.128,0,0,1,2.785-1.313,2.218,2.218,0,0,1,3.018,2.375,8.987,8.987,0,0,1-.308,2.037C-471.209,1095.38-471.485,1096.016-471.788,1096.879Zm12.872,6.717c.125.218.2.537.367.6a.959.959,0,0,0,.812-.058,12.589,12.589,0,0,0,2.225-2.319c1.848-2.963,3.572-6,5.331-9.021.1-.165.165-.493.079-.583a.736.736,0,0,0-.634-.211,4.581,4.581,0,0,0-1.553.926,34.307,34.307,0,0,0-5.9,8.613C-458.48,1102.19-458.667,1102.881-458.915,1103.6Zm-17.911-7.876-.253-.032c-.905,1.687-1.846,3.357-2.7,5.071a5.313,5.313,0,0,0-.52,1.984,1.6,1.6,0,0,0,.5,1.273,1.556,1.556,0,0,0,1.356-.139c2.178-1.42,3.4-3.622,4.7-5.863A5.24,5.24,0,0,1-476.826,1095.721Zm1.221-1.022c-.032,1.13,1.219,2.009,2.276,2.123a.368.368,0,0,0,.3-.15,6.7,6.7,0,0,0,.959-3.933.942.942,0,0,0-1.279-.844A3.285,3.285,0,0,0-475.6,1094.7Z" transform="translate(495.999 -1081.676)"/><path class="a" d="M-186.025,1038.095l-2.723,2.9c-1.189-.762-2.321-1.555-3.517-2.236-1.772-1.01-3.559-2-5.4-2.874a7.3,7.3,0,0,0-2.309-.388c-.473-.05-.651.2-.671.717a13.661,13.661,0,0,1-5.339,10.217,5.833,5.833,0,0,1-1.91.934,1.562,1.562,0,0,1-2.193-1.232,5.436,5.436,0,0,1,.236-2.512,16.673,16.673,0,0,1,6.7-8.145l.579-.4a3.177,3.177,0,0,0-2.561.307,21.018,21.018,0,0,0-5.632,4.035,47.976,47.976,0,0,0-11.088,16.091,14.6,14.6,0,0,0-1.307,6.618c.206,2.542,2.288,3.686,4.561,2.513a14.021,14.021,0,0,0,5.271-5.379,12.338,12.338,0,0,0,1.928-5.153c.076-.655.222-1.448-.476-1.8-.733-.374-1.384.1-1.9.633a9.31,9.31,0,0,0-2.294,4.245,1.79,1.79,0,0,1-.661.861c-1.289.971-2.607,1.9-4,2.909.205-.93.361-1.886.631-2.808a11.962,11.962,0,0,1,3.659-6.049,7.165,7.165,0,0,1,3.344-1.655,2.115,2.115,0,0,1,2.721,1.8,7.37,7.37,0,0,1-.46,4.283,20.038,20.038,0,0,1-7.716,9.944,7.346,7.346,0,0,1-4.378,1.362c-2.451-.078-4.352-1.945-4.84-4.693a13.027,13.027,0,0,1,.828-6.747,42.992,42.992,0,0,1,9.688-15.16,27.187,27.187,0,0,1,10.274-7.194,6.846,6.846,0,0,1,3.973-.536,2.466,2.466,0,0,1,1.084.431,1.285,1.285,0,0,0,1.532.164,9.535,9.535,0,0,1,8.348.6C-190.054,1035.784-188.1,1036.925-186.025,1038.095Zm-15.631-1.9-.263-.091a16.1,16.1,0,0,0-7.025,8.155c-.237.6-.48,1.343.182,1.832s1.277.01,1.809-.374a12.364,12.364,0,0,0,4.816-6.96C-201.908,1037.923-201.812,1037.051-201.655,1036.2Z" transform="translate(277.312 -1033.303)"/><path class="a" d="M-514.824,1067.939a15,15,0,0,0-5.775-2.18,14.89,14.89,0,0,0-3.458-.048,4.644,4.644,0,0,0-3.318,2.225c-1.928-3.13-4.917-3.846-8.216-3.74a25.484,25.484,0,0,0-4.47.54c-3.374.719-6.705,1.643-10.089,2.306a13.44,13.44,0,0,1-4.546.147c-3.893-.6-6.169-3.207-6.6-7.252a17.644,17.644,0,0,1,1.619-9,32.793,32.793,0,0,1,15.476-16.863,14.091,14.091,0,0,1,4.162-1.2,2.781,2.781,0,0,1,3.292,3.716,12.684,12.684,0,0,1-1.346,2.6,1.248,1.248,0,0,1-.44.388,1.357,1.357,0,0,1-1.587.173,1.238,1.238,0,0,1-.317-1.548,2.621,2.621,0,0,1,1.912-1.967c.4-.084.8-.176.665-.64a1.537,1.537,0,0,0-.709-.963,2.035,2.035,0,0,0-1.43.083,18.4,18.4,0,0,0-3.952,2.251c-5.642,4.926-9.955,10.793-12.028,18.095a15.916,15.916,0,0,0-.554,4.228c-.017,3.664,1.988,5.587,5.743,6.047,2.419.3,4.748-.409,7.077-.949,3.6-.836,7.179-1.786,10.8-2.5a19.058,19.058,0,0,1,10.022.363A20.408,20.408,0,0,1-514.824,1067.939Z" transform="translate(561.384 -1032.822)"/><path class="a" d="M60.9,1043.568c.824-.987,1.573-1.9,2.342-2.789a.616.616,0,0,1,.45-.173c4.113.288,7.465-1.482,10.562-3.915.728-.572,1.391-1.225,2.116-1.869C73.891,1040.327,66.609,1045.111,60.9,1043.568Z" transform="translate(31.263 -1034.527)"/><path class="a" d="M-216.387,1096.44c.623-1.011,1.154-1.887,1.708-2.75a.59.59,0,0,1,.41-.244c.953-.021,1.906-.011,3.021-.011-.621,1.008-1.159,1.9-1.73,2.779a.684.684,0,0,1-.5.217C-214.385,1096.451-215.294,1096.44-216.387,1096.44Z" transform="translate(267.48 -1084.456)"/></svg>