<svg xmlns="http://www.w3.org/2000/svg" xmlns:xlink="http://www.w3.org/1999/xlink" width="289.281" height="199.681" viewBox="0 0 289.281 199.681"><defs><style>.a{fill:url(#a);}.b{fill:url(#b);}.c{fill:url(#c);}.d{fill:url(#d);}.e{fill:url(#e);}.f{fill:url(#f);}.g{fill:url(#g);}.h{fill:url(#h);}.i{fill:url(#i);}.j{fill:url(#j);}.k{fill:url(#k);}.l{fill:url(#l);}.m{fill:url(#o);}.n{fill:url(#p);}.o{fill:url(#q);}.p{fill:url(#r);}.q{fill:url(#s);}.r{fill:#fff;}.s{fill:url(#t);}.t{fill:url(#u);}.u{fill:url(#v);}.v{fill:url(#w);}.w{fill:url(#x);}.x{fill:url(#y);}.y{fill:url(#z);}.z{fill:url(#aa);}.aa{fill:url(#ab);}.ab{fill:url(#ac);}.ac{fill:url(#ad);}.ad{fill:url(#af);}.ae{fill:url(#ag);}.af{fill:url(#ah);}.ag{fill:url(#ai);}.ah{fill:#232323;}.ai{opacity:0.2;}.aj{filter:url(#m);}</style><linearGradient id="a" x1="-31.866" y1="0.5" x2="28.072" y2="0.5" gradientUnits="objectBoundingBox"><stop offset="0" stop-color="#7063ef"/><stop offset="1" stop-color="#3a79f1"/></linearGradient><linearGradient id="b" x1="-27.082" y1="0.5" x2="32.852" y2="0.5" xlink:href="#a"/><linearGradient id="c" x1="-103.267" y1="0.5" x2="114.86" y2="0.5" xlink:href="#a"/><linearGradient id="d" x1="-56.801" y1="0.5" x2="36.822" y2="0.5" xlink:href="#a"/><linearGradient id="e" x1="-116.698" y1="0.5" x2="134.398" y2="0.5" xlink:href="#a"/><linearGradient id="f" x1="-90.727" y1="0.5" x2="96.949" y2="0.5" xlink:href="#a"/><linearGradient id="g" x1="-24.689" y1="0.5" x2="63.097" y2="0.5" xlink:href="#a"/><linearGradient id="h" x1="-80.336" y1="0.5" x2="95.317" y2="0.5" xlink:href="#a"/><linearGradient id="i" x1="-27.115" y1="0.5" x2="60.672" y2="0.5" xlink:href="#a"/><linearGradient id="j" x1="-31.966" y1="0.5" x2="55.821" y2="0.5" xlink:href="#a"/><linearGradient id="k" x1="-51.178" y1="0.5" x2="8.759" y2="0.5" xlink:href="#a"/><linearGradient id="l" x1="0" y1="0.5" x2="1" y2="0.5" xlink:href="#a"/><filter id="m" x="0" y="38.783" width="240.127" height="160.897" filterUnits="userSpaceOnUse"><feOffset dy="5" input="SourceAlpha"/><feGaussianBlur stdDeviation="5" result="n"/><feFlood flood-opacity="0.149"/><feComposite operator="in" in2="n"/><feComposite in="SourceGraphic"/></filter><linearGradient id="o" x1="-78.231" y1="0.5" x2="5.906" y2="0.5" xlink:href="#a"/><linearGradient id="p" x1="-48.764" y1="0.5" x2="11.173" y2="0.5" xlink:href="#a"/><linearGradient id="q" x1="-12.69" y1="0.5" x2="76.051" y2="0.5" xlink:href="#a"/><linearGradient id="r" x1="-19.834" y1="0.5" x2="67.952" y2="0.5" xlink:href="#a"/><linearGradient id="s" x1="-150.984" y1="0.5" x2="24.71" y2="0.5" xlink:href="#a"/><linearGradient id="t" x1="-1.532" y1="0.5" x2="12.658" y2="0.5" xlink:href="#a"/><linearGradient id="u" x1="0.5" y1="1.014" x2="0.5" y2="-1.838" gradientUnits="objectBoundingBox"><stop offset="0" stop-color="#c2c2c2"/><stop offset="0.495" stop-color="#fff"/><stop offset="1" stop-color="#c2c2c2"/></linearGradient><linearGradient id="v" x1="-1.922" y1="0.5" x2="11.368" y2="0.5" xlink:href="#a"/><linearGradient id="w" x1="0.5" y1="1.426" x2="0.5" y2="-0.007" xlink:href="#u"/><linearGradient id="x" x1="-3.013" y1="0.5" x2="24.89" y2="0.5" xlink:href="#a"/><linearGradient id="y" x1="0.5" y1="3.011" x2="0.5" y2="-2.489" xlink:href="#u"/><linearGradient id="z" x1="-2.518" y1="0.5" x2="20.799" y2="0.5" xlink:href="#a"/><linearGradient id="aa" x1="0.5" y1="4.228" x2="0.5" y2="-0.021" xlink:href="#u"/><linearGradient id="ab" x1="-3.015" y1="0.5" x2="24.913" y2="0.5" xlink:href="#a"/><linearGradient id="ac" x1="0.5" y1="3.905" x2="0.5" y2="-1.305" xlink:href="#u"/><linearGradient id="ad" x1="-3.614" y1="0.5" x2="17.37" y2="0.5" xlink:href="#a"/><linearGradient id="af" x1="-4.419" y1="0.5" x2="20.227" y2="0.5" xlink:href="#a"/><linearGradient id="ag" x1="0.5" y1="3.011" x2="0.5" y2="-2.489" xlink:href="#u"/><linearGradient id="ah" x1="-4.419" y1="0.5" x2="20.227" y2="0.5" xlink:href="#a"/><linearGradient id="ai" x1="0.5" y1="4.851" x2="0.5" y2="-2.055" xlink:href="#u"/></defs><g transform="translate(15 48.783)"><rect class="a" width="3.506" height="1.815" transform="translate(111.714 71.43)"/><rect class="b" width="3.506" height="2.832" transform="translate(94.948 75.41)"/><path class="c" d="M-478.17-803.412a.325.325,0,0,0-.106-.267.5.5,0,0,0-.325-.087h-.533v.715h.533a.5.5,0,0,0,.323-.09A.336.336,0,0,0-478.17-803.412Z" transform="translate(578.612 896.166)"/><rect class="d" width="2.244" height="4.344" transform="translate(127.485 88.949)"/><path class="e" d="M-488.609-818.9h.837l-.42-.948Z" transform="translate(586.266 909.156)"/><path class="f" d="M-467.808-820.218h-.4v1.492h.4a.65.65,0,0,0,.723-.747A.649.649,0,0,0-467.808-820.218Z" transform="translate(569.784 909.456)"/><path class="g" d="M-687.193-715.675h-2v2.267h2a.382.382,0,0,0,.277-.115.377.377,0,0,0,.117-.279v-1.479a.377.377,0,0,0-.117-.279A.382.382,0,0,0-687.193-715.675Z" transform="translate(748.289 825.01)"/><rect class="h" width="1.196" height="2.825" transform="translate(96.103 71.43)"/><path class="i" d="M-656.965-706.643a.533.533,0,0,0-.319-.146h-.99a.506.506,0,0,0-.333.127l-.23.192a.366.366,0,0,0-.155.305v.61h2.394v-.549a.423.423,0,0,0-.136-.338Z" transform="translate(723.895 817.832)"/><path class="j" d="M-596.564-706.643a.534.534,0,0,0-.319-.146h-.99a.505.505,0,0,0-.333.127l-.23.192a.366.366,0,0,0-.155.305v.61h2.394v-.549a.423.423,0,0,0-.136-.338Z" transform="translate(675.106 817.832)"/><rect class="k" width="3.506" height="2.832" transform="translate(179.418 75.41)"/><g class="aj" transform="matrix(1, 0, 0, 1, -15, -48.78)"><path class="l" d="M-792.835-1284.411h-197.4a6.362,6.362,0,0,0-6.362,6.362v118.174a6.362,6.362,0,0,0,6.362,6.362h197.4a6.362,6.362,0,0,0,6.362-6.362v-118.174A6.362,6.362,0,0,0-792.835-1284.411ZM-818.35-1209a1.106,1.106,0,0,1,.344-.815,1.13,1.13,0,0,1,.825-.34v-3.4a.563.563,0,0,1,.165-.409.554.554,0,0,1,.413-.168h2.351a.556.556,0,0,1,.409.168.556.556,0,0,1,.168.409v3.4a1.127,1.127,0,0,1,.811.333,1.1,1.1,0,0,1,.344.821v2.832a1.108,1.108,0,0,1-.344.815,1.115,1.115,0,0,1-.811.34h-3.506a1.1,1.1,0,0,1-.828-.357,1.145,1.145,0,0,1-.34-.811Zm-8.448-4.571a.556.556,0,0,1,.172-.406.555.555,0,0,1,.406-.172h4.647a.556.556,0,0,1,.406.172.557.557,0,0,1,.172.406v7.967a.558.558,0,0,1-.168.409.557.557,0,0,1-.409.169h-.578a.56.56,0,0,1-.406-.169.551.551,0,0,1-.172-.409.556.556,0,0,1,.168-.409.557.557,0,0,1,.409-.168V-1210h-4.07a.555.555,0,0,1-.406-.172.555.555,0,0,1-.172-.406Zm-92.706,7.063a.508.508,0,0,1,.385-.168.992.992,0,0,1,.4.1l.763.323a.542.542,0,0,0,.282.082H-915V-1209h-3.492v-5.135h4.069a.555.555,0,0,1,.406.172.554.554,0,0,1,.172.405.557.557,0,0,1-.168.409.556.556,0,0,1-.409.168h-2.9v2.825H-915a1.11,1.11,0,0,1,.811.344,1.11,1.11,0,0,1,.344.811v2.832a1.112,1.112,0,0,1-.34.815,1.112,1.112,0,0,1-.815.34h-2.674a1.959,1.959,0,0,1-.763-.172l-.873-.364a.542.542,0,0,1-.35-.55A.576.576,0,0,1-919.5-1206.509Zm-20.817-30.337a.52.52,0,0,1,0-.735.52.52,0,0,1,.735,0,4.681,4.681,0,0,1,0,6.613.52.52,0,0,1-.735,0,.52.52,0,0,1,0-.735A3.641,3.641,0,0,0-940.322-1236.846Zm-7.718,23.05a1.117,1.117,0,0,1,.337.814v2.165a1.655,1.655,0,0,1-.468,1.224,1.716,1.716,0,0,1,.481,1.169v2.255a1.108,1.108,0,0,1-.344.815,1.131,1.131,0,0,1-.825.34h-4.083a.557.557,0,0,1-.409-.168.558.558,0,0,1-.168-.409.558.558,0,0,1,.168-.409.557.557,0,0,1,.409-.169h4.07v-2.255a.58.58,0,0,0-.168-.416.546.546,0,0,0-.409-.175h-2.323a.563.563,0,0,1-.409-.165.554.554,0,0,1-.168-.412.557.557,0,0,1,.168-.409.557.557,0,0,1,.409-.168h2.337a.56.56,0,0,0,.406-.168.551.551,0,0,0,.172-.409v-2.234h-4.124a.556.556,0,0,1-.409-.168.558.558,0,0,1-.168-.409.558.558,0,0,1,.168-.409.557.557,0,0,1,.409-.168h4.124A1.108,1.108,0,0,1-948.039-1213.8Zm-5.295,37.969v.338a.4.4,0,0,1-.115.284.373.373,0,0,1-.279.12h-.422a.374.374,0,0,1-.284-.122.37.37,0,0,1-.11-.272l.009-.347a.379.379,0,0,1,.115-.279.379.379,0,0,1,.279-.115h.413a.38.38,0,0,1,.279.115A.38.38,0,0,1-953.334-1175.827Zm-20.773-55.971a.088.088,0,0,1,.015-.047v-3.317a.089.089,0,0,1-.015-.047.089.089,0,0,1,.015-.047v-3.5a.088.088,0,0,1-.015-.047.088.088,0,0,1,.015-.047v-1.112a3.292,3.292,0,0,1,3.292-3.292h17.289a3.292,3.292,0,0,1,3.292,3.292v11.366a3.292,3.292,0,0,1-3.292,3.292H-970.8a3.292,3.292,0,0,1-3.292-3.292v-3.16A.089.089,0,0,1-974.107-1231.8Zm4.942,61.767a.373.373,0,0,1-.12.279.4.4,0,0,1-.284.115.378.378,0,0,1-.277-.117.379.379,0,0,1-.117-.277v-4.74l-.8,1.126v.22a.38.38,0,0,1-.117.277.379.379,0,0,1-.277.117.376.376,0,0,1-.279-.117.384.384,0,0,1-.115-.277v-.2l-.817-1.164v4.759a.379.379,0,0,1-.115.279.38.38,0,0,1-.279.115.377.377,0,0,1-.28-.117.383.383,0,0,1-.115-.277v-5.843h1.019l.969,1.413,1-1.413h1Zm1.1-35.156a.55.55,0,0,1-.175-.406v-2.916a.639.639,0,0,1,.205-.509l2.132-1.8v-2.148H-969.4a.563.563,0,0,1-.578.495.557.557,0,0,1-.409-.168.556.556,0,0,1-.169-.409v-.495a.555.555,0,0,1,.169-.409.556.556,0,0,1,.409-.169h5.238v3.547a.594.594,0,0,1-.213.467l-2.124,1.815v2.688a.58.58,0,0,1-.168.416.546.546,0,0,1-.409.175A.574.574,0,0,1-968.068-1205.186Zm4.6,35.435a.382.382,0,0,1-.277.115.394.394,0,0,1-.286-.115.376.376,0,0,1-.117-.279l-.668.394h-1.335a1.151,1.151,0,0,1-.846-.347,1.148,1.148,0,0,1-.348-.845v-.46a1.147,1.147,0,0,1,.35-.843,1.151,1.151,0,0,1,.844-.35h1.546a1.742,1.742,0,0,1,.367.056l-.009-.558a.38.38,0,0,0-.115-.279.381.381,0,0,0-.28-.115h-1.5a.38.38,0,0,1-.277-.117.379.379,0,0,1-.118-.277.379.379,0,0,1,.115-.279.381.381,0,0,1,.28-.115h1.5a1.142,1.142,0,0,1,.834.343,1.187,1.187,0,0,1,.36.84l.1,2.952A.377.377,0,0,1-963.472-1169.751Zm5.918-3.02a.392.392,0,0,1-.115.286.376.376,0,0,1-.279.118.38.38,0,0,1-.279-.115.38.38,0,0,1-.115-.279v-.221a.38.38,0,0,0-.115-.279.38.38,0,0,0-.279-.115h-.512a.591.591,0,0,0-.366.174l-1.121.972v2.2a.377.377,0,0,1-.117.279.382.382,0,0,1-.277.115.379.379,0,0,1-.279-.115.379.379,0,0,1-.115-.279v-3.74a.4.4,0,0,1,.115-.284.372.372,0,0,1,.279-.12.376.376,0,0,1,.279.117.394.394,0,0,1,.115.286v.493l.643-.549a1.221,1.221,0,0,1,.779-.338h.578a1.14,1.14,0,0,1,.836.348,1.139,1.139,0,0,1,.347.835Zm.316-37.385a1.11,1.11,0,0,1,.811.344,1.11,1.11,0,0,1,.344.811v2.832a1.111,1.111,0,0,1-.34.815,1.111,1.111,0,0,1-.815.34h-2.674a1.96,1.96,0,0,1-.763-.172l-.873-.364a.542.542,0,0,1-.351-.55.576.576,0,0,1,.158-.409.508.508,0,0,1,.385-.168.993.993,0,0,1,.4.1l.763.323a.543.543,0,0,0,.282.082h2.674V-1209h-3.492v-5.135h4.07a.554.554,0,0,1,.405.172.555.555,0,0,1,.172.405.558.558,0,0,1-.168.409.557.557,0,0,1-.409.168h-2.9v2.825Zm4.978,40.4a.384.384,0,0,1-.277.115h-2.4a.379.379,0,0,1-.279-.115.379.379,0,0,1-.115-.279.382.382,0,0,1,.115-.277.375.375,0,0,1,.279-.117h.807v-2.943h-.8a.375.375,0,0,1-.279-.117.382.382,0,0,1-.115-.277.4.4,0,0,1,.115-.284.372.372,0,0,1,.279-.12h1.2a.373.373,0,0,1,.279.12.4.4,0,0,1,.115.284v3.337h.789a.4.4,0,0,1,.284.115.373.373,0,0,1,.12.279A.377.377,0,0,1-952.259-1169.76Zm6.318-1.317a1.313,1.313,0,0,1-.5.981,1.534,1.534,0,0,1-1.03.451h-.925a1.507,1.507,0,0,1-1.032-.458,1.328,1.328,0,0,1-.493-.974v-1.666a1.341,1.341,0,0,1,.481-.974,1.491,1.491,0,0,1,1.044-.458h.925a1.492,1.492,0,0,1,1.03.441,1.321,1.321,0,0,1,.5.99Zm6.743-39.093a1.121,1.121,0,0,1-.344.828,1.13,1.13,0,0,1-.825.34h-3.506v2.832h4.1a.56.56,0,0,1,.405.169.551.551,0,0,1,.172.409.551.551,0,0,1-.172.409.559.559,0,0,1-.405.168h-5.252V-1209a1.13,1.13,0,0,1,.341-.825,1.1,1.1,0,0,1,.814-.344h3.506v-2.812h-4.125a.552.552,0,0,1-.412-.168.563.563,0,0,1-.165-.409.563.563,0,0,1,.165-.409.553.553,0,0,1,.412-.168h4.125a1.13,1.13,0,0,1,.825.34,1.1,1.1,0,0,1,.344.814Zm.776-19.635a6.329,6.329,0,0,0,0-8.94.52.52,0,0,1,0-.735.52.52,0,0,1,.735,0,7.369,7.369,0,0,1,0,10.41.52.52,0,0,1-.735,0A.52.52,0,0,1-938.424-1229.8Zm4.1,56.6a1.14,1.14,0,0,1-.347.836,1.139,1.139,0,0,1-.835.347h-2v1.99a.379.379,0,0,1-.115.279.379.379,0,0,1-.279.115.393.393,0,0,1-.286-.115.377.377,0,0,1-.117-.279v-5.843h2.8a1.133,1.133,0,0,1,.833.352,1.151,1.151,0,0,1,.35.84Zm-1.47-53.968a.52.52,0,0,1-.735,0,.52.52,0,0,1,0-.735,9.016,9.016,0,0,0,0-12.736.52.52,0,0,1,0-.735.52.52,0,0,1,.735,0,9.979,9.979,0,0,1,2.942,7.1A9.98,9.98,0,0,1-935.791-1227.171Zm7.266,55.442a.379.379,0,0,1-.117.277.38.38,0,0,1-.277.118h-2.788v.23a.426.426,0,0,0,.174.343l.23.193a.592.592,0,0,0,.357.146h2.028a.384.384,0,0,1,.277.115.377.377,0,0,1,.117.279.376.376,0,0,1-.119.277.382.382,0,0,1-.275.117H-931a1.217,1.217,0,0,1-.434-.087,1.13,1.13,0,0,1-.336-.181l-.352-.31a1.006,1.006,0,0,1-.275-.366,1.025,1.025,0,0,1-.11-.432v-1.807a1.1,1.1,0,0,1,.12-.418,1.084,1.084,0,0,1,.3-.408l.328-.258a1.113,1.113,0,0,1,.718-.263h1.108a1.141,1.141,0,0,1,.789.348l.3.281a1.09,1.09,0,0,1,.319.854Zm5.806-1.042a.393.393,0,0,1-.115.286.377.377,0,0,1-.279.118.38.38,0,0,1-.28-.115.38.38,0,0,1-.115-.279v-.221a.379.379,0,0,0-.115-.279.38.38,0,0,0-.279-.115h-.512a.591.591,0,0,0-.366.174l-1.121.972v2.2a.376.376,0,0,1-.118.279.382.382,0,0,1-.277.115.38.38,0,0,1-.279-.115.379.379,0,0,1-.115-.279v-3.74a.4.4,0,0,1,.115-.284.372.372,0,0,1,.279-.12.376.376,0,0,1,.279.117.394.394,0,0,1,.115.286v.493l.643-.549a1.221,1.221,0,0,1,.779-.338h.578a1.139,1.139,0,0,1,.835.348,1.139,1.139,0,0,1,.347.835Zm.259-33.4a1.107,1.107,0,0,1-.344.815,1.132,1.132,0,0,1-.825.34h-4.083a.556.556,0,0,1-.409-.168.556.556,0,0,1-.169-.409.556.556,0,0,1,.169-.409.556.556,0,0,1,.409-.169h4.07v-2.255a.581.581,0,0,0-.168-.416.547.547,0,0,0-.409-.175h-2.323a.563.563,0,0,1-.409-.165.553.553,0,0,1-.168-.412.556.556,0,0,1,.168-.409.556.556,0,0,1,.409-.168h2.337a.56.56,0,0,0,.406-.168.552.552,0,0,0,.172-.409v-2.234h-4.124a.555.555,0,0,1-.409-.168.556.556,0,0,1-.168-.409.556.556,0,0,1,.168-.409.556.556,0,0,1,.409-.168h4.124a1.109,1.109,0,0,1,.818.34,1.118,1.118,0,0,1,.337.814v2.165a1.655,1.655,0,0,1-.467,1.224,1.718,1.718,0,0,1,.481,1.169Zm5.547,34.44a.379.379,0,0,1-.117.277.38.38,0,0,1-.277.118H-920.1v.23a.426.426,0,0,0,.174.343l.23.193a.593.593,0,0,0,.357.146h2.027a.384.384,0,0,1,.277.115.377.377,0,0,1,.117.279.376.376,0,0,1-.12.277.382.382,0,0,1-.275.117h-2.079a1.218,1.218,0,0,1-.434-.087,1.13,1.13,0,0,1-.336-.181l-.352-.31a1,1,0,0,1-.274-.366,1.024,1.024,0,0,1-.111-.432v-1.807a1.1,1.1,0,0,1,.12-.418,1.083,1.083,0,0,1,.3-.408l.329-.258a1.112,1.112,0,0,1,.718-.263h1.108a1.141,1.141,0,0,1,.788.348l.3.281a1.088,1.088,0,0,1,.319.854Zm5.815-1.722a.427.427,0,0,1-.136.319l-2.8,2.708h2.532a.38.38,0,0,1,.279.115.38.38,0,0,1,.115.279.379.379,0,0,1-.115.279.38.38,0,0,1-.279.115h-3.173a.394.394,0,0,1-.286-.115.377.377,0,0,1-.117-.279v-.338a.568.568,0,0,1,.211-.375l2.743-2.633h-2.367a.377.377,0,0,1-.28-.117.394.394,0,0,1-.115-.286.381.381,0,0,1,.118-.275.375.375,0,0,1,.277-.12h3a.372.372,0,0,1,.279.12.4.4,0,0,1,.115.284Zm5.6-37.123a.593.593,0,0,1-.213.467l-2.124,1.815v2.688a.58.58,0,0,1-.168.416.547.547,0,0,1-.409.175.573.573,0,0,1-.416-.172.55.55,0,0,1-.175-.406v-2.916a.639.639,0,0,1,.205-.509l2.132-1.8v-2.148h-3.492a.563.563,0,0,1-.578.495.558.558,0,0,1-.409-.168.557.557,0,0,1-.168-.409v-.495a.556.556,0,0,1,.168-.409.557.557,0,0,1,.409-.169h5.238Zm3.015,5.2a1.145,1.145,0,0,1-.34-.811V-1209a1.105,1.105,0,0,1,.344-.815,1.13,1.13,0,0,1,.825-.34v-3.4a.562.562,0,0,1,.165-.409.553.553,0,0,1,.412-.168h2.351a.557.557,0,0,1,.409.168.557.557,0,0,1,.169.409v3.4a1.127,1.127,0,0,1,.811.333,1.1,1.1,0,0,1,.344.821v2.832a1.106,1.106,0,0,1-.344.815,1.115,1.115,0,0,1-.811.34h-3.506A1.1,1.1,0,0,1-902.48-1205.372Zm3.131,10.09a.092.092,0,0,1-.011.042l-.758,1.684a.112.112,0,0,1-.047.053.132.132,0,0,1-.069.019.131.131,0,0,1-.069-.019.116.116,0,0,1-.047-.053l-.755-1.684a.109.109,0,0,1-.008-.04.086.086,0,0,1,.034-.07.119.119,0,0,1,.076-.028.1.1,0,0,1,.092.061l.681,1.539.678-1.539a.1.1,0,0,1,.038-.045.1.1,0,0,1,.054-.016.113.113,0,0,1,.075.028A.084.084,0,0,1-899.349-1195.282Zm-.256,3.252a.107.107,0,0,1-.074.024h-.568v1.579a.112.112,0,0,1-.029.081.1.1,0,0,1-.079.03.109.109,0,0,1-.08-.03.109.109,0,0,1-.03-.081v-1.579h-.568a.107.107,0,0,1-.074-.024.087.087,0,0,1-.026-.068.087.087,0,0,1,.026-.069.105.105,0,0,1,.074-.024h1.354a.105.105,0,0,1,.074.024.088.088,0,0,1,.026.069A.088.088,0,0,1-899.605-1192.029Zm1.811,1.6a.115.115,0,0,1-.028.081.1.1,0,0,1-.078.03.1.1,0,0,1-.079-.03.112.112,0,0,1-.029-.081v-.755h-1.114v.755a.111.111,0,0,1-.029.081.1.1,0,0,1-.079.03.1.1,0,0,1-.078-.03.115.115,0,0,1-.028-.081v-1.666a.114.114,0,0,1,.028-.08.1.1,0,0,1,.078-.03.105.105,0,0,1,.079.03.111.111,0,0,1,.029.08v.726h1.114v-.726a.112.112,0,0,1,.029-.08.1.1,0,0,1,.079-.03.1.1,0,0,1,.078.03.115.115,0,0,1,.028.08Zm.12-3.083a.108.108,0,0,1-.072.026.093.093,0,0,1-.093-.063l-.187-.428h-1l-.19.428a.094.094,0,0,1-.092.063.108.108,0,0,1-.074-.028.085.085,0,0,1-.032-.067.094.094,0,0,1,.011-.042l.755-1.679a.114.114,0,0,1,.047-.055.135.135,0,0,1,.069-.019.134.134,0,0,1,.071.02.125.125,0,0,1,.047.054l.755,1.679a.1.1,0,0,1,.01.045A.084.084,0,0,1-897.674-1193.51Zm.337-1.75a.112.112,0,0,1,.029-.081.1.1,0,0,1,.079-.03.1.1,0,0,1,.079.03.112.112,0,0,1,.029.081v1.579h.852a.108.108,0,0,1,.074.024.089.089,0,0,1,.026.069.088.088,0,0,1-.026.068.106.106,0,0,1-.074.024h-.963a.107.107,0,0,1-.075-.028.094.094,0,0,1-.031-.073Zm1.411,4.922a.107.107,0,0,1-.07.025.107.107,0,0,1-.095-.053l-.354-.56a.425.425,0,0,0-.142-.149.418.418,0,0,0-.2-.041h-.333v.689a.112.112,0,0,1-.029.081.1.1,0,0,1-.076.03.1.1,0,0,1-.079-.03.112.112,0,0,1-.029-.081v-1.658a.1.1,0,0,1,.03-.077.111.111,0,0,1,.08-.029h.655a.7.7,0,0,1,.463.135.488.488,0,0,1,.16.4.5.5,0,0,1-.128.356.584.584,0,0,1-.366.164.324.324,0,0,1,.119.068.625.625,0,0,1,.106.132l.3.475a.114.114,0,0,1,.018.061A.08.08,0,0,1-895.926-1190.338Zm.231-3.256a.112.112,0,0,1-.029.081.1.1,0,0,1-.079.03.105.105,0,0,1-.08-.03.111.111,0,0,1-.029-.081v-1.666a.111.111,0,0,1,.029-.081.105.105,0,0,1,.08-.03.1.1,0,0,1,.079.03.113.113,0,0,1,.029.081Zm1.637,2.537a.762.762,0,0,1-.189.558.74.74,0,0,1-.55.192.743.743,0,0,1-.552-.19.766.766,0,0,1-.187-.56v-1.035a.111.111,0,0,1,.029-.08.1.1,0,0,1,.079-.03.1.1,0,0,1,.077.03.111.111,0,0,1,.029.08v1.053a.566.566,0,0,0,.133.409.523.523,0,0,0,.392.137.519.519,0,0,0,.391-.137.57.57,0,0,0,.132-.409v-1.053a.109.109,0,0,1,.03-.08.106.106,0,0,1,.078-.03.1.1,0,0,1,.079.03.111.111,0,0,1,.029.08Zm.137-2.682a.937.937,0,0,1-.689.243h-.515a.111.111,0,0,1-.08-.029.1.1,0,0,1-.03-.077v-1.65a.1.1,0,0,1,.03-.076.111.111,0,0,1,.08-.029h.515a.939.939,0,0,1,.69.241.925.925,0,0,1,.245.688A.926.926,0,0,1-893.921-1193.74Zm6.079,2.99a.354.354,0,0,1-.107.261.354.354,0,0,1-.261.108h-2.972a.349.349,0,0,1-.261-.112.371.371,0,0,1-.107-.266.343.343,0,0,1,.107-.254.359.359,0,0,1,.261-.105h1.131v-4.344h-1.113a.354.354,0,0,1-.261-.107.355.355,0,0,1-.107-.261.355.355,0,0,1,.107-.261.356.356,0,0,1,.261-.107h1.85v5.081h.736v-1.534a.357.357,0,0,1,.107-.259.351.351,0,0,1,.261-.109.354.354,0,0,1,.261.107.355.355,0,0,1,.107.261Zm5.449-2.919a.716.716,0,0,1-.219.528.721.721,0,0,1-.526.217h-2.236v1.806h2.613a.357.357,0,0,1,.259.107.352.352,0,0,1,.11.261.351.351,0,0,1-.11.261.357.357,0,0,1-.259.108h-3.349v-2.542a.721.721,0,0,1,.217-.526.7.7,0,0,1,.519-.219h2.236v-1.793h-2.63a.353.353,0,0,1-.263-.107.358.358,0,0,1-.105-.261.359.359,0,0,1,.105-.261.354.354,0,0,1,.263-.107h2.63a.721.721,0,0,1,.526.217.706.706,0,0,1,.219.519Zm1-11.359a.56.56,0,0,1-.406-.169.552.552,0,0,1-.172-.409.558.558,0,0,1,.168-.409.558.558,0,0,1,.409-.168V-1210h-4.069a.554.554,0,0,1-.406-.172.554.554,0,0,1-.172-.406v-3a.555.555,0,0,1,.172-.406.555.555,0,0,1,.406-.172h4.647a.555.555,0,0,1,.406.172.555.555,0,0,1,.172.406v7.967a.558.558,0,0,1-.168.409.556.556,0,0,1-.409.169Zm4.41,9.469-2.99,5.072a.242.242,0,0,1-.223.114.425.425,0,0,1-.269-.1.307.307,0,0,1-.125-.252.585.585,0,0,1,.088-.289l2.992-5.066a.253.253,0,0,1,.231-.12.429.429,0,0,1,.264.094.3.3,0,0,1,.124.247A.576.576,0,0,1-876.984-1195.559Zm.78-9.627-.873-.364a.542.542,0,0,1-.35-.55.576.576,0,0,1,.158-.409.508.508,0,0,1,.385-.168.99.99,0,0,1,.4.1l.763.323a.541.541,0,0,0,.282.082h2.674V-1209h-3.492v-5.135h4.069a.554.554,0,0,1,.406.172.554.554,0,0,1,.172.405.557.557,0,0,1-.168.409.555.555,0,0,1-.409.168h-2.9v2.825h2.323a1.109,1.109,0,0,1,.811.344,1.11,1.11,0,0,1,.344.811v2.832a1.112,1.112,0,0,1-.34.815,1.111,1.111,0,0,1-.814.34h-2.674A1.96,1.96,0,0,1-876.2-1205.186Zm4.656,11.517a.715.715,0,0,1-.219.528.722.722,0,0,1-.526.217h-2.236v1.806h2.613a.358.358,0,0,1,.259.107.353.353,0,0,1,.109.261.352.352,0,0,1-.109.261.357.357,0,0,1-.259.108h-3.349v-2.542a.722.722,0,0,1,.217-.526.706.706,0,0,1,.52-.219h2.236v-1.793h-2.63a.353.353,0,0,1-.263-.107.358.358,0,0,1-.105-.261.358.358,0,0,1,.105-.261.354.354,0,0,1,.263-.107h2.63a.722.722,0,0,1,.526.217.7.7,0,0,1,.219.519Zm5.4,2.578a.684.684,0,0,1-.208.5.684.684,0,0,1-.5.208h-2.288a.682.682,0,0,1-.5-.208.688.688,0,0,1-.206-.5v-4.406a.683.683,0,0,1,.211-.5.682.682,0,0,1,.5-.21h2.3a.67.67,0,0,1,.493.21.687.687,0,0,1,.208.5Zm2.87-14.5a.557.557,0,0,1-.168.409.557.557,0,0,1-.409.168h-4.661a.545.545,0,0,1-.409-.175.578.578,0,0,1-.168-.416.537.537,0,0,1,.168-.4.562.562,0,0,1,.409-.165h1.774v-6.812h-1.746a.555.555,0,0,1-.409-.168.556.556,0,0,1-.168-.409.556.556,0,0,1,.168-.409.556.556,0,0,1,.409-.168h2.9v7.967h1.155v-2.406a.559.559,0,0,1,.168-.406.55.55,0,0,1,.409-.172.557.557,0,0,1,.409.168.558.558,0,0,1,.168.409Zm8.545-4.578a1.122,1.122,0,0,1-.344.828,1.131,1.131,0,0,1-.825.34H-859.4v2.832h4.1a.561.561,0,0,1,.406.169.552.552,0,0,1,.172.409.552.552,0,0,1-.172.409.561.561,0,0,1-.406.168h-5.252V-1209a1.131,1.131,0,0,1,.34-.825,1.106,1.106,0,0,1,.815-.344h3.506v-2.812h-4.125a.552.552,0,0,1-.412-.168.562.562,0,0,1-.165-.409.562.562,0,0,1,.165-.409.553.553,0,0,1,.412-.168h4.125a1.131,1.131,0,0,1,.825.34,1.106,1.106,0,0,1,.344.814Zm16.683,4.578a.557.557,0,0,1-.168.409.557.557,0,0,1-.409.168h-4.661a.546.546,0,0,1-.409-.175.58.58,0,0,1-.168-.416.538.538,0,0,1,.168-.4.563.563,0,0,1,.409-.165h1.774v-6.812h-1.746a.556.556,0,0,1-.409-.168.557.557,0,0,1-.168-.409.557.557,0,0,1,.168-.409.557.557,0,0,1,.409-.168h2.9v7.967h1.155v-2.406a.56.56,0,0,1,.168-.406.552.552,0,0,1,.409-.172.557.557,0,0,1,.409.168.557.557,0,0,1,.168.409Zm4.077.406-.873-.364a.542.542,0,0,1-.35-.55.575.575,0,0,1,.158-.409.507.507,0,0,1,.385-.168.991.991,0,0,1,.4.1l.763.323a.542.542,0,0,0,.282.082h2.674V-1209h-3.492v-5.135h4.07a.555.555,0,0,1,.406.172.555.555,0,0,1,.172.405.557.557,0,0,1-.168.409.556.556,0,0,1-.409.168h-2.9v2.825h2.324a1.11,1.11,0,0,1,.811.344,1.109,1.109,0,0,1,.344.811v2.832a1.112,1.112,0,0,1-.34.815,1.111,1.111,0,0,1-.814.34h-2.674A1.959,1.959,0,0,1-833.968-1205.186Zm10.408,43.464c-.95-.017-1.9,0-2.867,0-.193-.7-.4-1.407-.6-2.11-.668-2.41-1.354-4.819-2.005-7.229a.526.526,0,0,0-.334-.4c-.9-.334-1.812-.686-2.709-1.02a.659.659,0,0,0-.193-.018.66.66,0,0,1-.018-.193,2.157,2.157,0,0,1,.334-.035h4.327c.193,0,.369.017.563.035a1.126,1.126,0,0,1,1.055.967c.44,2.075.862,4.133,1.3,6.208.018.088.035.158.07.3.281-.738.563-1.425.827-2.093.668-1.706,1.354-3.43,2.005-5.153a.378.378,0,0,1,.4-.282c.862.018,1.706,0,2.568,0h.317c-.053.141-.088.229-.123.317-1.495,3.483-2.99,6.947-4.485,10.43A.389.389,0,0,1-823.56-1161.722Zm7.387.018h-3.007c.106-.651.211-1.3.334-1.952.51-2.937,1-5.892,1.513-8.829.018-.123.035-.229.211-.229h2.744c.018-.017.035,0,.088.018Q-815.215-1167.209-816.174-1161.7Zm6.93.035a9.8,9.8,0,0,1-4.731-.317c-.088-.035-.176-.07-.281-.123.141-.809.281-1.618.422-2.462.316.123.616.264.932.369a5.579,5.579,0,0,0,2.937.3,2.11,2.11,0,0,0,.791-.334.781.781,0,0,0,.053-1.3,7.318,7.318,0,0,0-1-.616,15.524,15.524,0,0,1-1.741-1.02,2.714,2.714,0,0,1-.387-4.115,4.974,4.974,0,0,1,2.972-1.53c.229-.036.44-.071.668-.106h1.337c.545.106,1.108.229,1.653.334.123.035.246.088.387.123-.141.792-.264,1.565-.4,2.339a8.413,8.413,0,0,0-1.407-.387,14.636,14.636,0,0,0-1.759-.035,1.143,1.143,0,0,0-.352.088c-.352.141-.668.3-.721.721a.827.827,0,0,0,.528.826c.4.246.844.458,1.266.686a10.963,10.963,0,0,1,1.091.633,2.945,2.945,0,0,1,.457,4.538A4.747,4.747,0,0,1-809.244-1161.669Zm13.56-.018c-.615,0-1.249-.018-1.864,0-.281.018-.369-.088-.422-.352-.07-.44-.176-.862-.281-1.319h-3.623a.305.305,0,0,0-.334.229c-.141.422-.3.827-.475,1.231a.412.412,0,0,1-.193.193c-1,.018-1.987,0-3.025,0,.053-.105.088-.193.123-.281,1.425-3.236,2.867-6.472,4.292-9.726a1.537,1.537,0,0,1,1.53-1.038c.809.035,1.618.035,2.445.035.809,3.676,1.618,7.334,2.427,11.028Z" transform="translate(1011.6 1333.19)"/></g><path class="m" d="M21.266-687.38c-.51,1.337-1.038,2.674-1.565,4.028h2.5c-.3-1.354-.58-2.691-.879-4.028Z" transform="translate(175.675 802.155)"/><rect class="n" width="3.506" height="1.815" transform="translate(170.956 71.43)"/><path class="o" d="M-838.065-697.862a.376.376,0,0,0-.277-.113H-839.9a.38.38,0,0,0-.279.115.38.38,0,0,0-.115.279v.441a.378.378,0,0,0,.118.277.38.38,0,0,0,.277.117h1.114l.859-.5-.023-.333A.4.4,0,0,0-838.065-697.862Z" transform="translate(870.341 810.713)"/><path class="p" d="M-747.67-706.769a.5.5,0,0,0-.329-.117h-.817a.609.609,0,0,0-.413.127l-.268.23a.4.4,0,0,0-.145.319v1.6a.419.419,0,0,0,.155.343l.3.254a.411.411,0,0,0,.277.084H-748a.539.539,0,0,0,.366-.146l.239-.211a.376.376,0,0,0,.146-.315v-1.6a.412.412,0,0,0-.146-.347Z" transform="translate(797.117 817.911)"/><rect class="q" width="1.196" height="2.825" transform="translate(180.573 71.43)"/><path class="r" d="M-857.63-910.269v-2.688l2.124-1.815a.594.594,0,0,0,.213-.467v-3.547h-5.238a.556.556,0,0,0-.409.168.555.555,0,0,0-.169.409v.495a.556.556,0,0,0,.169.409.557.557,0,0,0,.409.168.563.563,0,0,0,.578-.495h3.492v2.148l-2.132,1.8a.638.638,0,0,0-.205.509v2.916a.55.55,0,0,0,.175.406.574.574,0,0,0,.416.172.547.547,0,0,0,.409-.175A.581.581,0,0,0-857.63-910.269Z" transform="translate(887.155 989.075)"/><path class="r" d="M-810.85-917.7a.558.558,0,0,0,.409-.168.558.558,0,0,0,.168-.409.555.555,0,0,0-.172-.405.555.555,0,0,0-.406-.172h-4.069v5.135h3.492v2.832H-814.1a.543.543,0,0,1-.282-.083l-.763-.323a.989.989,0,0,0-.4-.1.508.508,0,0,0-.385.168.576.576,0,0,0-.158.409.542.542,0,0,0,.351.55l.873.365a1.96,1.96,0,0,0,.763.172h2.674a1.111,1.111,0,0,0,.815-.34,1.112,1.112,0,0,0,.34-.815v-2.832a1.109,1.109,0,0,0-.344-.811,1.109,1.109,0,0,0-.811-.344h-2.323V-917.7Z" transform="translate(850.79 989.133)"/><path class="r" d="M-772.546-918.689a.557.557,0,0,0-.168.409.558.558,0,0,0,.168.409.556.556,0,0,0,.409.168h4.124v2.234a.55.55,0,0,1-.172.409.56.56,0,0,1-.406.168h-2.337a.557.557,0,0,0-.409.168.557.557,0,0,0-.168.409.554.554,0,0,0,.168.413.563.563,0,0,0,.409.165h2.323a.546.546,0,0,1,.409.175.58.58,0,0,1,.168.416v2.255h-4.07a.557.557,0,0,0-.409.169.557.557,0,0,0-.168.409.557.557,0,0,0,.168.409.557.557,0,0,0,.409.168h4.083a1.131,1.131,0,0,0,.825-.34,1.107,1.107,0,0,0,.344-.815v-2.255a1.717,1.717,0,0,0-.481-1.169,1.655,1.655,0,0,0,.468-1.224V-917.7a1.117,1.117,0,0,0-.337-.814,1.108,1.108,0,0,0-.818-.34h-4.124A.557.557,0,0,0-772.546-918.689Z" transform="translate(815.754 989.133)"/><path class="r" d="M-723.85-918.858h-4.125a.553.553,0,0,0-.412.168.563.563,0,0,0-.165.409.563.563,0,0,0,.165.409.553.553,0,0,0,.412.168h4.125v2.812h-3.506a1.105,1.105,0,0,0-.814.344,1.131,1.131,0,0,0-.34.825v3.987h5.252a.56.56,0,0,0,.405-.168.551.551,0,0,0,.172-.409.551.551,0,0,0-.172-.409.56.56,0,0,0-.405-.169h-4.1v-2.832h3.506a1.13,1.13,0,0,0,.825-.34,1.121,1.121,0,0,0,.344-.828V-917.7a1.105,1.105,0,0,0-.344-.814A1.13,1.13,0,0,0-723.85-918.858Z" transform="translate(780.082 989.133)"/><path class="r" d="M-635.624-915.538V-917.7a1.118,1.118,0,0,0-.337-.814,1.108,1.108,0,0,0-.818-.34H-640.9a.556.556,0,0,0-.409.168.556.556,0,0,0-.168.409.556.556,0,0,0,.168.409.555.555,0,0,0,.409.168h4.124v2.234a.551.551,0,0,1-.172.409.56.56,0,0,1-.405.168h-2.337a.556.556,0,0,0-.409.168.556.556,0,0,0-.168.409.553.553,0,0,0,.168.413.563.563,0,0,0,.409.165h2.323a.546.546,0,0,1,.409.175.581.581,0,0,1,.168.416v2.255h-4.07a.556.556,0,0,0-.409.169.556.556,0,0,0-.169.409.557.557,0,0,0,.169.409.557.557,0,0,0,.409.168h4.083a1.132,1.132,0,0,0,.825-.34,1.107,1.107,0,0,0,.344-.815v-2.255a1.718,1.718,0,0,0-.481-1.169A1.655,1.655,0,0,0-635.624-915.538Z" transform="translate(709.75 989.133)"/><path class="r" d="M-596.039-910.272l.873.365a1.96,1.96,0,0,0,.763.172h2.674a1.112,1.112,0,0,0,.815-.34,1.112,1.112,0,0,0,.34-.815v-2.832a1.11,1.11,0,0,0-.344-.811,1.109,1.109,0,0,0-.811-.344h-2.323V-917.7h2.9a.556.556,0,0,0,.409-.168.557.557,0,0,0,.168-.409.555.555,0,0,0-.172-.405.555.555,0,0,0-.406-.172h-4.069v5.135h3.492v2.832H-594.4a.542.542,0,0,1-.282-.083l-.763-.323a.988.988,0,0,0-.4-.1.508.508,0,0,0-.385.168.577.577,0,0,0-.158.409A.541.541,0,0,0-596.039-910.272Z" transform="translate(673.327 989.133)"/><path class="r" d="M-552.776-918.618a.557.557,0,0,0-.168.409v.495a.557.557,0,0,0,.168.409.558.558,0,0,0,.409.168.563.563,0,0,0,.577-.495h3.492v2.148l-2.132,1.8a.638.638,0,0,0-.205.509v2.916a.55.55,0,0,0,.175.406.574.574,0,0,0,.416.172.546.546,0,0,0,.409-.175.58.58,0,0,0,.168-.416v-2.688l2.124-1.815a.593.593,0,0,0,.213-.467v-3.547h-5.238A.557.557,0,0,0-552.776-918.618Z" transform="translate(638.233 989.075)"/><path class="r" d="M-503.3-910.076a1.106,1.106,0,0,0,.344-.815v-2.832a1.1,1.1,0,0,0-.344-.822,1.126,1.126,0,0,0-.811-.333v-3.4a.557.557,0,0,0-.169-.409.557.557,0,0,0-.409-.168h-2.351a.553.553,0,0,0-.412.168.562.562,0,0,0-.165.409v3.4a1.13,1.13,0,0,0-.825.34,1.105,1.105,0,0,0-.344.815v2.818a1.145,1.145,0,0,0,.34.811,1.1,1.1,0,0,0,.828.358h3.506A1.115,1.115,0,0,0-503.3-910.076Zm-3.162-7.627h1.2v2.825h-1.2Zm-1.155,3.98h3.506v2.832h-3.506Z" transform="translate(602.561 989.133)"/><path class="r" d="M-415.7-910.385v-7.967a.555.555,0,0,0-.172-.406.556.556,0,0,0-.406-.172h-4.647a.555.555,0,0,0-.406.172.555.555,0,0,0-.172.406v3a.554.554,0,0,0,.172.406.555.555,0,0,0,.406.172h4.069v3.815a.557.557,0,0,0-.409.168.558.558,0,0,0-.168.409.552.552,0,0,0,.172.409.56.56,0,0,0,.406.168h.578a.557.557,0,0,0,.409-.168A.558.558,0,0,0-415.7-910.385Zm-1.141-5.561h-3.506v-1.815h3.506Z" transform="translate(532.056 989.191)"/><path class="r" d="M-371.217-910.076a1.112,1.112,0,0,0,.34-.815v-2.832a1.109,1.109,0,0,0-.344-.811,1.108,1.108,0,0,0-.811-.344h-2.323V-917.7h2.9a.556.556,0,0,0,.409-.168.557.557,0,0,0,.168-.409.554.554,0,0,0-.172-.405.555.555,0,0,0-.406-.172h-4.069v5.135h3.492v2.832h-2.674a.542.542,0,0,1-.282-.083l-.763-.323a.986.986,0,0,0-.4-.1.508.508,0,0,0-.385.168.576.576,0,0,0-.158.409.542.542,0,0,0,.35.55l.873.365a1.959,1.959,0,0,0,.763.172h2.674A1.112,1.112,0,0,0-371.217-910.076Z" transform="translate(495.865 989.133)"/><path class="r" d="M-328.078-913.874a.551.551,0,0,0-.409.172.559.559,0,0,0-.168.406v2.406h-1.155v-7.967h-2.9a.556.556,0,0,0-.409.168.555.555,0,0,0-.168.409.556.556,0,0,0,.168.409.555.555,0,0,0,.409.168h1.746v6.812h-1.774a.562.562,0,0,0-.409.165.537.537,0,0,0-.168.4.579.579,0,0,0,.168.416.546.546,0,0,0,.409.175h4.661a.557.557,0,0,0,.409-.168.557.557,0,0,0,.168-.409V-913.3a.557.557,0,0,0-.168-.409A.556.556,0,0,0-328.078-913.874Z" transform="translate(460.827 989.133)"/><path class="r" d="M-284.454-918.858h-4.125a.553.553,0,0,0-.412.168.562.562,0,0,0-.165.409.562.562,0,0,0,.165.409.553.553,0,0,0,.412.168h4.125v2.812h-3.506a1.106,1.106,0,0,0-.815.344,1.131,1.131,0,0,0-.34.825v3.987h5.252a.561.561,0,0,0,.406-.168.552.552,0,0,0,.172-.409.552.552,0,0,0-.172-.409.561.561,0,0,0-.406-.169h-4.1v-2.832h3.506a1.131,1.131,0,0,0,.825-.34,1.121,1.121,0,0,0,.344-.828V-917.7a1.105,1.105,0,0,0-.344-.814A1.131,1.131,0,0,0-284.454-918.858Z" transform="translate(425.157 989.133)"/><path class="r" d="M-196.847-913.874a.551.551,0,0,0-.409.172.56.56,0,0,0-.168.406v2.406h-1.155v-7.967h-2.9a.557.557,0,0,0-.409.168.557.557,0,0,0-.168.409.557.557,0,0,0,.168.409.556.556,0,0,0,.409.168h1.746v6.812h-1.774a.563.563,0,0,0-.409.165.538.538,0,0,0-.168.4.58.58,0,0,0,.168.416.546.546,0,0,0,.409.175h4.661a.557.557,0,0,0,.409-.168.557.557,0,0,0,.168-.409V-913.3a.558.558,0,0,0-.168-.409A.557.557,0,0,0-196.847-913.874Z" transform="translate(354.824 989.133)"/><path class="r" d="M-151.518-910.076a1.112,1.112,0,0,0,.34-.815v-2.832a1.109,1.109,0,0,0-.344-.811,1.109,1.109,0,0,0-.811-.344h-2.324V-917.7h2.9a.556.556,0,0,0,.409-.168.557.557,0,0,0,.168-.409.555.555,0,0,0-.172-.405.555.555,0,0,0-.406-.172h-4.07v5.135h3.492v2.832h-2.674a.542.542,0,0,1-.282-.083l-.763-.323a.987.987,0,0,0-.4-.1.507.507,0,0,0-.385.168.575.575,0,0,0-.158.409.542.542,0,0,0,.35.55l.873.365a1.959,1.959,0,0,0,.763.172h2.674A1.112,1.112,0,0,0-151.518-910.076Z" transform="translate(318.401 989.133)"/><path class="r" d="M-112.756-914.778h4.07v3.815a.556.556,0,0,0-.409.168.556.556,0,0,0-.168.409.551.551,0,0,0,.172.409.559.559,0,0,0,.406.168h.577a.557.557,0,0,0,.409-.168.558.558,0,0,0,.168-.409v-7.967a.557.557,0,0,0-.172-.406.556.556,0,0,0-.406-.172h-4.647a.555.555,0,0,0-.406.172.555.555,0,0,0-.172.406v3a.554.554,0,0,0,.172.406A.555.555,0,0,0-112.756-914.778Zm.577-2.983h3.506v1.815h-3.506Z" transform="translate(283.134 989.191)"/><path class="r" d="M-68.217-909.736h3.506a1.115,1.115,0,0,0,.811-.34,1.107,1.107,0,0,0,.344-.815v-2.832a1.1,1.1,0,0,0-.344-.822,1.127,1.127,0,0,0-.811-.333v-3.4a.557.557,0,0,0-.168-.409.556.556,0,0,0-.409-.168H-67.64a.554.554,0,0,0-.413.168.563.563,0,0,0-.165.409v3.4a1.13,1.13,0,0,0-.825.34,1.106,1.106,0,0,0-.344.815v2.818a1.145,1.145,0,0,0,.34.811A1.1,1.1,0,0,0-68.217-909.736Zm1.155-7.967h1.2v2.825h-1.2Zm-1.155,3.98h3.506v2.832h-3.506Z" transform="translate(247.636 989.133)"/><path class="s" d="M-863.778-1006.245v-2.8h-5.754a1.532,1.532,0,0,1-1.5-1.214h-7.557v3.117a3.112,3.112,0,0,0,3.112,3.112h9.48A2.217,2.217,0,0,0-863.778-1006.245Z" transform="translate(901.273 1062.966)"/><path class="t" d="M-863.778-1006.245v-2.8h-5.754a1.532,1.532,0,0,1-1.5-1.214h-7.557v3.117a3.112,3.112,0,0,0,3.112,3.112h9.48A2.217,2.217,0,0,0-863.778-1006.245Z" transform="translate(901.273 1062.966)"/><path class="u" d="M-838.515-1067.151v.534h7.195a.09.09,0,0,1,.09.09.089.089,0,0,1-.09.09h-7.195v1.3a.089.089,0,0,1,.015.047.089.089,0,0,1-.015.047v3.5a.088.088,0,0,1,.015.047.088.088,0,0,1-.015.047v3.14a1.351,1.351,0,0,0,1.351,1.348h5.754v-6.412a.957.957,0,0,1,.284-.683.962.962,0,0,1,.683-.282h0l7.735.033v-1.939a3.112,3.112,0,0,0-3.112-3.113H-836.3A2.217,2.217,0,0,0-838.515-1067.151Z" transform="translate(868.906 1110.704)"/><path class="v" d="M-838.515-1067.151v.534h7.195a.09.09,0,0,1,.09.09.089.089,0,0,1-.09.09h-7.195v1.3a.089.089,0,0,1,.015.047.089.089,0,0,1-.015.047v3.5a.088.088,0,0,1,.015.047.088.088,0,0,1-.015.047v3.14a1.351,1.351,0,0,0,1.351,1.348h5.754v-6.412a.957.957,0,0,1,.284-.683.962.962,0,0,1,.683-.282h0l7.735.033v-1.939a3.112,3.112,0,0,0-3.112-3.113H-836.3A2.217,2.217,0,0,0-838.515-1067.151Z" transform="translate(868.906 1110.704)"/><path class="w" d="M-871.062-1024.906v-3.1h-7.524v3.231h7.531C-871.059-1024.816-871.062-1024.861-871.062-1024.906Z" transform="translate(901.273 1077.295)"/><path class="x" d="M-871.062-1024.906v-3.1h-7.524v3.231h7.531C-871.059-1024.816-871.062-1024.861-871.062-1024.906Z" transform="translate(901.273 1077.295)"/><path class="y" d="M-871.062-1066.527v-.624a2.394,2.394,0,0,1,1.488-2.212h-5.9a3.112,3.112,0,0,0-3.112,3.113v1.069h7.524Z" transform="translate(901.273 1110.704)"/><path class="z" d="M-871.062-1066.527v-.624a2.394,2.394,0,0,1,1.488-2.212h-5.9a3.112,3.112,0,0,0-3.112,3.113v1.069h7.524Z" transform="translate(901.273 1110.704)"/><rect class="aa" width="7.524" height="3.41" transform="translate(22.687 45.703)"/><rect class="ab" width="7.524" height="3.41" transform="translate(22.687 45.703)"/><path class="ac" d="M-798.349-1007.146v-3.117h-8.526v4.017a2.394,2.394,0,0,1-1.488,2.212h6.9A3.112,3.112,0,0,0-798.349-1007.146Z" transform="translate(844.55 1062.966)"/><path class="t" d="M-798.349-1007.146v-3.117h-8.526v4.017a2.394,2.394,0,0,1-1.488,2.212h6.9A3.112,3.112,0,0,0-798.349-1007.146Z" transform="translate(844.55 1062.966)"/><rect class="ad" width="8.526" height="3.231" transform="translate(37.675 49.292)"/><rect class="ae" width="8.526" height="3.231" transform="translate(37.675 49.292)"/><path class="af" d="M-800.392-1042.093a.779.779,0,0,0-.231.556v1.788h8.526v-2.541l-7.735-.033A.8.8,0,0,0-800.392-1042.093Z" transform="translate(838.298 1088.863)"/><path class="ag" d="M-800.392-1042.093a.779.779,0,0,0-.231.556v1.788h8.526v-2.541l-7.735-.033A.8.8,0,0,0-800.392-1042.093Z" transform="translate(838.298 1088.863)"/><path class="ah" d="M-816.484-1070.207a3.182,3.182,0,0,1,3.182,3.182v1.96h0v2.72a.09.09,0,0,1,.09.09v-4.749a3.292,3.292,0,0,0-3.292-3.292h-10.482v.09Z" transform="translate(859.593 1111.459)"/><path class="ah" d="M-879.445-1024.953h.015v-3.231h-.015a.089.089,0,0,1-.075-.043v3.317A.089.089,0,0,1-879.445-1024.953Z" transform="translate(902.028 1077.476)"/><path class="ah" d="M-879.445-1043.448h.015v-3.41h-.015a.088.088,0,0,1-.075-.043v3.5A.089.089,0,0,1-879.445-1043.448Z" transform="translate(902.028 1092.56)"/><path class="ah" d="M-879.445-1065.936h.015v-1.09a3.182,3.182,0,0,1,3.182-3.182h6.186a2.386,2.386,0,0,1,.642-.09h-6.807a3.292,3.292,0,0,0-3.292,3.292v1.112A.089.089,0,0,1-879.445-1065.936Z" transform="translate(902.028 1111.459)"/><path class="ah" d="M-876.228-1004.035h9.48v-.09h-9.5a3.182,3.182,0,0,1-3.182-3.182v-3.137h-.015a.088.088,0,0,1-.075-.043v3.16A3.292,3.292,0,0,0-876.228-1004.035Z" transform="translate(902.028 1063.147)"/><path class="ah" d="M-802.074-1010.64v3.137a3.182,3.182,0,0,1-3.182,3.182h-7.188a2.4,2.4,0,0,1-.642.09h7.81a3.292,3.292,0,0,0,3.292-3.292v-3.207A.09.09,0,0,1-802.074-1010.64Z" transform="translate(848.365 1063.343)"/><path class="ah" d="M-755.805-1028.38v3.231a.09.09,0,0,1,.09.09v-3.41A.09.09,0,0,1-755.805-1028.38Z" transform="translate(802.096 1077.673)"/><path class="ah" d="M-816.5-1069.74a3.112,3.112,0,0,1,3.112,3.112v1.939h.09v-1.96a3.182,3.182,0,0,0-3.182-3.182h-10.5v.09Z" transform="translate(859.593 1111.081)"/><rect class="ah" width="0.09" height="3.41" transform="translate(22.598 45.703)"/><path class="ah" d="M-878.963-1066.628a3.112,3.112,0,0,1,3.112-3.112h5.9a2.355,2.355,0,0,1,.266-.09h-6.186a3.182,3.182,0,0,0-3.182,3.182v1.09h.09Z" transform="translate(901.651 1111.081)"/><path class="ah" d="M-756.273-1042.527v2.541h.09v-2.54Z" transform="translate(802.474 1089.1)"/><path class="ah" d="M-875.851-1004.034a3.112,3.112,0,0,1-3.112-3.112v-3.117h-.09v3.137a3.182,3.182,0,0,0,3.182,3.182h9.5v-.09Z" transform="translate(901.651 1062.966)"/><rect class="ah" width="0.09" height="3.231" transform="translate(46.201 49.292)"/><path class="ah" d="M-799.467-1007.146a3.112,3.112,0,0,1-3.112,3.112h-6.9a2.361,2.361,0,0,1-.266.09h7.188a3.182,3.182,0,0,0,3.182-3.182v-3.137h-.09Z" transform="translate(845.668 1062.966)"/><rect class="ah" width="0.09" height="3.231" transform="translate(22.598 49.292)"/><path class="ah" d="M-839.269-1025.088v-3.139a.088.088,0,0,1-.075.043h-.1v3.1c0,.045,0,.09.007.134h.1a.09.09,0,0,1,.09.09.09.09,0,0,1-.09.09h-.072a1.533,1.533,0,0,0,1.5,1.214h5.754v-.18h-5.754A1.351,1.351,0,0,1-839.269-1025.088Z" transform="translate(869.66 1077.476)"/><path class="ah" d="M-839.269-1043.4v-3.5a.088.088,0,0,1-.075.043h-.1v3.41h.1A.089.089,0,0,1-839.269-1043.4Z" transform="translate(869.66 1092.56)"/><path class="ah" d="M-839.449-1067.151v.624a.09.09,0,0,1,.09-.09h.09v-.534a2.217,2.217,0,0,1,2.216-2.212h-.908A2.394,2.394,0,0,0-839.449-1067.151Z" transform="translate(869.66 1110.704)"/><path class="ah" d="M-839.269-1053.224v-1.3h-.09a.09.09,0,0,1-.09-.09v1.346h.1A.088.088,0,0,1-839.269-1053.224Z" transform="translate(869.66 1098.79)"/><path class="ah" d="M-829.683-1070.207v-.09a2.385,2.385,0,0,0-.642.09Z" transform="translate(862.29 1111.459)"/><path class="ah" d="M-830.8-1069.74v-.09h-.642a2.347,2.347,0,0,0-.266.09Z" transform="translate(863.408 1111.081)"/><path class="ah" d="M-810.69-1032.9v-4.018h-.015a.09.09,0,0,1-.09-.09.09.09,0,0,1,.09-.09h.015v-3.231h-.015a.09.09,0,0,1-.09-.09.09.09,0,0,1,.09-.09h.015v-1.788a.779.779,0,0,1,.231-.556.8.8,0,0,1,.559-.229l7.735.033v-.18l-7.735-.032h0a.961.961,0,0,0-.683.281.959.959,0,0,0-.284.683v6.412h.09v.179h-.09v2.8a2.217,2.217,0,0,1-2.217,2.211h.908A2.393,2.393,0,0,0-810.69-1032.9Z" transform="translate(848.365 1089.616)"/><path class="ah" d="M-813.086-977.394v.09a2.391,2.391,0,0,0,.642-.09Z" transform="translate(848.365 1036.416)"/><path class="ah" d="M-755.805-1043.083h0v0Z" transform="translate(802.096 1089.477)"/><path class="ah" d="M-756.273-1042.906h.089v-.179h-.09Z" transform="translate(802.474 1089.479)"/><path class="ah" d="M-812.178-977.861h-.908v.09h.642A2.4,2.4,0,0,0-812.178-977.861Z" transform="translate(848.365 1036.793)"/><rect class="ah" width="0.09" height="0.179" transform="translate(37.496 53.737)"/><path class="ah" d="M-831.32-1054.9a.09.09,0,0,0,.09-.09.09.09,0,0,0-.09-.09h-7.195v.179Z" transform="translate(868.906 1099.167)"/><path class="ah" d="M-839.359-1054.9h.09v-.179h-.09a.09.09,0,0,0-.09.09A.09.09,0,0,0-839.359-1054.9Z" transform="translate(869.66 1099.167)"/><rect class="ah" width="8.526" height="0.18" transform="translate(37.675 52.523)"/><path class="ah" d="M-755.805-1011.2v.18a.09.09,0,0,0,.09-.09A.09.09,0,0,0-755.805-1011.2Z" transform="translate(802.096 1063.72)"/><rect class="ah" width="0.09" height="0.18" transform="translate(46.201 52.523)"/><path class="ah" d="M-801.078-1011.2a.09.09,0,0,0-.09.09.09.09,0,0,0,.09.09h.015v-.18Z" transform="translate(838.738 1063.72)"/><path class="ah" d="M-879.6-1010.926a.089.089,0,0,0,.015.047v-.094A.088.088,0,0,0-879.6-1010.926Z" transform="translate(902.091 1063.539)"/><path class="ah" d="M-871.055-1011.2h-7.531v.18h7.557A1.5,1.5,0,0,1-871.055-1011.2Z" transform="translate(901.273 1063.72)"/><path class="ah" d="M-879.445-1011.017h.015v-.18h-.015a.089.089,0,0,0-.075.043v.093A.089.089,0,0,0-879.445-1011.017Z" transform="translate(902.028 1063.72)"/><rect class="ah" width="0.09" height="0.18" transform="translate(22.598 52.523)"/><path class="ah" d="M-839.225-1011.107a.09.09,0,0,0-.09-.09h-.1a1.476,1.476,0,0,0,.026.18h.072A.09.09,0,0,0-839.225-1011.107Z" transform="translate(869.631 1063.72)"/><path class="ah" d="M-879.6-1047.34a.088.088,0,0,0,.015.047v-.094A.089.089,0,0,0-879.6-1047.34Z" transform="translate(902.091 1092.953)"/><rect class="ah" width="7.524" height="0.18" transform="translate(22.687 45.523)"/><path class="ah" d="M-838.5-1047.34a.089.089,0,0,0-.015-.047v.094A.088.088,0,0,0-838.5-1047.34Z" transform="translate(868.906 1092.953)"/><path class="ah" d="M-879.445-1047.431h.015v-.18h-.015a.089.089,0,0,0-.075.043v.094A.089.089,0,0,0-879.445-1047.431Z" transform="translate(902.028 1093.134)"/><rect class="ah" width="0.09" height="0.18" transform="translate(22.598 45.523)"/><path class="ah" d="M-839.269-1047.474v-.094a.089.089,0,0,0-.075-.043h-.1v.18h.1A.088.088,0,0,0-839.269-1047.474Z" transform="translate(869.66 1093.134)"/><path class="ah" d="M-879.6-1028.666a.087.087,0,0,0,.015.047v-.093A.088.088,0,0,0-879.6-1028.666Z" transform="translate(902.091 1077.869)"/><rect class="ah" width="7.524" height="0.179" transform="translate(22.687 49.113)"/><path class="ah" d="M-838.5-1028.666a.088.088,0,0,0-.015-.047v.093A.087.087,0,0,0-838.5-1028.666Z" transform="translate(868.906 1077.869)"/><path class="ah" d="M-879.445-1028.757h.015v-.18h-.015a.089.089,0,0,0-.075.043v.093A.088.088,0,0,0-879.445-1028.757Z" transform="translate(902.028 1078.05)"/><rect class="ah" width="0.09" height="0.179" transform="translate(22.598 49.113)"/><path class="ah" d="M-839.269-1028.8v-.093a.089.089,0,0,0-.075-.043h-.1v.18h.1A.088.088,0,0,0-839.269-1028.8Z" transform="translate(869.66 1078.05)"/><rect class="ah" width="8.526" height="0.179" transform="translate(37.675 49.113)"/><path class="ah" d="M-755.805-1028.937v.18a.09.09,0,0,0,.09-.09A.09.09,0,0,0-755.805-1028.937Z" transform="translate(802.096 1078.05)"/><rect class="ah" width="0.09" height="0.179" transform="translate(46.201 49.113)"/><path class="ah" d="M-801.078-1028.937a.09.09,0,0,0-.09.09.09.09,0,0,0,.09.09h.015v-.18Z" transform="translate(838.738 1078.05)"/><path class="r" d="M-446.82-822.373a.351.351,0,0,0-.261.109.357.357,0,0,0-.107.259v1.534h-.736v-5.081h-1.85a.355.355,0,0,0-.261.107.355.355,0,0,0-.107.261.355.355,0,0,0,.107.261.355.355,0,0,0,.261.107h1.114v4.344h-1.131a.359.359,0,0,0-.261.105.343.343,0,0,0-.107.254.371.371,0,0,0,.107.266.349.349,0,0,0,.261.112h2.972a.355.355,0,0,0,.261-.107.355.355,0,0,0,.107-.261V-822a.354.354,0,0,0-.107-.261A.354.354,0,0,0-446.82-822.373Z" transform="translate(555.209 913.763)"/><path class="r" d="M-419-825.551h-2.63a.354.354,0,0,0-.263.107.359.359,0,0,0-.105.261.359.359,0,0,0,.105.261.353.353,0,0,0,.263.107H-419v1.793h-2.236a.705.705,0,0,0-.519.219.721.721,0,0,0-.217.526v2.542h3.349a.357.357,0,0,0,.259-.107.352.352,0,0,0,.11-.261.352.352,0,0,0-.11-.261.357.357,0,0,0-.259-.107h-2.613v-1.806H-419a.721.721,0,0,0,.526-.217.716.716,0,0,0,.219-.528v-1.793a.706.706,0,0,0-.219-.52A.721.721,0,0,0-419-825.551Z" transform="translate(532.462 913.763)"/><path class="r" d="M-389.577-825.457a.43.43,0,0,0-.264-.094.253.253,0,0,0-.231.12l-2.992,5.066a.585.585,0,0,0-.088.29.307.307,0,0,0,.125.252.426.426,0,0,0,.269.1.242.242,0,0,0,.223-.114l2.991-5.072a.577.577,0,0,0,.092-.3A.3.3,0,0,0-389.577-825.457Z" transform="translate(509.161 913.763)"/><path class="r" d="M-362.586-825.551h-2.63a.353.353,0,0,0-.263.107.359.359,0,0,0-.105.261.359.359,0,0,0,.105.261.353.353,0,0,0,.263.107h2.63v1.793h-2.236a.706.706,0,0,0-.519.219.722.722,0,0,0-.217.526v2.542h3.349a.357.357,0,0,0,.259-.107.352.352,0,0,0,.11-.261.353.353,0,0,0-.11-.261.358.358,0,0,0-.259-.107h-2.613v-1.806h2.236a.722.722,0,0,0,.526-.217.715.715,0,0,0,.219-.528v-1.793a.705.705,0,0,0-.219-.52A.722.722,0,0,0-362.586-825.551Z" transform="translate(486.892 913.763)"/><path class="r" d="M-334.279-825.6h-2.3a.682.682,0,0,0-.5.21.682.682,0,0,0-.211.5v4.406a.688.688,0,0,0,.206.5.682.682,0,0,0,.5.208h2.288a.684.684,0,0,0,.5-.208.684.684,0,0,0,.208-.5v-4.406a.686.686,0,0,0-.208-.5A.669.669,0,0,0-334.279-825.6Zm-.026,5.089h-2.244v-4.344h2.244Z" transform="translate(464.034 913.8)"/><path class="r" d="M-498.3-821.259a.1.1,0,0,0-.038.045l-.678,1.539-.681-1.539a.1.1,0,0,0-.092-.061.118.118,0,0,0-.076.028.086.086,0,0,0-.034.07.112.112,0,0,0,.008.04l.755,1.684a.115.115,0,0,0,.047.053.133.133,0,0,0,.069.018.133.133,0,0,0,.069-.018.112.112,0,0,0,.047-.053l.758-1.684a.094.094,0,0,0,.011-.042.084.084,0,0,0-.033-.067.113.113,0,0,0-.075-.028A.1.1,0,0,0-498.3-821.259Z" transform="translate(595.384 910.309)"/><path class="r" d="M-490.039-821.188a.126.126,0,0,0-.047-.054.132.132,0,0,0-.071-.02.136.136,0,0,0-.069.018.116.116,0,0,0-.047.055l-.755,1.679a.094.094,0,0,0-.011.042.085.085,0,0,0,.032.067.108.108,0,0,0,.074.028.094.094,0,0,0,.093-.063l.19-.428h1l.187.428a.093.093,0,0,0,.092.063.108.108,0,0,0,.073-.026.084.084,0,0,0,.03-.066.1.1,0,0,0-.01-.045Zm-.533,1.146.417-.948.42.948Z" transform="translate(588.23 910.299)"/><path class="r" d="M-480.154-819.373h.963a.107.107,0,0,0,.074-.024.088.088,0,0,0,.026-.069.089.089,0,0,0-.026-.069.107.107,0,0,0-.074-.024h-.852v-1.579a.113.113,0,0,0-.029-.081.1.1,0,0,0-.079-.03.105.105,0,0,0-.079.03.112.112,0,0,0-.029.081v1.663a.094.094,0,0,0,.031.073A.107.107,0,0,0-480.154-819.373Z" transform="translate(579.522 910.287)"/><path class="r" d="M-472.736-821.247a.106.106,0,0,0-.08.03.111.111,0,0,0-.029.081v1.666a.111.111,0,0,0,.029.081.105.105,0,0,0,.08.03.1.1,0,0,0,.079-.03.112.112,0,0,0,.029-.081v-1.666a.112.112,0,0,0-.029-.081A.1.1,0,0,0-472.736-821.247Z" transform="translate(573.532 910.287)"/><path class="r" d="M-468.7-821.179h-.515a.111.111,0,0,0-.08.029.1.1,0,0,0-.03.076v1.65a.1.1,0,0,0,.03.077.111.111,0,0,0,.08.029h.515a.937.937,0,0,0,.689-.243.926.926,0,0,0,.246-.689.924.924,0,0,0-.245-.688A.939.939,0,0,0-468.7-821.179Zm-.013,1.676h-.4v-1.492h.4a.649.649,0,0,1,.723.744A.65.65,0,0,1-468.716-819.5Z" transform="translate(570.693 910.232)"/><path class="r" d="M-498.552-804.7h-1.354a.106.106,0,0,0-.074.024.087.087,0,0,0-.026.069.088.088,0,0,0,.026.069.107.107,0,0,0,.074.024h.568v1.579a.109.109,0,0,0,.03.081.109.109,0,0,0,.08.03.106.106,0,0,0,.08-.03.112.112,0,0,0,.029-.081v-1.579h.568a.107.107,0,0,0,.074-.024.088.088,0,0,0,.027-.069.088.088,0,0,0-.027-.069A.106.106,0,0,0-498.552-804.7Z" transform="translate(595.473 896.921)"/><path class="r" d="M-489.219-804.768a.1.1,0,0,0-.079.03.112.112,0,0,0-.029.08v.726h-1.114v-.726a.11.11,0,0,0-.029-.08.1.1,0,0,0-.079-.03.1.1,0,0,0-.078.03.114.114,0,0,0-.027.08v1.666a.115.115,0,0,0,.027.081.1.1,0,0,0,.078.03.105.105,0,0,0,.079-.03.111.111,0,0,0,.029-.081v-.755h1.114v.755a.113.113,0,0,0,.029.081.1.1,0,0,0,.079.03.1.1,0,0,0,.078-.03.115.115,0,0,0,.028-.081v-1.666a.114.114,0,0,0-.028-.08A.1.1,0,0,0-489.219-804.768Z" transform="translate(587.919 896.976)"/><path class="r" d="M-479.127-803.449a.628.628,0,0,0-.106-.132.323.323,0,0,0-.119-.068.584.584,0,0,0,.366-.164.5.5,0,0,0,.128-.356.488.488,0,0,0-.16-.4.7.7,0,0,0-.463-.135h-.655a.111.111,0,0,0-.08.029.1.1,0,0,0-.03.077v1.658a.112.112,0,0,0,.029.081.105.105,0,0,0,.079.03.1.1,0,0,0,.077-.03.113.113,0,0,0,.029-.081v-.689h.333a.416.416,0,0,1,.2.041.425.425,0,0,1,.142.149l.354.56a.107.107,0,0,0,.095.053.107.107,0,0,0,.07-.025.08.08,0,0,0,.03-.065.113.113,0,0,0-.018-.061Zm-.372-.356h-.533v-.716h.533a.5.5,0,0,1,.325.087.326.326,0,0,1,.106.267.336.336,0,0,1-.107.272A.5.5,0,0,1-479.5-803.8Z" transform="translate(579.511 896.921)"/><path class="r" d="M-469.525-804.768a.106.106,0,0,0-.078.03.108.108,0,0,0-.03.08v1.054a.57.57,0,0,1-.132.409.518.518,0,0,1-.391.137.522.522,0,0,1-.392-.137.566.566,0,0,1-.133-.409v-1.054a.111.111,0,0,0-.029-.08.1.1,0,0,0-.077-.03.1.1,0,0,0-.079.03.111.111,0,0,0-.029.08v1.035a.766.766,0,0,0,.187.56.743.743,0,0,0,.552.19.739.739,0,0,0,.55-.192.762.762,0,0,0,.189-.558v-1.035a.111.111,0,0,0-.029-.08A.1.1,0,0,0-469.525-804.768Z" transform="translate(571.958 896.976)"/><path class="r" d="M-128.1-703.574h-.317c-.862,0-1.706.018-2.568,0a.378.378,0,0,0-.4.282c-.651,1.724-1.337,3.447-2.005,5.153-.264.668-.545,1.354-.827,2.093-.035-.141-.053-.211-.07-.3-.44-2.075-.862-4.133-1.3-6.209a1.126,1.126,0,0,0-1.055-.967c-.194-.017-.369-.035-.563-.035h-4.327a2.17,2.17,0,0,0-.334.035.663.663,0,0,0,.018.194.659.659,0,0,1,.193.018c.9.334,1.812.686,2.709,1.02a.526.526,0,0,1,.334.4c.651,2.409,1.337,4.819,2.005,7.229.193.7.4,1.407.6,2.11.967,0,1.917-.017,2.867,0a.389.389,0,0,0,.44-.281c1.5-3.483,2.99-6.947,4.485-10.43C-128.184-703.345-128.148-703.433-128.1-703.574Z" transform="translate(306.183 815.235)"/><path class="r" d="M-40.828-699.159a11.021,11.021,0,0,0-1.091-.633c-.422-.229-.861-.44-1.266-.686a.827.827,0,0,1-.528-.826c.053-.422.369-.581.721-.721a1.145,1.145,0,0,1,.352-.088,14.675,14.675,0,0,1,1.759.035,8.408,8.408,0,0,1,1.407.387c.141-.774.264-1.548.4-2.339-.141-.035-.264-.088-.387-.123-.545-.106-1.108-.228-1.653-.334h-1.337c-.229.035-.44.07-.668.106a4.976,4.976,0,0,0-2.972,1.53,2.714,2.714,0,0,0,.387,4.116,15.514,15.514,0,0,0,1.741,1.02,7.31,7.31,0,0,1,1,.616.781.781,0,0,1-.053,1.3,2.112,2.112,0,0,1-.791.334,5.578,5.578,0,0,1-2.937-.3c-.317-.106-.616-.246-.932-.37-.141.844-.281,1.653-.422,2.462.106.053.193.088.281.123a9.8,9.8,0,0,0,4.731.317,4.747,4.747,0,0,0,2.709-1.389A2.945,2.945,0,0,0-40.828-699.159Z" transform="translate(230.435 815.974)"/><path class="r" d="M1.31-703.574a1.537,1.537,0,0,0-1.53,1.038c-1.425,3.254-2.867,6.49-4.291,9.726-.035.088-.07.176-.123.281,1.038,0,2.023.018,3.025,0a.412.412,0,0,0,.193-.193c.176-.4.334-.809.475-1.231a.306.306,0,0,1,.334-.229H3.016c.106.457.211.879.281,1.319.053.264.141.369.422.352.616-.018,1.249,0,1.864,0h.6c-.809-3.693-1.618-7.352-2.427-11.028C2.928-703.539,2.119-703.539,1.31-703.574ZM.043-696.433c.528-1.354,1.055-2.691,1.565-4.028h.053c.3,1.337.58,2.674.879,4.028Z" transform="translate(195.333 815.235)"/><path class="r" d="M-68.908-703.42h-2.744c-.176,0-.193.105-.211.229-.51,2.937-1,5.892-1.513,8.829-.123.651-.229,1.3-.334,1.952H-70.7q.95-5.513,1.882-10.992C-68.872-703.42-68.89-703.438-68.908-703.42Z" transform="translate(251.128 815.117)"/><path class="r" d="M-704.494-1034.838a.52.52,0,0,0,.735,0,4.681,4.681,0,0,0,0-6.613.52.52,0,0,0-.735,0,.52.52,0,0,0,0,.735,3.641,3.641,0,0,1,0,5.143A.52.52,0,0,0-704.494-1034.838Z" transform="translate(760.772 1088.281)"/><path class="r" d="M-693.885-1040.916a7.369,7.369,0,0,0,0-10.41.52.52,0,0,0-.735,0,.52.52,0,0,0,0,.735,6.329,6.329,0,0,1,0,8.94.52.52,0,0,0,0,.735A.519.519,0,0,0-693.885-1040.916Z" transform="translate(752.796 1096.257)"/><path class="r" d="M-684.746-1061.2a.52.52,0,0,0,0,.735,9.016,9.016,0,0,1,0,12.736.52.52,0,0,0,0,.735.52.52,0,0,0,.735,0,9.978,9.978,0,0,0,2.942-7.1,9.979,9.979,0,0,0-2.942-7.1A.52.52,0,0,0-684.746-1061.2Z" transform="translate(744.82 1104.233)"/><path class="r" d="M-872.653-718.413l-.969-1.413h-1.02v5.843a.383.383,0,0,0,.115.277.377.377,0,0,0,.28.117.38.38,0,0,0,.279-.115.379.379,0,0,0,.115-.279v-4.759l.817,1.164v.2a.383.383,0,0,0,.115.277.376.376,0,0,0,.279.117.379.379,0,0,0,.277-.117.38.38,0,0,0,.118-.277v-.22l.8-1.126v4.74a.378.378,0,0,0,.117.277.378.378,0,0,0,.277.117.4.4,0,0,0,.284-.115.373.373,0,0,0,.12-.279v-5.843h-1Z" transform="translate(898.087 828.363)"/><path class="r" d="M-840.906-710.6a1.142,1.142,0,0,0-.834-.343h-1.5a.381.381,0,0,0-.28.115.379.379,0,0,0-.115.279.379.379,0,0,0,.118.277.379.379,0,0,0,.277.117h1.5a.381.381,0,0,1,.28.115.379.379,0,0,1,.115.279l.009.558a1.753,1.753,0,0,0-.367-.056h-1.546a1.151,1.151,0,0,0-.844.349,1.147,1.147,0,0,0-.35.843v.46a1.149,1.149,0,0,0,.348.845,1.151,1.151,0,0,0,.846.347h1.335l.668-.394a.376.376,0,0,0,.117.279.394.394,0,0,0,.287.115.382.382,0,0,0,.277-.115.377.377,0,0,0,.117-.279l-.1-2.952A1.188,1.188,0,0,0-840.906-710.6Zm-1.23,3.379h-1.114a.379.379,0,0,1-.277-.117.378.378,0,0,1-.118-.277v-.441a.38.38,0,0,1,.115-.279.38.38,0,0,1,.279-.115h1.555a.376.376,0,0,1,.277.113.4.4,0,0,1,.118.282l.023.333Z" transform="translate(873.693 821.185)"/><path class="r" d="M-811.355-710.979h-.578a1.221,1.221,0,0,0-.779.338l-.643.549v-.493a.393.393,0,0,0-.115-.286.377.377,0,0,0-.279-.117.372.372,0,0,0-.279.12.4.4,0,0,0-.115.284v3.741a.379.379,0,0,0,.115.279.379.379,0,0,0,.279.115.382.382,0,0,0,.277-.115.377.377,0,0,0,.117-.279v-2.2l1.122-.972a.591.591,0,0,1,.366-.174h.512a.38.38,0,0,1,.279.115.38.38,0,0,1,.115.279v.221a.38.38,0,0,0,.115.279.38.38,0,0,0,.279.115.376.376,0,0,0,.279-.117.393.393,0,0,0,.115-.286v-.211a1.14,1.14,0,0,0-.347-.835A1.14,1.14,0,0,0-811.355-710.979Z" transform="translate(849.219 821.224)"/><path class="r" d="M-779.154-707.247h-.789v-3.337a.4.4,0,0,0-.115-.284.373.373,0,0,0-.279-.12h-1.2a.372.372,0,0,0-.279.12.4.4,0,0,0-.115.284.382.382,0,0,0,.115.277.376.376,0,0,0,.279.117h.8v2.943h-.807a.375.375,0,0,0-.279.117.382.382,0,0,0-.115.277.379.379,0,0,0,.115.279.379.379,0,0,0,.279.115h2.4a.384.384,0,0,0,.277-.115.377.377,0,0,0,.117-.279.373.373,0,0,0-.12-.279A.4.4,0,0,0-779.154-707.247Z" transform="translate(823.208 821.224)"/><path class="r" d="M-777.024-721.632h-.413a.379.379,0,0,0-.279.115.38.38,0,0,0-.115.279l-.009.347a.37.37,0,0,0,.11.272.374.374,0,0,0,.284.122h.422a.373.373,0,0,0,.279-.12.4.4,0,0,0,.115-.284v-.338a.38.38,0,0,0-.115-.279A.38.38,0,0,0-777.024-721.632Z" transform="translate(819.896 829.822)"/><path class="r" d="M-750.312-710.548a1.493,1.493,0,0,0-1.03-.441h-.925a1.492,1.492,0,0,0-1.044.458,1.341,1.341,0,0,0-.481.974v1.666a1.328,1.328,0,0,0,.493.974,1.508,1.508,0,0,0,1.033.458h.925a1.534,1.534,0,0,0,1.03-.451,1.313,1.313,0,0,0,.5-.981v-1.666A1.321,1.321,0,0,0-750.312-710.548Zm-.288,2.628a.376.376,0,0,1-.146.315l-.239.211a.539.539,0,0,1-.366.146h-.915a.411.411,0,0,1-.277-.084l-.3-.254a.419.419,0,0,1-.155-.343v-1.6a.4.4,0,0,1,.145-.319l.268-.23a.609.609,0,0,1,.413-.127h.817a.5.5,0,0,1,.329.117l.277.221a.412.412,0,0,1,.146.347Z" transform="translate(800.47 821.225)"/><path class="r" d="M-690.545-719.826h-2.8v5.843a.376.376,0,0,0,.117.279.393.393,0,0,0,.286.115.379.379,0,0,0,.279-.115.378.378,0,0,0,.115-.279v-1.99h2a1.14,1.14,0,0,0,.835-.347,1.14,1.14,0,0,0,.347-.835v-1.479a1.151,1.151,0,0,0-.35-.84A1.133,1.133,0,0,0-690.545-719.826Zm.394,2.671a.376.376,0,0,1-.117.279.382.382,0,0,1-.277.115h-2v-2.267h2a.382.382,0,0,1,.277.115.377.377,0,0,1,.117.279Z" transform="translate(751.641 828.363)"/><path class="r" d="M-659.827-710.592a1.142,1.142,0,0,0-.789-.347h-1.107a1.113,1.113,0,0,0-.718.263l-.329.258a1.088,1.088,0,0,0-.3.408,1.1,1.1,0,0,0-.12.418v1.807a1.023,1.023,0,0,0,.11.432,1.008,1.008,0,0,0,.275.366l.352.31a1.132,1.132,0,0,0,.336.181,1.217,1.217,0,0,0,.434.087h2.079a.382.382,0,0,0,.275-.117.376.376,0,0,0,.12-.277.377.377,0,0,0-.117-.279.384.384,0,0,0-.277-.115h-2.028a.592.592,0,0,1-.357-.146l-.23-.192a.426.426,0,0,1-.174-.343v-.23h2.788a.38.38,0,0,0,.277-.117.378.378,0,0,0,.117-.277v-.953a1.089,1.089,0,0,0-.319-.854Zm-.165,1.685h-2.394v-.61a.366.366,0,0,1,.155-.305l.23-.192a.506.506,0,0,1,.333-.127h.99a.533.533,0,0,1,.319.146l.23.2a.423.423,0,0,1,.136.338Z" transform="translate(727.287 821.185)"/><path class="r" d="M-630.154-710.979h-.578a1.221,1.221,0,0,0-.779.338l-.643.549v-.493a.393.393,0,0,0-.115-.286.376.376,0,0,0-.279-.117.373.373,0,0,0-.279.12.4.4,0,0,0-.115.284v3.741a.38.38,0,0,0,.115.279.38.38,0,0,0,.279.115.382.382,0,0,0,.277-.115.376.376,0,0,0,.118-.279v-2.2l1.122-.972a.591.591,0,0,1,.366-.174h.512a.38.38,0,0,1,.279.115.379.379,0,0,1,.115.279v.221a.38.38,0,0,0,.115.279.38.38,0,0,0,.28.115.377.377,0,0,0,.279-.117.393.393,0,0,0,.115-.286v-.211a1.14,1.14,0,0,0-.347-.835A1.14,1.14,0,0,0-630.154-710.979Z" transform="translate(702.852 821.224)"/><path class="r" d="M-599.427-710.592a1.142,1.142,0,0,0-.788-.347h-1.108a1.113,1.113,0,0,0-.718.263l-.329.258a1.085,1.085,0,0,0-.3.408,1.1,1.1,0,0,0-.12.418v1.807a1.022,1.022,0,0,0,.111.432,1,1,0,0,0,.274.366l.352.31a1.132,1.132,0,0,0,.336.181,1.218,1.218,0,0,0,.434.087h2.079a.382.382,0,0,0,.275-.117.375.375,0,0,0,.12-.277.377.377,0,0,0-.117-.279.384.384,0,0,0-.277-.115h-2.028a.592.592,0,0,1-.357-.146l-.23-.192a.426.426,0,0,1-.174-.343v-.23h2.788a.38.38,0,0,0,.277-.117.379.379,0,0,0,.117-.277v-.953a1.089,1.089,0,0,0-.319-.854Zm-.164,1.685h-2.394v-.61a.366.366,0,0,1,.155-.305l.23-.192a.505.505,0,0,1,.333-.127h.99a.533.533,0,0,1,.319.146l.23.2a.423.423,0,0,1,.136.338Z" transform="translate(678.498 821.185)"/><path class="r" d="M-568.956-710.988h-3a.375.375,0,0,0-.277.12.38.38,0,0,0-.118.274.394.394,0,0,0,.115.286.377.377,0,0,0,.28.117h2.367l-2.743,2.633a.568.568,0,0,0-.211.375v.338a.376.376,0,0,0,.117.279.394.394,0,0,0,.286.115h3.173a.38.38,0,0,0,.279-.115.379.379,0,0,0,.115-.279.381.381,0,0,0-.115-.279.381.381,0,0,0-.279-.115H-571.5l2.8-2.708a.427.427,0,0,0,.136-.319v-.319a.4.4,0,0,0-.115-.284A.373.373,0,0,0-568.956-710.988Z" transform="translate(654.064 821.224)"/><path class="ai" d="M-53.039-1143.039h9.385a4.7,4.7,0,0,0,4.7-4.7v-.294a4.617,4.617,0,0,1-4.617,4.616h-9.56a4.617,4.617,0,0,1-4.617-4.616v.295A4.7,4.7,0,0,0-53.039-1143.039Z" transform="translate(238.231 1174.255)"/></g></svg>