<svg xmlns="http://www.w3.org/2000/svg" width="41" height="41" viewBox="0 0 41 41"><defs><style>.a,.b,.c{fill:#fa0;}.a{opacity:0.2;}.c{opacity:0.35;}</style></defs><g transform="translate(-400 -1277)"><rect class="a" width="41" height="41" rx="9" transform="translate(400 1277)"/><g transform="translate(-768 95.31)"><path class="b" d="M1187.959,1206.048"/><path class="b" d="M1177.873,1208.311a.863.863,0,0,1-.534-.184.872.872,0,0,1-.156-1.225l3-3.871a6.011,6.011,0,0,1,8.445-1.064,4.277,4.277,0,0,0,5.807-.534l3.793-4.266a.873.873,0,1,1,1.3,1.16l-3.793,4.267a6.023,6.023,0,0,1-8.185.751,4.264,4.264,0,0,0-5.991.756l-3,3.871A.87.87,0,0,1,1177.873,1208.311Z"/><path class="b" d="M1177.873,1208.311a.863.863,0,0,1-.534-.184.872.872,0,0,1-.156-1.225l3-3.871a6.011,6.011,0,0,1,8.445-1.064,4.277,4.277,0,0,0,5.807-.534l3.793-4.266a.873.873,0,1,1,1.3,1.16l-3.793,4.267a6.023,6.023,0,0,1-8.185.751,4.264,4.264,0,0,0-5.991.756l-3,3.871A.87.87,0,0,1,1177.873,1208.311Z"/><path class="b" d="M1200.062,1200.866a.874.874,0,0,1-.856-.7l-.513-2.571-2.571.513a.873.873,0,1,1-.343-1.713l3.427-.685a.869.869,0,0,1,1.029.685l.685,3.428a.873.873,0,0,1-.858,1.045Z"/><path class="c" d="M1200.973,1204.049l-.848-3.391a.871.871,0,0,0-1.059-.635l-3.391.848a.874.874,0,0,0,.424,1.7l1.637-.41a2.851,2.851,0,0,1-2.044,1.172c-.933-.088-1.67-1.37-2.125-2.43-.433-1.01-1.026-1.566-1.762-1.65-1.357-.14-2.462,1.341-3.736,3.075-.89,1.214-2.109,2.874-2.9,2.935-.069,0-.242.018-.526-.265a4.067,4.067,0,0,0-3.591-1.413c-2.4.389-3.863,3.266-3.924,3.388a.874.874,0,0,0,1.563.781c.011-.022,1.139-2.2,2.641-2.444a2.415,2.415,0,0,1,2.076.924,2.355,2.355,0,0,0,1.893.771c1.592-.121,2.906-1.911,4.176-3.643.638-.869,1.7-2.323,2.1-2.38,0,0,.162.088.385.609.934,2.179,2.136,3.351,3.574,3.483a4.5,4.5,0,0,0,3.465-1.71l.279,1.114a.873.873,0,1,0,1.694-.424Z"/></g></g></svg>