<svg xmlns="http://www.w3.org/2000/svg" width="89" height="89" viewBox="0 0 89 89"><defs><style>.a,.b{fill:#fff;}.a{opacity:0.2;}</style></defs><g transform="translate(-968 -1871.088)"><rect class="a" width="89" height="89" rx="20" transform="translate(968 1871.088)"/><g transform="translate(989.729 1892.729)"><path class="b" d="M1240.061,1109.008a8.92,8.92,0,0,1-5.259-1.608,10.915,10.915,0,0,1-3.588-4.331,13.893,13.893,0,0,1-1.3-6.062,14.051,14.051,0,0,1,1.3-6.125,10.926,10.926,0,0,1,3.588-4.33,9.45,9.45,0,0,1,10.548,0,10.8,10.8,0,0,1,3.526,4.33,14.355,14.355,0,0,1,1.269,6.125,13.366,13.366,0,0,1-1.362,6.063,11.531,11.531,0,0,1-3.618,4.331A8.586,8.586,0,0,1,1240.061,1109.008Zm0-5.506a3.158,3.158,0,0,0,2.876-1.855,9.543,9.543,0,0,0,1.02-4.64,9.789,9.789,0,0,0-.989-4.64,3.139,3.139,0,0,0-2.907-1.854,3.222,3.222,0,0,0-2.908,1.854,9.3,9.3,0,0,0-1.052,4.64,9.545,9.545,0,0,0,1.021,4.64A3.2,3.2,0,0,0,1240.061,1103.5Zm.742,25.425a3.561,3.561,0,0,1-2.1-.836,2.613,2.613,0,0,1-1.114-2.2,3.788,3.788,0,0,1,.618-1.856l24.622-37.179a3.164,3.164,0,0,1,2.535-1.484,3.588,3.588,0,0,1,2.135.8,2.62,2.62,0,0,1,1.083,2.227,3.79,3.79,0,0,1-.619,1.857l-24.62,37.177A3.169,3.169,0,0,1,1240.8,1128.927Zm25.8.495a8.714,8.714,0,0,1-5.135-1.609,11.385,11.385,0,0,1-3.649-4.329,13.358,13.358,0,0,1-1.361-6.063,14.047,14.047,0,0,1,1.3-6.124,10.912,10.912,0,0,1,3.588-4.329,9.448,9.448,0,0,1,10.548,0,10.776,10.776,0,0,1,3.525,4.329,14.34,14.34,0,0,1,1.269,6.124,13.37,13.37,0,0,1-1.361,6.063,11.515,11.515,0,0,1-3.619,4.329A8.579,8.579,0,0,1,1266.6,1129.422Zm0-5.505a3.159,3.159,0,0,0,2.876-1.856,9.547,9.547,0,0,0,1.021-4.64,9.778,9.778,0,0,0-.99-4.64,3.138,3.138,0,0,0-2.907-1.856,3.221,3.221,0,0,0-2.907,1.856,9.29,9.29,0,0,0-1.052,4.64,9.534,9.534,0,0,0,1.021,4.64A3.2,3.2,0,0,0,1266.6,1123.917Z" transform="translate(-1229.915 -1084.944)"/></g></g></svg>