<svg xmlns="http://www.w3.org/2000/svg" xmlns:xlink="http://www.w3.org/1999/xlink" width="306" height="126" viewBox="0 0 306 126">
    <defs>
        <style>
            .a{fill:#006fff;}.b,.c,.d,.e,.f{fill:#fff;}.b{font-size:15px;}.b,.e{font-family:Nunito, sans-serif !important; font-weight:700;}.c{font-size:10px;font-family:Nunito, sans-serif !important}.e{font-size:9px;}.g{fill:url(#c);}.h,.i{stroke:none;}.i{fill:#84b9ff;}.j{filter:url(#a);}
        </style>

        <filter id="a" x="0" y="0" width="306" height="126" filterUnits="userSpaceOnUse">
            <feOffset dy="5" input="SourceAlpha"/>
            <feGaussianBlur stdDeviation="5" result="b"/>
            <feFlood flood-opacity="0.149"/>
            <feComposite operator="in" in2="b"/>
            <feComposite in="SourceGraphic"/>
        </filter>

        <linearGradient id="c" x1="0.5" y1="1" x2="0.5" gradientUnits="objectBoundingBox">
            <stop offset="0" stop-color="#ff6567"/><stop offset="1" stop-color="#7063f1"/>
        </linearGradient>
    </defs>
    <g transform="translate(15 10)">
        <g class="j" transform="matrix(1, 0, 0, 1, -15, -10)">
            <rect class="a" width="276" height="96" rx="20" transform="translate(15 10)"/>
        </g>

        <text class="b" transform="translate(85 37)"><tspan x="0" y="0">Distribuidora de bebidas</tspan></text>
        <text class="c" transform="translate(85 58)"><tspan x="0" y="0">Bebidas</tspan></text>

        <g class="d" transform="translate(16 23)">
            <path class="h" d="M 26.5 50.5 L 25.5 50.5 C 22.12479972839355 50.5 18.850830078125 49.83906936645508 15.76902961730957 48.53557968139648 C 12.79209995269775 47.27645111083984 10.11845016479492 45.47378921508789 7.822329998016357 43.17766952514648 C 5.526209831237793 40.88154983520508 3.723550081253052 38.20790100097656 2.464420080184937 35.2309684753418 C 1.160930037498474 32.149169921875 0.5 28.87520027160645 0.5 25.5 C 0.5 22.12479972839355 1.160930037498474 18.850830078125 2.464420080184937 15.76902961730957 C 3.723550081253052 12.79209995269775 5.526209831237793 10.11845016479492 7.822329998016357 7.822329998016357 C 10.11845016479492 5.526209831237793 12.79209995269775 3.723550081253052 15.76902961730957 2.464420080184937 C 18.850830078125 1.160930037498474 22.12479972839355 0.5 25.5 0.5 L 26.5 0.5 C 29.87520027160645 0.5 33.149169921875 1.160930037498474 36.2309684753418 2.464420080184937 C 39.20790100097656 3.723550081253052 41.88154983520508 5.526209831237793 44.17766952514648 7.822329998016357 C 46.47378921508789 10.11845016479492 48.27645111083984 12.79209995269775 49.53557968139648 15.76902961730957 C 50.83906936645508 18.850830078125 51.5 22.12479972839355 51.5 25.5 C 51.5 28.87520027160645 50.83906936645508 32.149169921875 49.53557968139648 35.2309684753418 C 48.27645111083984 38.20790100097656 46.47378921508789 40.88154983520508 44.17766952514648 43.17766952514648 C 41.88154983520508 45.47378921508789 39.20790100097656 47.27645111083984 36.2309684753418 48.53557968139648 C 33.149169921875 49.83906936645508 29.87520027160645 50.5 26.5 50.5 Z"/>
            <path class="i" d="M 25.5 1 C 22.19207954406738 1 18.98363876342773 1.647640228271484 15.96379852294922 2.924919128417969 C 13.04647827148438 4.158840179443359 10.42623901367188 5.925521850585938 8.175880432128906 8.175880432128906 C 5.925521850585938 10.42623901367188 4.158840179443359 13.04647827148438 2.924919128417969 15.96379852294922 C 1.647640228271484 18.98363876342773 1 22.19207954406738 1 25.5 C 1 28.80792045593262 1.647640228271484 32.016357421875 2.924919128417969 35.03620147705078 C 4.158840179443359 37.95352172851563 5.925521850585938 40.57376098632813 8.175880432128906 42.82411956787109 C 10.42623901367188 45.07447814941406 13.04647827148438 46.84115982055664 15.96379852294922 48.07508087158203 C 18.98363876342773 49.35235977172852 22.19207954406738 50 25.5 50 L 26.5 50 C 29.80792045593262 50 33.016357421875 49.35235977172852 36.03620147705078 48.07508087158203 C 38.95352172851563 46.84115982055664 41.57376098632813 45.07447814941406 43.82411956787109 42.82411956787109 C 46.07447814941406 40.57376098632813 47.84115982055664 37.95352172851563 49.07508087158203 35.03620147705078 C 50.35235977172852 32.016357421875 51 28.80792045593262 51 25.5 C 51 22.19207954406738 50.35235977172852 18.98363876342773 49.07508087158203 15.96379852294922 C 47.84115982055664 13.04647827148438 46.07447814941406 10.42623901367188 43.82411956787109 8.175880432128906 C 41.57376098632813 5.925521850585938 38.95352172851563 4.158840179443359 36.03620147705078 2.924919128417969 C 33.016357421875 1.647640228271484 29.80792045593262 1 26.5 1 L 25.5 1 M 25.5 0 L 26.5 0 C 40.58325958251953 0 52 11.41674041748047 52 25.5 C 52 39.58325958251953 40.58325958251953 51 26.5 51 L 25.5 51 C 11.41674041748047 51 0 39.58325958251953 0 25.5 C 0 11.41674041748047 11.41674041748047 0 25.5 0 Z"/>
        </g>

        <g transform="translate(85.581 68)">
            <text class="e" transform="translate(12.419 9)"><tspan x="0" y="0">4.5</tspan></text>
            <path class="f" d="M5.245.283,4.2,2.392l-2.327.339A.51.51,0,0,0,1.6,3.6L3.279,5.241l-.4,2.318A.509.509,0,0,0,3.62,8.1L5.7,7,7.784,8.1a.51.51,0,0,0,.739-.537l-.4-2.318L9.808,3.6a.51.51,0,0,0-.282-.87L7.2,2.392,6.159.283A.51.51,0,0,0,5.245.283Z" transform="translate(-1.441 1.715)"/>
        </g>

        <g transform="translate(-466.12 -27.73)">
            <g transform="translate(498.938 77.856)">
                <path class="g" d="M501.57,93.518q.453-.059.5.308c.025.184-.1.343-.362.475a.951.951,0,0,0-.6,1.024.987.987,0,0,0,.529.783,1.583,1.583,0,0,0,.945.129,3.08,3.08,0,0,0,1.847-.9,1.276,1.276,0,0,0,.383-1.106,1.574,1.574,0,0,0-.243-.675,7.772,7.772,0,0,0-.591-.739q-.6-.688-1.027-1.26a2.772,2.772,0,0,1-.565-1.3,3.95,3.95,0,0,1,1.161-3.135,7.4,7.4,0,0,1,1.655-1.395,3.969,3.969,0,0,1,1.534-.569,1.361,1.361,0,0,1,.871.149,1,1,0,0,1,.53.789,2.793,2.793,0,0,1-.664,1.928,7.149,7.149,0,0,1-1.794,1.753,2.188,2.188,0,0,1-.824.4.469.469,0,0,1-.365-.114.35.35,0,0,1-.132-.23c-.028-.207.135-.4.485-.576a5.82,5.82,0,0,0,1.658-1.249q.893-.971.81-1.6a.472.472,0,0,0-.253-.367.62.62,0,0,0-.393-.067,3.406,3.406,0,0,0-1.389.634,5.028,5.028,0,0,0-1.638,1.775,2.747,2.747,0,0,0-.377,1.661,2.514,2.514,0,0,0,.463,1.113q.322.443.8.992.462.528.795.985a2.361,2.361,0,0,1,.454,1.056,2.156,2.156,0,0,1-.9,1.9,3.9,3.9,0,0,1-2.093.924,2.588,2.588,0,0,1-1.961-.413,1.583,1.583,0,0,1-.664-1.088,1.7,1.7,0,0,1,.324-1.286,1.888,1.888,0,0,1,.634-.543A1.359,1.359,0,0,1,501.57,93.518Z" transform="translate(-500.149 -84.826)"/>
                <path class="g" d="M512.238,92.383c.459-.06.723.189.8.746a5.937,5.937,0,0,1-.656,2.957q-.879,2-1.924,2.136a.751.751,0,0,1-.771-.357,1.164,1.164,0,0,1-.189-.529,4.7,4.7,0,0,1,.427-2.425A5.683,5.683,0,0,1,511.3,92.89,1.809,1.809,0,0,1,512.238,92.383Zm-.451,3.279c-.153-.093-.235-.17-.242-.231a1.1,1.1,0,0,1,.218-.4,2.409,2.409,0,0,0,.573-1.464.245.245,0,0,0-.061-.129.222.222,0,0,0-.225-.1q-.268.034-.718.622a5.318,5.318,0,0,0-.839,1.517,3.182,3.182,0,0,0-.231,1.4.427.427,0,0,0,.108.24.332.332,0,0,0,.3.116c.267-.035.529-.275.782-.718a2.539,2.539,0,0,0,.258-.563A1.435,1.435,0,0,0,511.786,95.662Z" transform="translate(-502.884 -86.948)"/>
                <path class="g" d="M518.007,90.095q.6-1.86,1.179-3.255a16.515,16.515,0,0,1,.768-1.713c.159-.264.321-.408.488-.43a.343.343,0,0,1,.258.076.348.348,0,0,1,.131.221,1.536,1.536,0,0,1-.2.682q-.954,2.118-1.7,4.27a9.151,9.151,0,0,0-.706,3.679,1.361,1.361,0,0,0,.285.728,1.685,1.685,0,0,0,.338.23.212.212,0,0,1,.071.16.443.443,0,0,1-.088.322.391.391,0,0,1-.271.176.657.657,0,0,1-.458-.177,1.375,1.375,0,0,1-.5-.716c-.034-.121-.083-.347-.149-.68q-.669,1.7-1.465,1.8a.835.835,0,0,1-.805-.421,1.628,1.628,0,0,1-.287-.754,4.528,4.528,0,0,1,.6-2.755,2.624,2.624,0,0,1,1.862-1.575A1.144,1.144,0,0,1,518.007,90.095Zm-.194.724a.745.745,0,0,0-.413-.1,1.73,1.73,0,0,0-1.217,1.039,3.7,3.7,0,0,0-.541,2.276.544.544,0,0,0,.081.228.323.323,0,0,0,.328.169c.2-.025.408-.247.636-.663a10.038,10.038,0,0,0,.8-1.921q.122-.373.233-.745l.054-.169Z" transform="translate(-504.467 -84.694)"/>
                <path class="g" d="M524.01,94.917a6.4,6.4,0,0,1-.437.892,1.439,1.439,0,0,1-.959.793.788.788,0,0,1-.76-.335,1.288,1.288,0,0,1-.245-.632,4.533,4.533,0,0,1,.314-2.127,5.461,5.461,0,0,1,1.32-2.124,2.027,2.027,0,0,1,1.106-.59.838.838,0,0,1,.615.139.6.6,0,0,1,.258.41,1.36,1.36,0,0,1-.075.529.555.555,0,0,1,.167.294,1.4,1.4,0,0,1-.159.608,6.482,6.482,0,0,0-.341,1.153,3.657,3.657,0,0,0-.107,1.188.828.828,0,0,0,.285.55,1.567,1.567,0,0,0,.37.146.363.363,0,0,1,.254.325.326.326,0,0,1-.083.275.441.441,0,0,1-.279.148.988.988,0,0,1-.832-.3,1.259,1.259,0,0,1-.375-.784C524.034,95.362,524.021,95.177,524.01,94.917Zm.681-2.893a.841.841,0,0,0-.254-.242.418.418,0,0,0-.263-.054q-.636.084-1.234,1.3a4.045,4.045,0,0,0-.543,2.192.543.543,0,0,0,.122.308.278.278,0,0,0,.253.078q.4-.053.824-.979a14.494,14.494,0,0,0,.562-1.48,7.708,7.708,0,0,1,.322-.843A1.286,1.286,0,0,1,524.691,92.024Z" transform="translate(-506.44 -86.481)"/>
            </g>

            <g transform="translate(499.889 64.885)">
                <path class="g" d="M503.049,78.743a16.361,16.361,0,0,1,1.663-1.966,8.023,8.023,0,0,1,.747-.67.87.87,0,0,1,.259-.162c.085-.011.176.04.276.15a.322.322,0,0,1,.1.175q.019.15-.263.452-.764.791-.719,1.135c.017.128.1.182.243.163a2.9,2.9,0,0,0,1.159-.759.49.49,0,0,1,.238-.134.192.192,0,0,1,.142.049.227.227,0,0,1,.1.149c.02.167-.179.454-.6.863a2.387,2.387,0,0,1-1.325.738.908.908,0,0,1-.512-.078.45.45,0,0,1-.247-.393.9.9,0,0,1,.112-.5,8.32,8.32,0,0,0-1.344,1.813,11.755,11.755,0,0,0-.8,1.868c-.095.275-.237.424-.427.449-.207.027-.322-.057-.348-.252a6.622,6.622,0,0,1,.284-1.587,11.7,11.7,0,0,1,1.128-3.055c.268-.462.512-.707.728-.735a.333.333,0,0,1,.21.041.256.256,0,0,1,.136.194.68.68,0,0,1-.121.374c-.018.03-.141.237-.369.619A4.429,4.429,0,0,0,503.049,78.743Z" transform="translate(-501.495 -69.155)"/>
                <path class="g" d="M509.739,79.111l.02.15a.543.543,0,0,0,.134.306.775.775,0,0,0,.728.219q1.047-.139,2.206-1.927c.136-.206.261-.315.373-.329a.218.218,0,0,1,.18.069.224.224,0,0,1,.066.119q.045.325-.657,1.21a6.062,6.062,0,0,1-1.207,1.174,2.829,2.829,0,0,1-1.27.56,1.217,1.217,0,0,1-1.046-.3,1.292,1.292,0,0,1-.352-.788,4.019,4.019,0,0,1,.964-2.947,2.97,2.97,0,0,1,1.738-1.355.652.652,0,0,1,.411.081.572.572,0,0,1,.278.432,2.188,2.188,0,0,1-.266,1.142A4.405,4.405,0,0,1,509.739,79.111Zm.1-.677a3.431,3.431,0,0,0,.861-.574,3.772,3.772,0,0,0,.793-1.145.706.706,0,0,0,.077-.377.145.145,0,0,0-.18-.146,1.182,1.182,0,0,0-.576.409A4.291,4.291,0,0,0,509.837,78.435Z" transform="translate(-503.665 -68.955)"/>
                <path class="g" d="M519.046,73.631a1.353,1.353,0,0,1,.8.08.646.646,0,0,1,.333.528,1.508,1.508,0,0,1-.242,1,2.443,2.443,0,0,1-.961.843,1.951,1.951,0,0,1-.626.228q-.351.047-.391-.264a.347.347,0,0,1,.158-.344c.033-.021.216-.095.55-.218a1.268,1.268,0,0,0,.531-.367.559.559,0,0,0,.172-.449.322.322,0,0,0-.136-.247.463.463,0,0,0-.312-.044,1.979,1.979,0,0,0-1.019.535,1.275,1.275,0,0,0-.538,1.144,2.094,2.094,0,0,0,.588,1.03,2.291,2.291,0,0,1,.653,1.14,1.314,1.314,0,0,1-.5,1.241,1.659,1.659,0,0,1-.878.38,1.426,1.426,0,0,1-1.3-.415,1.627,1.627,0,0,1-.42-.933,1.776,1.776,0,0,1,.188-1.14.6.6,0,0,1,.414-.353c.139-.018.217.028.231.139a.484.484,0,0,1-.048.211,1.769,1.769,0,0,0-.081.871.933.933,0,0,0,.384.656.837.837,0,0,0,.627.173.639.639,0,0,0,.482-.286.719.719,0,0,0,.088-.488,1.751,1.751,0,0,0-.522-.858,2.5,2.5,0,0,1-.737-1.325,1.837,1.837,0,0,1,.716-1.6A3.245,3.245,0,0,1,519.046,73.631Z" transform="translate(-505.603 -68.469)"/>
                <path class="g" d="M523.842,73.291a8.584,8.584,0,0,1,1.1-1.243,2.546,2.546,0,0,1,1.064-.7.423.423,0,0,1,.292.08.406.406,0,0,1,.191.29,1.471,1.471,0,0,1-.266.752,10.013,10.013,0,0,0-.833,1.812,2.656,2.656,0,0,0-.2.93.2.2,0,0,0,.247.2q.453-.061,1.311-1.81c.117-.236.233-.362.35-.378s.184.043.2.179a3.1,3.1,0,0,1-.471,1.331,4.907,4.907,0,0,1-.992,1.383,1.415,1.415,0,0,1-.73.394.546.546,0,0,1-.561-.24.908.908,0,0,1-.156-.414,3.627,3.627,0,0,1,.3-1.769q.094-.243.582-1.388a6.917,6.917,0,0,0-2.394,4.107c-.044.228-.141.35-.292.37a.339.339,0,0,1-.273-.073.431.431,0,0,1-.139-.272,6.9,6.9,0,0,1,.328-1.636q.679-2.526,1.323-4.3.639-1.788,1.456-3.726a3.472,3.472,0,0,1,.317-.639.418.418,0,0,1,.282-.19.312.312,0,0,1,.28.124.459.459,0,0,1,.119.257,1.27,1.27,0,0,1-.185.663q-.721,1.518-1.393,3.31A19.871,19.871,0,0,0,523.842,73.291Z" transform="translate(-507.563 -66.334)"/>
            </g>

            <g transform="translate(496.023 61.397)">
                <path class="g" d="M502.477,63.96a18.864,18.864,0,0,0-1.3,2.432q-.8,1.707-1.125,2.623a21.321,21.321,0,0,1,3.395-.957,2.068,2.068,0,0,1,.718,0,.4.4,0,0,1,.335.391q.094.717-.716.824l-.184.024c-.232.023-.4.042-.511.057a16.381,16.381,0,0,0-3.707,1.257,35.069,35.069,0,0,0-2.055,7.337q-.091.635-.462.684a.641.641,0,0,1-.592-.287.973.973,0,0,1-.244-.509,11.111,11.111,0,0,1,.367-2.121,37.337,37.337,0,0,1,2.2-6.532q.966-2.211,2.145-4.7a.411.411,0,0,1-.453-.387q-.075-.568.985-1.014a26.542,26.542,0,0,1,2.887-1.053,17.2,17.2,0,0,1,2.464-.6q1.354-.18,1.444.5a.673.673,0,0,1-.237.608.479.479,0,0,1-.276.13,3.334,3.334,0,0,1-.4.018,4.884,4.884,0,0,0-.69.032,15.23,15.23,0,0,0-2.073.521A12.907,12.907,0,0,0,502.477,63.96Z" transform="translate(-496.023 -61.397)"/>
            </g>
        </g>
    </g>
</svg>