<svg xmlns="http://www.w3.org/2000/svg" width="41" height="41" viewBox="0 0 41 41"><defs><style>.a,.b{fill:#2bcb2b;}.a{opacity:0.2;}</style></defs><g transform="translate(-400 -1277)"><rect class="a" width="41" height="41" rx="9" transform="translate(400 1277)"/><g transform="translate(-1191.712 182.748)"><path class="b" d="M1611.846,1122.63a9.555,9.555,0,0,1-2.831-.393,6.78,6.78,0,0,1-2.4-1.382,1.793,1.793,0,0,1-.448-.562,1.376,1.376,0,0,1-.157-.629,1.291,1.291,0,0,1,.369-.912,1.234,1.234,0,0,1,.932-.393,1.177,1.177,0,0,1,.764.272,7.077,7.077,0,0,0,1.7,1.054,5.288,5.288,0,0,0,2.077.361,4.321,4.321,0,0,0,1.528-.26,3,3,0,0,0,1.124-.695,1.4,1.4,0,0,0,.429-1,1.708,1.708,0,0,0-.4-1.146,3.1,3.1,0,0,0-1.236-.8,9.608,9.608,0,0,0-2.112-.508,9.33,9.33,0,0,1-2.137-.55,4.852,4.852,0,0,1-1.537-.944,3.679,3.679,0,0,1-.933-1.346,4.564,4.564,0,0,1-.315-1.741,4.128,4.128,0,0,1,.751-2.495,4.742,4.742,0,0,1,2.034-1.575,7.266,7.266,0,0,1,2.833-.537,8.1,8.1,0,0,1,2.706.437,6.349,6.349,0,0,1,2.033,1.112,1.507,1.507,0,0,1,.654,1.193,1.281,1.281,0,0,1-.382.9,1.192,1.192,0,0,1-.9.4.99.99,0,0,1-.6-.2,4.171,4.171,0,0,0-.968-.6,8.846,8.846,0,0,0-1.279-.47,4.865,4.865,0,0,0-2.888.056,2.244,2.244,0,0,0-1,.672,1.554,1.554,0,0,0-.335.991,1.587,1.587,0,0,0,.393,1.111,2.616,2.616,0,0,0,1.133.7,12.892,12.892,0,0,0,1.776.461,17.8,17.8,0,0,1,2.371.586,5.508,5.508,0,0,1,1.7.865,3.248,3.248,0,0,1,1.011,1.326,4.993,4.993,0,0,1,.337,1.944,4.023,4.023,0,0,1-.809,2.517,5.188,5.188,0,0,1-2.122,1.618A7.2,7.2,0,0,1,1611.846,1122.63Zm1.618,1.211a1.344,1.344,0,0,1-1.369,1.373,1.279,1.279,0,0,1-.946-.393,1.351,1.351,0,0,1-.38-.98v-18.065a1.344,1.344,0,0,1,1.369-1.373,1.261,1.261,0,0,1,.955.393,1.37,1.37,0,0,1,.371.979Z" transform="translate(0 0)"/></g></g></svg>