<svg xmlns="http://www.w3.org/2000/svg" width="41" height="41" viewBox="0 0 41 41"><defs><style>.a,.b{fill:#fff;}.a{opacity:0.2;}</style></defs><g transform="translate(-968 -1957)"><rect class="a" width="41" height="41" rx="9" transform="translate(968 1957)"/><path class="b" d="M10.189.652,7.8,5.5l-5.352.78a1.173,1.173,0,0,0-.648,2l3.872,3.773-.916,5.33a1.172,1.172,0,0,0,1.7,1.234L11.24,16.1l4.788,2.517a1.172,1.172,0,0,0,1.7-1.234l-.916-5.33,3.872-3.773a1.173,1.173,0,0,0-.648-2L14.683,5.5,12.291.652a1.173,1.173,0,0,0-2.1,0Z" transform="translate(977.31 1967.763)"/></g></svg>