<svg xmlns="http://www.w3.org/2000/svg" width="41" height="41" viewBox="0 0 41 41"><defs><style>.a,.b{fill:#2bcb2b;}.a{opacity:0.2;}</style></defs><g transform="translate(-400 -1205)"><rect class="a" width="41" height="41" rx="9" transform="translate(400 1205)"/><path class="b" d="M1569.582-19.764h-14.353a1.337,1.337,0,0,0-1.337,1.337V-.458a1.393,1.393,0,0,0,.235.774l1,1.5a1.156,1.156,0,0,0,.966.517h.019a1.164,1.164,0,0,0,.989-.581l.559-.968a.046.046,0,0,1,.08,0l.521.9a1.162,1.162,0,0,0,1.007.581h0a1.163,1.163,0,0,0,1.007-.581l.519-.9a.04.04,0,0,1,.04-.023.041.041,0,0,1,.041.023l.521.9a1.152,1.152,0,0,0,1.059.58,1.212,1.212,0,0,0,.98-.623l.5-.86a.046.046,0,0,1,.08,0l.521.9a1.164,1.164,0,0,0,1.007.581h0a1.163,1.163,0,0,0,1.007-.581l.519-.9a.046.046,0,0,1,.08,0l.559.967a1.163,1.163,0,0,0,1.973.066l1-1.493a1.39,1.39,0,0,0,.236-.776V-18.427A1.337,1.337,0,0,0,1569.582-19.764Zm-6.165,11.017a1.479,1.479,0,0,0-.491-.257q-.293-.1-.856-.24a11.57,11.57,0,0,1-1.473-.461,2.543,2.543,0,0,1-.994-.731,2,2,0,0,1-.42-1.335,2.34,2.34,0,0,1,.671-1.664,3.279,3.279,0,0,1,1.772-.934v-.6a.8.8,0,0,1,.239-.593.825.825,0,0,1,.6-.234.828.828,0,0,1,.6.228.8.8,0,0,1,.234.6v.563a5.072,5.072,0,0,1,1.94.754.876.876,0,0,1,.305.318.92.92,0,0,1,.09.425.955.955,0,0,1-.215.623.637.637,0,0,1-.5.263.789.789,0,0,1-.275-.048,3.526,3.526,0,0,1-.383-.179c-.056-.032-.18-.1-.371-.2a3.158,3.158,0,0,0-.617-.24,2.669,2.669,0,0,0-.7-.09,1.5,1.5,0,0,0-.874.234.728.728,0,0,0-.336.629.614.614,0,0,0,.384.575,5.849,5.849,0,0,0,1.21.383,10.2,10.2,0,0,1,1.455.431,2.425,2.425,0,0,1,.982.731,2.067,2.067,0,0,1,.413,1.353,2.283,2.283,0,0,1-.665,1.653,3.289,3.289,0,0,1-1.79.9V-5.3a.8.8,0,0,1-.234.6.829.829,0,0,1-.6.228.831.831,0,0,1-.605-.228.8.8,0,0,1-.234-.6v-.539a5.377,5.377,0,0,1-2.275-.779.811.811,0,0,1-.306-.3.938.938,0,0,1-.089-.443.967.967,0,0,1,.209-.623.619.619,0,0,1,.5-.263A.9.9,0,0,1,1560-8.2a2.166,2.166,0,0,1,.371.179,4.423,4.423,0,0,0,.982.408,3.8,3.8,0,0,0,.97.12,1.816,1.816,0,0,0,.964-.209.7.7,0,0,0,.329-.629A.51.51,0,0,0,1563.417-8.747Z" transform="translate(-1141.892 1233.764)"/></g></svg>