<svg xmlns="http://www.w3.org/2000/svg" width="162.807" height="162.807" viewBox="0 0 162.807 162.807"><defs><style>.a{fill:#fa0;}</style></defs><path class="a" d="M6.414,109.047A21.649,21.649,0,0,1,6.269,78.43l.011-.011,46.9-47.294-14.42.061c-7.7.033-14.864-5.206-16.136-12.8A15.478,15.478,0,0,1,37.81.259L99.126,0a15.48,15.48,0,0,1,15.546,15.387l-.007.007.258,61.316a15.464,15.464,0,1,1-30.916.861c0-.057,0-.115,0-.172C84,77.22,84,77.034,84,76.849l-.08-15.235-46.9,47.293a21.649,21.649,0,0,1-30.608.139Z" transform="translate(0 81.268) rotate(-45)"/></svg>