<svg xmlns="http://www.w3.org/2000/svg" width="142.643" height="142.643" viewBox="0 0 142.643 142.643"><defs><style>.a{fill:#fa0;}</style></defs><path class="a" d="M0,45.06A16.475,16.475,0,0,1,16.409,28.508l50.682-.214L59.3,20.567C55.137,16.44,54.1,9.768,57.5,5A11.778,11.778,0,0,1,75.43,3.417L108.562,36.27a11.78,11.78,0,0,1,.085,16.644h-.007L75.787,86.047A11.767,11.767,0,1,1,58.779,69.78c.093-.1.193-.2.292-.3l8.154-8.24-50.681.214A16.475,16.475,0,0,1,0,45.06Z" transform="translate(63.414) rotate(45)"/></svg>