<svg xmlns="http://www.w3.org/2000/svg" width="41" height="41" viewBox="0 0 41 41"><defs><style>.a,.b{fill:#fff;}.a{opacity:0.2;}</style></defs><g transform="translate(-968 -1957)"><rect class="a" width="41" height="41" rx="9" transform="translate(968 1957)"/><g transform="translate(291.09 1448.665)"><g transform="translate(683.911 521.272)"><path class="b" d="M690.458,522.677l-6.114,6.233a1.518,1.518,0,0,0,0,2.126l6.114,6.233a1.333,1.333,0,0,0,2.03-.171,1.382,1.382,0,0,0-.2-1.764l-4.855-4.856a.715.715,0,0,1,0-1.011l4.856-4.856a1.382,1.382,0,0,0,.195-1.764A1.333,1.333,0,0,0,690.458,522.677Z" transform="translate(-683.91 -522.286)"/></g><g transform="translate(702.717 521.272)"><path class="b" d="M714.835,537.269l6.114-6.233a1.517,1.517,0,0,0,0-2.126l-6.114-6.233a1.333,1.333,0,0,0-2.03.171,1.383,1.383,0,0,0,.2,1.764l4.855,4.856a.715.715,0,0,1,0,1.011L713,535.334a1.381,1.381,0,0,0-.195,1.764A1.333,1.333,0,0,0,714.835,537.269Z" transform="translate(-712.57 -522.286)"/></g><g transform="translate(693.051 519.335)"><path class="b" d="M704.611,520.164l-2.858,6.992-.918,2.5-2.9,7.084a1.333,1.333,0,0,0,2.468,1.009l2.858-6.992.918-2.5,2.9-7.083a1.333,1.333,0,0,0-2.467-1.009Z" transform="translate(-697.84 -519.335)"/></g></g></g></svg>