<svg xmlns="http://www.w3.org/2000/svg" width="62.806" height="43.438" viewBox="0 0 62.806 43.438"><defs><style>.a{fill:#fff;}</style></defs><path class="a" d="M-1210.33,1462.425c-.2-.636-.386-1.256-.577-1.877q-1.034-3.357-2.071-6.712a1.577,1.577,0,0,0-.234-.484.567.567,0,0,0-1.01.129c-.263.583-.52,1.169-.783,1.753q-1.165,2.591-2.334,5.181a.4.4,0,0,1-.146.169q-3.473,2.118-6.95,4.23c-.017.01-.037.017-.08.037.026-.058.042-.1.061-.135q2.789-5.524,5.574-11.05a5.67,5.67,0,0,1,1.213-1.743,3.222,3.222,0,0,1,1.388-.787c.39-.095.793-.134,1.191-.192.965-.14,1.929-.293,2.9-.412a3.241,3.241,0,0,1,3.274,1.473,7.519,7.519,0,0,1,.71,1.527q2.034,5.072,4.063,10.146a.3.3,0,0,0,.1.141l2.751-14.765.9-.1c.847-.09,1.694-.182,2.542-.267a2.339,2.339,0,0,1,1.283.209,1.525,1.525,0,0,1,.811,1.679c-.145.912-.344,1.815-.521,2.721q-.55,2.81-1.1,5.619c-.231,1.18-.473,2.357-.688,3.54a1.979,1.979,0,0,0,.293,1.47,1.491,1.491,0,0,0,1.847.552,2.7,2.7,0,0,0,.615-.321c1.883-1.329,3.783-2.633,5.785-3.781a24.261,24.261,0,0,1,4.6-2.126,10,10,0,0,1,3.1-.54,5.68,5.68,0,0,1,2.207.423c.031.013.065.02.123.037-.089-.3-.171-.581-.255-.86-.775-2.578-1.546-5.157-2.331-7.732a1.665,1.665,0,0,0-.341-.561.37.37,0,0,0-.607-.011,2.389,2.389,0,0,0-.41.612c-.845,1.9-1.677,3.806-2.512,5.711-.1.227-.209.45-.294.682a.791.791,0,0,1-.354.406q-3.322,2.1-6.637,4.207l-.159.1c.029-.071.044-.115.063-.156q2.559-5.411,5.12-10.821a7.454,7.454,0,0,1,1.093-1.7,3.5,3.5,0,0,1,2.332-1.24c.989-.113,1.969-.3,2.955-.442a5.608,5.608,0,0,1,1.446-.12,3.518,3.518,0,0,1,2.355,1.294,5.81,5.81,0,0,1,.916,1.712q2.021,5.151,4.05,10.3a3.358,3.358,0,0,1,.2,2.2,1.969,1.969,0,0,1-.7,1.084,18.226,18.226,0,0,1-2.366,1.641,2.667,2.667,0,0,1-1.06.367.7.7,0,0,1-.585-.213,6.07,6.07,0,0,0-3.284-1.616,11.637,11.637,0,0,0-3.551-.018,30.609,30.609,0,0,0-6.157,1.552c-2.279.8-4.539,1.648-6.807,2.476-.611.223-1.215.464-1.835.659a5.633,5.633,0,0,1-1.018.18,5.463,5.463,0,0,1-1.744-.032,2.384,2.384,0,0,1-1.861-1.6c-.024-.063-.017-.171-.139-.145s-.24.007-.263.187a1.66,1.66,0,0,1-.7,1.146,9.556,9.556,0,0,1-2.666,1.458,2.874,2.874,0,0,1-.682.11.315.315,0,0,1-.24-.105,4.491,4.491,0,0,0-2.788-1.738,9.43,9.43,0,0,0-2.853-.151,32.657,32.657,0,0,0-7.619,1.8c-2.61.871-5.166,1.886-7.727,2.886a4.726,4.726,0,0,1-.961.335,5.719,5.719,0,0,1-2.949-.221,2.626,2.626,0,0,1-1.75-2.471,8.657,8.657,0,0,1,.2-1.812q.349-1.974.7-3.947.393-2.21.788-4.42.382-2.149.764-4.3c.083-.467.17-.934.246-1.4.018-.111.094-.109.166-.121q.925-.148,1.851-.292c.561-.088,1.122-.175,1.683-.264a1.742,1.742,0,0,1,2.037,1.645,5.337,5.337,0,0,1-.172,1.347q-.474,2.446-.949,4.892-.552,2.849-1.106,5.7a3.04,3.04,0,0,0-.047,1.318,1.155,1.155,0,0,0,1.359.951,2.743,2.743,0,0,0,1.105-.371c1.863-1.131,3.726-2.265,5.6-3.384a29.514,29.514,0,0,1,4.156-2.136,11.4,11.4,0,0,1,2.707-.751,6.883,6.883,0,0,1,3.574.419c.038.016.077.029.116.043A.266.266,0,0,0-1210.33,1462.425Zm.925,2.56c.009-.042.022-.09.029-.139.029-.2.052-.4.087-.6a.205.205,0,0,0-.1-.232,6.084,6.084,0,0,0-4.8-1.033,12.237,12.237,0,0,0-2.879.925c-.035.016-.068.039-.138.08.11-.01.176-.013.241-.022a16.119,16.119,0,0,1,3.94-.12,8.635,8.635,0,0,1,2.529.621C-1210.125,1464.622-1209.774,1464.807-1209.4,1464.985Zm31.169-4.094c.034-.252.078-.525.1-.8,0-.047-.058-.114-.106-.149a5.975,5.975,0,0,0-4.4-1.088,10.234,10.234,0,0,0-2.519.67c-.28.11-.557.231-.835.346a.211.211,0,0,0,.141.029,16.521,16.521,0,0,1,3.738-.151,8.711,8.711,0,0,1,2.282.461C-1179.295,1460.407-1178.779,1460.657-1178.236,1460.892Z" transform="translate(1235.165 -1428.66)"/><path class="a" d="M-963.4,1177.516a4.988,4.988,0,0,1,2.89.982,24.252,24.252,0,0,1,4.778,4.513c.535.663,1.026,1.362,1.543,2.039a2.923,2.923,0,0,0,.427.467,1.119,1.119,0,0,0,1.4.053c.918-.568,1.727-1.279,2.591-1.918a15,15,0,0,1,1.34-.861,1.564,1.564,0,0,1,.56-.162.644.644,0,0,1,.761.669,4.662,4.662,0,0,1-.327,1.475,25.169,25.169,0,0,1-1.837,3.856,35.012,35.012,0,0,1-2.971,4.535,10.863,10.863,0,0,1-1.022,1.143c-.568.541-.745.6-1.515.158a3.987,3.987,0,0,0-.824-.379,2.789,2.789,0,0,0-1.454.071c-1.832.44-3.657.907-5.5,1.314a3.618,3.618,0,0,1-2.254-.173,1.525,1.525,0,0,1-.961-1.343A4.246,4.246,0,0,1-965,1191c.281-.383.556-.772.813-1.171a2.518,2.518,0,0,0,.457-1.269,2.452,2.452,0,0,0-.12-.9c-.27-.752-.573-1.493-.89-2.227a21.828,21.828,0,0,1-1.294-3.446,9.541,9.541,0,0,1-.286-1.582,2.584,2.584,0,0,1,2.139-2.793,3.306,3.306,0,0,1,.335-.06C-963.681,1177.534-963.516,1177.525-963.4,1177.516Zm9.727,14.721c0-.1,0-.148,0-.2-.061-.6-.1-1.205-.19-1.8a11.453,11.453,0,0,0-1.724-4.541,12.513,12.513,0,0,0-3.965-3.8,4.665,4.665,0,0,0-2.21-.742,1.553,1.553,0,0,0-1.763,1.3,3.5,3.5,0,0,0,.154,1.846,4.37,4.37,0,0,0,1.242,1.772,13.936,13.936,0,0,0,2.474,1.727c1.064.625,2.139,1.234,3.189,1.883a9.552,9.552,0,0,1,2.4,2.043C-953.945,1191.878-953.827,1192.04-953.675,1192.237Zm-.606,1.263c0-.011.011-.022.009-.03a.7.7,0,0,0-.029-.088,7.262,7.262,0,0,0-.921-1.662,4.337,4.337,0,0,0-2.586-1.7,5.852,5.852,0,0,0-2.521.04,6.228,6.228,0,0,0-1.305.374,3.1,3.1,0,0,0-1.4,1.323,1.909,1.909,0,0,0-.272,1.261,1.183,1.183,0,0,0,1.185.992c.435-.049.871-.11,1.3-.2.91-.185,1.812-.407,2.724-.582a7,7,0,0,1,2.893.015C-954.892,1193.321-954.588,1193.417-954.281,1193.5Z" transform="translate(983.903 -1177.516)"/><path class="a" d="M-878.843,1435.195a9.106,9.106,0,0,1-2.581,3.115,3.807,3.807,0,0,1-2.841.659c-.828-.129-1.645-.333-2.465-.515a9.05,9.05,0,0,0-2.112-.284c-.38.007-.759.072-1.138.11-.025,0-.05,0-.122.006.2-.264.378-.507.571-.732a4.993,4.993,0,0,1,2.824-1.709,7.71,7.71,0,0,1,2.142-.12c.5.037,1,.075,1.5.1.582.034,1.165.087,1.747.081a4.412,4.412,0,0,0,2.131-.515C-879.072,1435.333-878.958,1435.263-878.843,1435.195Z" transform="translate(912.66 -1418.349)"/><path class="a" d="M-313.518,1421.434a1.351,1.351,0,0,1-1.372,1.343,1.354,1.354,0,0,1-1.359-1.326,1.355,1.355,0,0,1,1.366-1.352A1.353,1.353,0,0,1-313.518,1421.434Zm-1.362,1.218a1.222,1.222,0,0,0,1.243-1.231,1.237,1.237,0,0,0-1.248-1.2,1.244,1.244,0,0,0-1.247,1.222A1.231,1.231,0,0,0-314.88,1422.652Z" transform="translate(376.323 -1404.24)"/><path class="a" d="M-303.721,1429.566c.282,0,.555-.01.827,0,.187.01.291.138.319.34a.357.357,0,0,1-.22.386c-.041.018-.083.032-.109.042l.391.572c.016.024.029.051.047.083-.143.038-.247.025-.313-.116-.041-.088-.109-.163-.156-.249a.481.481,0,0,0-.607-.248V1431h-.179Zm.479.132v.012a1.512,1.512,0,0,0-.2,0c-.033,0-.088.034-.09.056a2.882,2.882,0,0,0,0,.371c0,.021.049.056.076.056a3.954,3.954,0,0,0,.509-.022.211.211,0,0,0,.181-.221.2.2,0,0,0-.167-.213A2.8,2.8,0,0,0-303.242,1429.7Z" transform="translate(364.615 -1413.084)"/></svg>