<svg xmlns="http://www.w3.org/2000/svg" width="56.295" height="49.61" viewBox="0 0 56.295 49.61"><defs><style>.a{fill:#fff;}</style></defs><g transform="translate(0)"><path class="a" d="M-610.988,1420.118l1.129-1.013a4.054,4.054,0,0,0-.746-.086.964.964,0,0,1-1.151-.8,5.418,5.418,0,0,0-.307-.724c-.1.225-.186.4-.266.57a1.32,1.32,0,0,0-.126.288c-.1.519-.453.63-.923.668a3.028,3.028,0,0,1-1.171-.209c-1.019-.31-2.07-.516-3.109-.764-.026-.006-.051-.015-.138-.042.4-.23.751-.443,1.115-.637.052-.028.16.02.228.058.381.215.758.437,1.2.7-.1-.483-.178-.9-.283-1.309a.359.359,0,0,1,.137-.42c.32-.269.626-.555.991-.882a10.543,10.543,0,0,0-1.066-.107.638.638,0,0,1-.711-.5,10.11,10.11,0,0,0-.439-1.013c-.2.446-.384.818-.534,1.2a.384.384,0,0,1-.373.28c-.417.032-.832.081-1.317.13.365.329.673.621,1,.893a.36.36,0,0,1,.131.422c-.085.322-.15.65-.21.978-.031.168-.109.226-.283.242a5.909,5.909,0,0,0-.786.149.645.645,0,0,1-.682-.182,2.04,2.04,0,0,0-1.382-.6,3.046,3.046,0,0,1-.736-.193c-.423-.172-.831-.379-1.247-.567-.215-.1-.241-.221-.067-.389.041-.04.093-.068.133-.108.084-.083.164-.171.245-.257a1.465,1.465,0,0,0-.323-.253c-.273-.11-.563-.178-.84-.28a.982.982,0,0,1-.667-.792,3.423,3.423,0,0,1-.1-.678,1.6,1.6,0,0,0-.683-1.286,8.147,8.147,0,0,1-.959-.98,1.214,1.214,0,0,1-.012-1.74,8.449,8.449,0,0,1,.577-.635c.074-.08.151-.158.23-.241l1.321.759c-.1-.47-.167-.878-.276-1.276a.385.385,0,0,1,.159-.461c.314-.259.61-.54.975-.867-.459-.048-.841-.107-1.225-.123a.484.484,0,0,1-.509-.354c-.131-.364-.306-.712-.483-1.116-.281.511-.426,1.038-.709,1.485l-.143-.034c-.1-.422-.162-.854-.3-1.264a1.093,1.093,0,0,1,.6-1.508,9.249,9.249,0,0,0,1.146-.809.735.735,0,0,0,.32-.936c-.113-.509-.176-1.028-.267-1.575H-604c-.177.164-.337.291-.471.442-.255.286-.207.5.134.684a.784.784,0,0,0,1.045-.232c.174-.2.343-.394.515-.592l.1.033c.02.182.039.365.059.547a.678.678,0,0,0,.39.614c.116.056.176.29.2.453s.007.3.18.412.126.287.007.424c-.087.1-.2.174-.293.273-.046.05-.1.139-.083.19s.11.1.176.108c.377.068.427.159.272.512-.119.271-.246.539-.349.816a.379.379,0,0,1-.423.28c-2.083-.01-4.167-.006-6.25-.005h-.26c-.009.11-.023.211-.024.311,0,.812.006,1.625-.006,2.437,0,.223.055.289.288.289q7.583-.011,15.166-.011a.594.594,0,0,1,.582.286,6.227,6.227,0,0,0,.719.773,7.684,7.684,0,0,1,.6.647c.215.286.146.514-.166.682a2.811,2.811,0,0,1-.288.126.479.479,0,0,0-.291.416,4.687,4.687,0,0,1-.281.913c-.113.271-.3.512-.416.783a.4.4,0,0,1-.437.262q-7.555-.01-15.109,0h-.34v3c.084.005.167.014.25.014q6.565,0,13.131-.007a.434.434,0,0,1,.488.332c.094.319.175.643.247.968.039.175.047.357.073.57.2,0,.393.005.581,0a.5.5,0,0,1,.495.313c.313.6.651,1.185.957,1.786a1.042,1.042,0,0,1,.131.572,5.767,5.767,0,0,1-.273,1.049c-.081.236-.3.233-.48.135-.225-.122-.422-.292-.641-.427-.493-.3-.985-.613-1.492-.892-.146-.08-.214-.144-.209-.313.011-.371,0-.742,0-1.143-.348.06-.466-.147-.567-.394a1.534,1.534,0,0,0-.26-.474,1.486,1.486,0,0,0-.436-.255c-.108-.053-.227-.083-.337-.131a.346.346,0,0,1-.112-.088,2.06,2.06,0,0,0-1.932-.655,1.677,1.677,0,0,1-.486,0,.937.937,0,0,0-1.027.49c-.18.292-.4.561-.558.864a.983.983,0,0,1-1.35.581,5.514,5.514,0,0,0-1.283-.078c-.783,0-1.566.022-2.349.036a2.008,2.008,0,0,0-1.37.631c-.282.27-.2.582-.075.9a5.02,5.02,0,0,1,.153.609,2.006,2.006,0,0,1-1.078-.725,1.28,1.28,0,0,0-.633-.4C-609.971,1420.514-610.446,1420.317-610.988,1420.118Zm-5.682-14.611c-.207.466-.385.854-.551,1.247a.313.313,0,0,1-.309.231c-.432.026-.862.088-1.367.143.35.315.635.591.943.841a.449.449,0,0,1,.175.539c-.106.382-.171.776-.267,1.23.419-.242.792-.444,1.15-.669a.362.362,0,0,1,.442,0c.353.219.719.419,1.147.665a3.983,3.983,0,0,0-.15-.729,1.011,1.011,0,0,1,.471-1.4,4.435,4.435,0,0,0,.534-.478c-.509-.055-.932-.113-1.358-.14a.312.312,0,0,1-.314-.224C-616.287,1406.366-616.464,1405.978-616.671,1405.506Zm-4.366-4.2c-.194.44-.373.818-.526,1.205a.4.4,0,0,1-.4.282c-.411.024-.819.079-1.3.127.348.311.63.582.933.825a.464.464,0,0,1,.187.562c-.109.379-.17.772-.264,1.219.428-.247.8-.452,1.166-.677a.341.341,0,0,1,.413,0c.36.223.733.427,1.167.677-.1-.485-.179-.9-.283-1.3a.357.357,0,0,1,.132-.419c.324-.273.634-.564,1-.892-.486-.049-.9-.1-1.315-.129a.371.371,0,0,1-.365-.255C-620.654,1402.135-620.837,1401.748-621.037,1401.3Zm11.238,1.566c-.491-.052-.9-.113-1.3-.132a.386.386,0,0,1-.4-.285c-.152-.384-.331-.758-.525-1.2-.209.469-.377.873-.573,1.264a.441.441,0,0,1-.29.2c-.429.063-.862.1-1.358.146a6.236,6.236,0,0,0,.676.6.838.838,0,0,1,.365,1.129,6.688,6.688,0,0,0-.2.884c.451-.262.825-.469,1.188-.693a.322.322,0,0,1,.387,0c.364.223.738.429,1.174.68-.1-.476-.168-.886-.277-1.286a.376.376,0,0,1,.147-.442C-610.469,1403.475-610.163,1403.193-609.8,1402.868Zm-2.321,6.814c-.2.44-.375.808-.524,1.187a.4.4,0,0,1-.4.289c-.412.025-.822.082-1.3.133.345.309.62.586.927.821a.48.48,0,0,1,.182.588c-.1.374-.167.756-.264,1.2a10.24,10.24,0,0,0,.94-.554.627.627,0,0,1,.86-.009,9.288,9.288,0,0,0,.95.552c-.1-.471-.182-.871-.279-1.266a.391.391,0,0,1,.147-.464c.323-.257.619-.547.984-.877-.471-.048-.855-.1-1.242-.121a.463.463,0,0,1-.482-.343C-611.749,1410.457-611.93,1410.108-612.119,1409.682Zm-10.34,4.222c.438-.254.808-.452,1.159-.678a.353.353,0,0,1,.437,0c.36.222.732.427,1.155.671-.095-.447-.155-.834-.264-1.206a.481.481,0,0,1,.193-.584c.3-.241.578-.51.925-.82a9.79,9.79,0,0,0-1.061-.1.672.672,0,0,1-.745-.536,8.937,8.937,0,0,0-.427-.966,6.41,6.41,0,0,0-.347.8.854.854,0,0,1-.979.717,6.16,6.16,0,0,0-.9.083c.382.341.686.629,1.009.895a.366.366,0,0,1,.134.42C-622.267,1413.009-622.352,1413.417-622.459,1413.9Z" transform="translate(635.36 -1383.698)"/><path class="a" d="M-98.925,1406.108a.943.943,0,0,1,.4-.7c.208-.166.44-.3.661-.451a.586.586,0,0,0,.254-.718c-.107-.284-.339-.293-.591-.269-.171.017-.343.024-.514.023-.2,0-.238-.1-.13-.255a1.318,1.318,0,0,1,1.2-.652.658.658,0,0,0,.723-.36,7.758,7.758,0,0,1,.649-.754c.243-.327.216-.48-.085-.8h3.8a2.043,2.043,0,0,1-.416,1.122c-.041.063-.1.117-.143.178a.864.864,0,0,0,.1,1.274c.158.152.341.278.491.436a.566.566,0,0,1,0,.9c-.231.222-.522.38-.771.586a2.316,2.316,0,0,1-1.653.456c-1.2-.034-2.405-.01-3.608-.01Z" transform="translate(137.76 -1383.92)"/><path class="a" d="M-774.539,1301.918l-1.106.277a18.949,18.949,0,0,1-.21-8.49,21.513,21.513,0,0,1,4.821-9.792l.779.842C-774.288,1289.78-776,1295.432-774.539,1301.918Z" transform="translate(776.239 -1273.393)"/><path class="a" d="M101.479,1285.2l.8-.824a21.411,21.411,0,0,1,4.62,8.958,19.507,19.507,0,0,1-.02,9.3l-1.115-.276C107.218,1295.892,105.528,1290.235,101.479,1285.2Z" transform="translate(-51.153 -1273.832)"/><path class="a" d="M-372.373,1104.633c.376-.862.735-1.672,1.083-2.485.192-.447.371-.9.547-1.353a.286.286,0,0,1,.31-.221c.592.005,1.183-.018,1.775-.016.093,0,.186.079.279.121-.08.054-.155.141-.242.155a.645.645,0,0,0-.641.679c-.06.732-.092,1.466-.117,2.2-.019.544-.011,1.089-.009,1.634,0,.665.119.815.746,1.013.057.018.094.1.141.146-.068.036-.135.1-.2.1-.7,0-1.393-.011-2.089-.015-.162,0-.324.024-.485.015-.059,0-.115-.07-.173-.107.046-.051.089-.142.139-.146.484-.036.616-.348.625-.765q.042-1.89.083-3.78c0-.033-.01-.066-.084-.116l-2.021,4.883-.1.013-2.312-4.762-.063.005c-.013.41-.033.82-.038,1.23-.009.821-.019,1.641-.01,2.462.007.55.107.644.646.766.075.017.134.1.2.157a.684.684,0,0,1-.235.1q-.872,0-1.744-.025c-.076,0-.15-.07-.225-.108.067-.056.125-.14.2-.163.6-.186.695-.24.718-.862q.07-1.888.057-3.778c0-.544-.17-.688-.681-.852-.089-.028-.155-.129-.231-.2.089-.044.179-.128.267-.125.572.017,1.143.045,1.713.09a.369.369,0,0,1,.228.2c.617,1.239,1.225,2.482,1.836,3.723C-372.457,1104.49-372.432,1104.53-372.373,1104.633Z" transform="translate(399.5 -1100.437)"/><path class="a" d="M-726.2,1336.287l-1.112.255a16.136,16.136,0,0,1-.123-6.6,18.147,18.147,0,0,1,4.144-8.484l.817.757C-725.714,1326.383-727.258,1330.973-726.2,1336.287Z" transform="translate(730.495 -1308.785)"/><path class="a" d="M66.046,1321.948a.537.537,0,0,1,.061-.082c.243-.228.487-.454.761-.709a18.41,18.41,0,0,1,3.648,6.6,16.272,16.272,0,0,1,.363,8.5l-1.121-.25C70.818,1330.718,69.306,1326.121,66.046,1321.948Z" transform="translate(-17.752 -1308.5)"/><path class="a" d="M-227.39,1110.357c-.16.716-.322,1.411-.468,2.109a.455.455,0,0,0,.291.506,2.489,2.489,0,0,0,2.862-.387.717.717,0,0,1,.245-.094.727.727,0,0,1,0,.277c-.146.332-.319.651-.465.983a.282.282,0,0,1-.395.186q-1.871-.489-3.748-.952c-.277-.069-.565-.1-.843-.163-.083-.02-.149-.113-.223-.172.083-.035.168-.1.249-.1.483.02.623-.033.757-.509.3-1.057.556-2.124.825-3.188.079-.314.141-.633.2-.951.074-.373.008-.485-.327-.667a1.263,1.263,0,0,1-.242-.23,1.086,1.086,0,0,1,.355-.039c1.364.326,2.724.665,4.087.993.194.047.287.118.265.343-.034.341-.02.687-.044,1.03-.006.086-.083.166-.127.249a1.491,1.491,0,0,1-.187-.188.808.808,0,0,1-.086-.211,2.163,2.163,0,0,0-2.136-1.382.208.208,0,0,0-.172.1c-.2.684-.391,1.371-.581,2.047a1.04,1.04,0,0,0,1.465-.24,1,1,0,0,1,.145-.176.867.867,0,0,1,.213-.082.63.63,0,0,1,.018.207c-.116.443-.247.883-.361,1.326-.052.2-.071.413-.12.617a.715.715,0,0,1-.125.195c-.052-.068-.129-.13-.149-.207-.036-.136-.017-.287-.056-.422C-226.387,1110.741-226.72,1110.5-227.39,1110.357Z" transform="translate(261.448 -1106.584)"/><path class="a" d="M-664.788,1206.126a1.775,1.775,0,0,1-1.29-.689c-.569-.631-1.123-1.275-1.693-1.9-.211-.233-.444-.446-.677-.656a.521.521,0,0,0-.705-.045c-.076.05-.2.032-.3.046.04-.094.055-.214.124-.277.574-.532,1.157-1.053,1.737-1.577a.443.443,0,0,1,.132-.107.885.885,0,0,1,.211-.019c-.007.068.011.161-.027.2a.662.662,0,0,0,.016.979c.72.839,1.436,1.685,2.206,2.476a1.208,1.208,0,0,0,1.649.124,3.225,3.225,0,0,0,.585-.5,1.062,1.062,0,0,0,.2-1.318,8.408,8.408,0,0,0-.874-1.267c-.432-.52-.9-1.009-1.38-1.489a.759.759,0,0,0-1.075-.172c-.049.035-.151,0-.229-.01.021-.076.018-.178.067-.223q.653-.6,1.324-1.178c.046-.04.137-.028.207-.04,0,.07.026.16-.008.206a.793.793,0,0,0,.1,1.049c.415.511.855,1,1.277,1.507.293.351.59.7.856,1.073a1.736,1.736,0,0,1,.022,2.089,4.176,4.176,0,0,1-1.83,1.554A3.735,3.735,0,0,1-664.788,1206.126Z" transform="translate(675.575 -1192.859)"/><path class="a" d="M-514.545,1128.941l.195-.361a2.046,2.046,0,0,1,.285.319c.177.306.338.62.49.939a.747.747,0,0,1,.012.278c-.094-.025-.217-.021-.276-.08a2.167,2.167,0,0,0-1.255-.634,1.216,1.216,0,0,0-.947.231.845.845,0,0,0-.348.907.759.759,0,0,0,.731.584c.379.026.762,0,1.143,0a2.7,2.7,0,0,1,1.654.338,1.755,1.755,0,0,1,.774,1.712,1.947,1.947,0,0,1-1.174,1.644,3.237,3.237,0,0,1-1.732.267.562.562,0,0,1-.328-.142c-.305-.315-.6-.642-.878-.98-.059-.071-.044-.2-.063-.307a1.215,1.215,0,0,1,.313.112,12.684,12.684,0,0,0,1.1.8,1.351,1.351,0,0,0,1.394-.068,1.08,1.08,0,0,0,.52-1.069.9.9,0,0,0-.864-.782c-.578-.054-1.162-.038-1.742-.067a1.7,1.7,0,0,1-1.582-1.046,1.587,1.587,0,0,1,.318-1.782,2.08,2.08,0,0,1,1.149-.657C-515.281,1129.012-514.9,1128.987-514.545,1128.941Z" transform="translate(532.115 -1126.966)"/><path class="a" d="M-23.2,1202.971c-.23.275-.525.637-.834.988-.049.056-.16.058-.242.085a1.134,1.134,0,0,1-.052-.257.885.885,0,0,1,.07-.217,1.527,1.527,0,0,0-.33-1.6c-.162-.173-.319-.351-.5-.554-.287.258-.57.484-.821.741-.834.854-1.664,1.71-2.479,2.582-.378.4-.359.564-.033.994a1.5,1.5,0,0,1,.148.363,1.4,1.4,0,0,1-.357-.186c-.609-.593-1.206-1.2-1.807-1.8a2.894,2.894,0,0,1-.253-.272c-.028-.037-.038-.141-.021-.15a.305.305,0,0,1,.18-.028c.041.006.078.051.115.081.418.328.63.356,1.017.026a32.617,32.617,0,0,0,3.321-3.375,9.711,9.711,0,0,0-.872-.718,1.426,1.426,0,0,0-1.219-.1,1.5,1.5,0,0,1-.3.087.635.635,0,0,1-.224-.074c.025-.065.031-.153.078-.191.374-.309.756-.608,1.037-.833Z" transform="translate(73.47 -1192.943)"/><path class="a" d="M-130.76,1159.943c-.158,1.55-.311,3.022-.458,4.5-.038.38-.055.762-.086,1.143a.856.856,0,0,0,.337.779c.053.043.064.138.1.208-.085.008-.187.052-.251.02q-1.11-.561-2.208-1.146c-.062-.033-.084-.142-.124-.216a.662.662,0,0,1,.221-.022c.447.114.622.023.717-.432.076-.364.114-.735.173-1.1a.261.261,0,0,0-.16-.32c-.438-.213-.865-.448-1.3-.659a.3.3,0,0,0-.266.032,9.069,9.069,0,0,0-.732.766c-.294.353-.261.578.064.893a1.1,1.1,0,0,1,.154.269,1.086,1.086,0,0,1-.33-.043q-.682-.326-1.349-.685c-.075-.04-.115-.146-.172-.221.081-.027.169-.089.241-.074a1.035,1.035,0,0,0,.9-.271c.44-.367.858-.758,1.287-1.139.914-.812,1.826-1.626,2.746-2.431.083-.073.246-.146.323-.111C-130.843,1159.719-130.8,1159.876-130.76,1159.943Zm-1.506,3.071.19-2.11-1.577,1.422Z" transform="translate(173.122 -1156.271)"/><path class="a" d="M-246.977,1893.393c.071-.018.141-.041.213-.053.6-.1,1.2-.187,1.805-.289a1.9,1.9,0,0,1,2.362,1.72,1.747,1.747,0,0,1-1.355,1.921c-.769.178-1.556.281-2.335.415a.284.284,0,0,1-.22-.069,1.155,1.155,0,0,1,.2-.11.361.361,0,0,0,.3-.422q-.2-1.342-.42-2.681a.337.337,0,0,0-.359-.3.964.964,0,0,1-.2-.045Zm3.441,1.874a2.545,2.545,0,0,0-.354-1.309,1.293,1.293,0,0,0-1.467-.631c-.161.036-.254.1-.212.294.046.214.056.435.09.652.1.631.192,1.265.312,1.892.077.405.223.486.63.428A1.2,1.2,0,0,0-243.536,1895.267Z" transform="translate(277.329 -1847.568)"/><path class="a" d="M-109.629,1850.072a1.912,1.912,0,0,1-.234.164c-.212.108-.443.185-.643.31-.28.176-.464.052-.632-.156-.191-.238-.359-.5-.563-.721-.293-.324-.563-.333-.946-.055.19.368.38.74.572,1.112a.329.329,0,0,0,.432.174,1.868,1.868,0,0,1,.227-.038l.036.1-1.634.822-.058-.057c.033-.051.055-.121.1-.149a.349.349,0,0,0,.133-.516q-.583-1.164-1.175-2.324a.328.328,0,0,0-.472-.184.243.243,0,0,1-.219-.035,1.323,1.323,0,0,1,.188-.153c.468-.257.928-.532,1.412-.754a3.526,3.526,0,0,1,.95-.267.728.728,0,0,1,.764.4.814.814,0,0,1-.049.893,5.007,5.007,0,0,1-.414.488c.592-.167.912.159,1.223.527.245.291.513.57.989.277Zm-3.1-.645a4.6,4.6,0,0,0,.522-.462.771.771,0,0,0-.156-1,.715.715,0,0,0-.939.014.233.233,0,0,0-.041.211C-113.159,1848.583-112.959,1848.97-112.731,1849.427Z" transform="translate(152.631 -1804.508)"/><path class="a" d="M-564.467,1831.144c-.2.372-.4.747-.6,1.124a.317.317,0,0,0,.1.429,2.278,2.278,0,0,1,.16.163l-.064.088-1.657-.924c.115-.05.143-.074.165-.069.459.086.473.087.694-.3.366-.648.719-1.3,1.081-1.953.151-.272.244-.528-.108-.724-.022-.013-.022-.066-.051-.159a2.38,2.38,0,0,1,.289.1c.442.224.887.443,1.319.686a3.639,3.639,0,0,1,.676.472.88.88,0,0,1,.259,1.06.929.929,0,0,1-1,.448c-.109-.014-.216-.04-.42-.078a1.085,1.085,0,0,1,.282,1.291c-.12.431-.112.433.257,1.1a1.287,1.287,0,0,1-.259-.074,6.843,6.843,0,0,1-.8-.491.456.456,0,0,1-.118-.383c.066-.306.194-.6.28-.9A.649.649,0,0,0-564.467,1831.144Zm.108-.181a4.873,4.873,0,0,0,.64.179.775.775,0,0,0,.775-.693.72.72,0,0,0-.563-.782.218.218,0,0,0-.175.09C-563.9,1830.133-564.11,1830.516-564.359,1830.963Z" transform="translate(578.552 -1787.052)"/><path class="a" d="M82.907,1683.459a1.95,1.95,0,0,1,1.924,2,2.027,2.027,0,0,1-1.932,2.02,1.979,1.979,0,0,1-1.915-2A2.032,2.032,0,0,1,82.907,1683.459Zm.642,3.3a2.808,2.808,0,0,0,.355-.053.86.86,0,0,0,.317-1.447,3.011,3.011,0,0,0-1.811-1.067.867.867,0,0,0-.929.366.789.789,0,0,0,.026.941A2.95,2.95,0,0,0,83.55,1686.754Z" transform="translate(-31.833 -1650.03)"/><path class="a" d="M-617.06,1800.967a2.033,2.033,0,0,1-2.023-1.962,1.96,1.96,0,0,1,1.969-1.867,2.028,2.028,0,0,1,2.052,1.925A1.894,1.894,0,0,1-617.06,1800.967Zm-.483-.411a1.158,1.158,0,0,0,.343-.083,2.827,2.827,0,0,0,1.481-1.834.81.81,0,0,0-1.114-1,2.606,2.606,0,0,0-1.59,2.023A.8.8,0,0,0-617.543,1800.556Z" transform="translate(628.094 -1757.192)"/><path class="a" d="M-170.121,1427.669c0-.435-.012-.842,0-1.249a.8.8,0,0,0-.406-.835.793.793,0,0,1-.249-1.068.774.774,0,0,1,.881-.465,1.256,1.256,0,0,1,1.009.9,5.8,5.8,0,0,0,.348.61,1.26,1.26,0,0,1,.2.478c.02.476,0,.954-.019,1.43,0,.067-.09.186-.141.188C-169.033,1427.674-169.575,1427.669-170.121,1427.669Z" transform="translate(205.58 -1405.485)"/><path class="a" d="M106.558,1606.283c.6.244,1.128.469,1.663.667.423.156.552.1.824-.269a1.079,1.079,0,0,1,.12-.108c.013.094.043.158.024.2-.186.44-.38.877-.572,1.315l-.072-.024a.465.465,0,0,1-.018-.13c.067-.447.025-.547-.391-.723-.553-.234-1.112-.453-1.67-.673a.937.937,0,0,0-1.166.247.531.531,0,0,1-.115.07c-.018-.068-.056-.127-.041-.164.114-.283.227-.567.366-.838.039-.076.16-.123.253-.158.85-.315,1.7-.624,2.555-.936.085-.031.166-.073.324-.143-.6-.232-1.131-.44-1.663-.641a.472.472,0,0,0-.555.187c-.062.072-.131.139-.2.208l-.082-.051.57-1.4.082.012a.676.676,0,0,1,.025.165c-.036.381.025.509.392.665.729.31,1.464.6,2.2.907a2.555,2.555,0,0,1,.555.309A34.9,34.9,0,0,1,106.558,1606.283Z" transform="translate(-54.605 -1574.107)"/><path class="a" d="M-723.709,1670.761c-.12-.1-.225-.26-.361-.292-.524-.124-1.057-.211-1.59-.3-.043-.007-.123.081-.151.141-.251.546-.518,1.087-.73,1.648a2.411,2.411,0,0,0-.042.724c0,.052,0,.1,0,.157l-.075.035-1.106-1.8c.092,0,.126-.017.142,0,.363.272.4.268.62-.144.142-.267.263-.547.425-.886-.44-.017-.825-.04-1.21-.043-.183,0-.247.119-.2.295l.089.365-.089.04-.883-1.426c.131.034.2.03.224.061a1.151,1.151,0,0,0,.885.4c.361.033.722.071,1.084.082a.338.338,0,0,0,.257-.148c.2-.389.39-.787.57-1.187a1.208,1.208,0,0,0,.1-.942c-.015-.042.014-.1.037-.24l1.126,1.823c-.108,0-.131.008-.145,0-.4-.259-.4-.26-.622.19-.092.187-.181.375-.3.625.352.018.658.05.965.044.186,0,.262-.134.214-.323-.017-.069-.026-.14-.038-.209l.093-.044.8,1.286Z" transform="translate(731.59 -1634.8)"/><path class="a" d="M-169.344,1872.472a.821.821,0,0,0-1.142-.348c.143.408.279.822.435,1.227.078.2.266.2.44.156.613-.172,1.151-.432,1.3-1.139.009-.044.057-.081.165-.115l.111.984-3.183,1.027c0-.084-.008-.112,0-.119.425-.325.433-.341.261-.875-.2-.609-.389-1.219-.6-1.824-.189-.552-.2-.55-.715-.664l-.029-.079,2.877-.958.479.826-.057.067a1.086,1.086,0,0,1-.252-.113,1.321,1.321,0,0,0-1.555-.065.255.255,0,0,0-.119.207c.1.4.227.785.348,1.187.547-.055.747-.387.718-.93l.121.063.452,1.4Z" transform="translate(206.924 -1825.635)"/><path class="a" d="M-754.223,1613.661c.041.581.463.674.913.734l-.023.08-1.4.5-.03-.054a2.021,2.021,0,0,0,.364-.51,2.229,2.229,0,0,0-.015-.678c-.486.19-.909.331-1.306.527a.462.462,0,0,0-.12.415c.177.621.471,1.156,1.2,1.271a.37.37,0,0,1,.111.062l0,.1c-.317.041-.634.086-.953.115-.031,0-.083-.094-.105-.152q-.524-1.393-1.039-2.789a.639.639,0,0,1,0-.194c.059.019.1.019.107.035.258.465.407.368.8.233.623-.211,1.238-.447,1.855-.677.344-.128.767-.2.579-.782l.092.012a.709.709,0,0,1,.127.165c.31.832.619,1.663.914,2.5a.3.3,0,0,1-.088.268c-.206.154-.435.278-.656.414l-.073-.073a2.21,2.21,0,0,1,.155-.3,1.316,1.316,0,0,0-.036-1.507.251.251,0,0,0-.223-.086C-753.463,1613.4-753.848,1613.535-754.223,1613.661Z" transform="translate(757.76 -1582.568)"/><path class="a" d="M-678.591,1738.785c-.286.255-.554.5-.826.735-.22.192-.292.394-.078.639a.41.41,0,0,1,.048.144l-.075.055-1.227-1.385c.066-.032.091-.052.1-.047.318.266.565.112.82-.116.561-.5,1.13-1,1.7-1.493.218-.189.355-.382.128-.655-.017-.021,0-.069,0-.16a.926.926,0,0,1,.2.121c.409.454.82.906,1.216,1.372a2.58,2.58,0,0,1,.353.552.852.852,0,0,1-.168,1.026.863.863,0,0,1-1.047.2,5.223,5.223,0,0,1-.808-.622A3.442,3.442,0,0,1-678.591,1738.785Zm.176-.155c.254.362.54.6.976.481a.821.821,0,0,0,.675-.658c.055-.39-.215-.617-.515-.825Z" transform="translate(686.223 -1700.032)"/><path class="a" d="M-309.309,1905.189a.95.95,0,0,1,.1-.045c.436-.133.481-.179.477-.629-.006-.754-.031-1.508-.037-2.262,0-.291-.066-.512-.41-.531-.031,0-.059-.04-.086-.137h3.064l.189.861-.167.115a1.706,1.706,0,0,0-.113-.257,1.315,1.315,0,0,0-1.435-.534.3.3,0,0,0-.2.2c-.02.4-.009.8-.009,1.2.528.138.793-.152.949-.63l.085.065v1.476c-.218-.394-.467-.718-1-.623,0,.431-.019.868.015,1.3.008.1.186.239.308.269a1.539,1.539,0,0,0,1.613-.655.858.858,0,0,0,.072-.188l.153.091-.184.985h-3.343Z" transform="translate(336.081 -1855.649)"/><path class="a" d="M-4.734,1759.129l.728.685-.041.069a3.112,3.112,0,0,0-.893-.045,3.54,3.54,0,0,0-.838.473c.551.6,1.05,1.153,1.555,1.7.149.161.316.3.471.46a.385.385,0,0,0,.582.04,1.167,1.167,0,0,1,.245-.119l.054.084-1.6,1.448-.083-.076a1.139,1.139,0,0,1,.108-.165.429.429,0,0,0,.018-.641c-.629-.7-1.266-1.4-1.96-2.166a3.31,3.31,0,0,0-.558.771,4.793,4.793,0,0,0-.055.9,3.225,3.225,0,0,1-.634-.783Z" transform="translate(51.708 -1721.361)"/><path class="a" d="M-483.415,1862.164a1.091,1.091,0,0,0-1.439.115.738.738,0,0,1-.2.077.661.661,0,0,1,.008-.228c.314-.744.313-.735,1.057-.457.893.335,1.792.654,2.688.98.089.032.176.068.294.114l-.263.976h-.083a3.058,3.058,0,0,0-.366-.812,3.271,3.271,0,0,0-.778-.5c-.078.161-.137.258-.175.362-.269.744-.545,1.487-.8,2.237-.161.481-.142.489.281.75a.829.829,0,0,1,.116.105l-.041.09-2.032-.746.026-.106a1.273,1.273,0,0,1,.228.022.405.405,0,0,0,.535-.258c.327-.884.636-1.775.95-2.665C-483.4,1862.2-483.41,1862.182-483.415,1862.164Z" transform="translate(501.832 -1817.859)"/><path class="a" d="M-375.035,1895.16a2.393,2.393,0,0,1,.256,0c.92.1,1.839.2,2.759.3.158.017.248.065.243.24-.007.245,0,.49,0,.819a2.187,2.187,0,0,1-.191-.252,1.5,1.5,0,0,0-1.476-.734.309.309,0,0,0-.227.192c-.076.382-.12.77-.177,1.167.54.182.847-.051,1.014-.578l.113.089-.213,1.493-.076-.007a1.758,1.758,0,0,0-.268-.56,1.766,1.766,0,0,0-.592-.233c-.049.467-.09.864-.132,1.261-.032.3.079.479.4.5a.633.633,0,0,1,.18.075,5.2,5.2,0,0,1-2.04-.169.974.974,0,0,1,.245-.086.329.329,0,0,0,.364-.322c.1-.87.208-1.741.306-2.612a.335.335,0,0,0-.347-.422.469.469,0,0,1-.145-.066Z" transform="translate(398.444 -1849.59)"/><path class="a" d="M-29.141,1821.282l-1.073.731-.054-.051a1.488,1.488,0,0,0,.165-.457,3.231,3.231,0,0,0-.1-.761c-.205-.893-.428-1.782-.634-2.674a.927.927,0,0,1,.04-.31,1.01,1.01,0,0,1,.281.078c.732.468,1.452.953,2.188,1.412.4.253.758.681,1.347.425l.02.1-1.531,1.057c-.017-.082-.029-.105-.023-.116.262-.394.256-.437-.122-.727-.1-.076-.2-.146-.3-.216-.063-.043-.13-.079-.22-.133-.281.194-.569.392-.856.592-.03.021-.076.067-.069.083a5.087,5.087,0,0,0,.388.9c.05.078.327.012.5.012Zm-.24-1.806-1.089-.7.305,1.259Z" transform="translate(73.578 -1776.63)"/><path class="a" d="M48.8,1733.452l-1.259,1.46c-.016-.1-.043-.161-.025-.186.2-.281.063-.482-.15-.666-.593-.511-1.183-1.026-1.782-1.53-.239-.2-.5-.349-.786.06l-.051-.159,1.237-1.445c.02.126.042.174.027.192-.252.307-.085.528.15.728q.861.733,1.73,1.458c.229.19.472.356.741.051a.072.072,0,0,1,.053-.016A.583.583,0,0,1,48.8,1733.452Z" transform="translate(2.323 -1694.831)"/><path class="a" d="M-418.961,1202.094a.631.631,0,0,1,.619-.648.654.654,0,0,1,.634.644.621.621,0,0,1-.621.642A.639.639,0,0,1-418.961,1202.094Z" transform="translate(439.446 -1195.654)"/><path class="a" d="M-528.362,1257.881a.641.641,0,0,1-.651-.649.615.615,0,0,1,.611-.622.656.656,0,0,1,.652.654A.606.606,0,0,1-528.362,1257.881Z" transform="translate(543.188 -1247.656)"/></g></svg>