<svg xmlns="http://www.w3.org/2000/svg" width="41" height="41" viewBox="0 0 41 41"><defs><style>.a,.b{fill:#fff;}.a{opacity:0.2;}</style></defs><g transform="translate(-968 -1871)"><rect class="a" width="41" height="41" rx="9" transform="translate(968 1871)"/><g transform="translate(1.672 -0.302)"><path class="b" d="M17.351,8.83a4.281,4.281,0,0,0-1.434.233L14.8,7.206h2.788a.81.81,0,0,0,.812-.812V5.312a.81.81,0,0,0-.812-.812H16.058a.812.812,0,0,0-.6.267L14.187,6.178l-.771-1.286a.817.817,0,0,0-.7-.392H10.013a.543.543,0,0,0-.541.541v.541a.543.543,0,0,0,.541.541h2.246l.65,1.083h-5.2a3.815,3.815,0,0,0-3.38-1.353H2.452a.824.824,0,0,0-.829.829.811.811,0,0,0,.812.8H4.329a1.791,1.791,0,0,1,1.617.839l-.382.694a4.33,4.33,0,1,0,2.96,5.234h2.849a.812.812,0,0,0,.812-.849,5.125,5.125,0,0,1,1.9-4.229l.423.7A4.331,4.331,0,1,0,17.351,8.83ZM4.329,15.867a2.706,2.706,0,0,1,0-5.413,2.517,2.517,0,0,1,.423.034l-1.4,2.551a.813.813,0,0,0,.71,1.2h2.75A2.714,2.714,0,0,1,4.329,15.867Zm15.694-2.558a2.707,2.707,0,0,1-5.41-.149,2.684,2.684,0,0,1,.748-1.864l1.671,2.788a.544.544,0,0,0,.744.186l.463-.277a.544.544,0,0,0,.186-.744l-1.644-2.737a2.591,2.591,0,0,1,.538-.054,2.706,2.706,0,0,1,2.7,2.852Z" transform="translate(977.003 1884.114)"/><rect class="b" width="8" height="8" rx="2" transform="translate(975.328 1881.302)"/></g></g></svg>