<svg xmlns="http://www.w3.org/2000/svg" width="96.438" height="28.623" viewBox="0 0 96.438 28.623"><defs><style>.a{fill:#fff;}.b{fill:#006fff;}</style></defs><g transform="translate(-7.127 -6.729)"><g transform="translate(7.127 6.729)"><g transform="translate(0)"><path class="a" d="M2930.632-574.166h-5.146a4.657,4.657,0,0,0-4.657,4.657V-550.2a4.657,4.657,0,0,0,4.657,4.657h0a4.656,4.656,0,0,0,4.657-4.657v-5h.25a9.476,9.476,0,0,0,9.481-9.482A9.5,9.5,0,0,0,2930.632-574.166Z" transform="translate(-2920.829 574.166)"/></g><path class="b" d="M2936.387-559a1.486,1.486,0,0,0-1.241.668l-6.642-3.217a1.476,1.476,0,0,0,.081-.464,1.489,1.489,0,0,0-1.489-1.489,1.489,1.489,0,0,0-1.489,1.489,1.489,1.489,0,0,0,1.489,1.489,1.483,1.483,0,0,0,1.288-.756l6.625,3.209a1.478,1.478,0,0,0-.112.561,1.476,1.476,0,0,0,.162.662l-8.355,4.5a1.641,1.641,0,0,0-1.371-.74,1.644,1.644,0,0,0-1.644,1.644,1.644,1.644,0,0,0,1.644,1.644,1.644,1.644,0,0,0,1.644-1.644,1.634,1.634,0,0,0-.133-.646l8.372-4.507a1.481,1.481,0,0,0,1.171.579,1.489,1.489,0,0,0,1.489-1.489A1.489,1.489,0,0,0,2936.387-559Z" transform="translate(-2922.546 567.762)"/></g><g transform="translate(33.314 13.434)"><g transform="translate(0 0.134)"><path class="a" d="M2986.807-541.5a1.769,1.769,0,0,1-.467-1.3v-12.621a1.518,1.518,0,0,1,.434-1.2,1.616,1.616,0,0,1,1.2-.434h5.676a5.82,5.82,0,0,1,4.04,1.3,4.658,4.658,0,0,1,1.435,3.64,4.611,4.611,0,0,1-1.435,3.64,5.821,5.821,0,0,1-4.04,1.3h-3.807v4.341a1.883,1.883,0,0,1-.467,1.3,1.771,1.771,0,0,1-1.3.467A1.6,1.6,0,0,1,2986.807-541.5Zm6.378-8.314c1.77,0,2.637-.768,2.637-2.271,0-1.536-.868-2.3-2.637-2.3h-3.339v4.574Z" transform="translate(-2986.34 557.058)"/></g><g transform="translate(13.99 4.734)"><path class="a" d="M3030.387-544.441a5.036,5.036,0,0,1,1.168,3.606v5.109a1.537,1.537,0,0,1-.434,1.169,1.759,1.759,0,0,1-1.2.434,1.588,1.588,0,0,1-1.168-.434,1.51,1.51,0,0,1-.434-1.135v-.167a2.551,2.551,0,0,1-1.135,1.3,3.663,3.663,0,0,1-1.836.467,4.468,4.468,0,0,1-2.037-.467,3.539,3.539,0,0,1-1.436-1.269,3.094,3.094,0,0,1-.535-1.8,2.679,2.679,0,0,1,.635-1.9,3.541,3.541,0,0,1,2-1,18.414,18.414,0,0,1,3.773-.3h.6v-.4a1.918,1.918,0,0,0-.4-1.369,1.811,1.811,0,0,0-1.4-.434,9.532,9.532,0,0,0-2.8.668,2,2,0,0,1-.868.234.99.99,0,0,1-.8-.334,1.337,1.337,0,0,1-.3-.9,1.27,1.27,0,0,1,.2-.735,1.88,1.88,0,0,1,.668-.534,6.916,6.916,0,0,1,1.937-.668,10.413,10.413,0,0,1,2.237-.234A4.611,4.611,0,0,1,3030.387-544.441Zm-2.672,7.346a2.5,2.5,0,0,0,.6-1.736v-.367h-.367a7.723,7.723,0,0,0-2.571.3,1.043,1.043,0,0,0-.734,1.068,1.291,1.291,0,0,0,.434,1.035,1.436,1.436,0,0,0,1.035.4A2.238,2.238,0,0,0,3027.715-537.1Z" transform="translate(-3021.338 545.55)"/></g><g transform="translate(26.21 4.708)"><path class="a" d="M3063.329-545.148a1.558,1.558,0,0,1,.467,1.169v8.514a5.184,5.184,0,0,1-1.569,4.073,6.8,6.8,0,0,1-4.575,1.369,8.455,8.455,0,0,1-4.141-.9,2.1,2.1,0,0,1-.634-.568,1.2,1.2,0,0,1-.233-.735,1.629,1.629,0,0,1,.267-.935.889.889,0,0,1,.735-.367,2.251,2.251,0,0,1,.6.1,5.7,5.7,0,0,1,.7.234c.468.167.935.334,1.336.434a5.353,5.353,0,0,0,1.3.167,3.033,3.033,0,0,0,2.137-.668,2.58,2.58,0,0,0,.7-1.97v-1.2a3.355,3.355,0,0,1-1.436,1.369,4.484,4.484,0,0,1-2.137.5,5.085,5.085,0,0,1-2.57-.668,4.659,4.659,0,0,1-1.737-1.937,6.212,6.212,0,0,1-.634-2.9,6.21,6.21,0,0,1,.634-2.9,4.9,4.9,0,0,1,1.737-1.937,4.71,4.71,0,0,1,2.57-.7,4.448,4.448,0,0,1,2.1.5,3.476,3.476,0,0,1,1.435,1.336v-.267a1.483,1.483,0,0,1,.467-1.135,1.852,1.852,0,0,1,1.236-.434A1.774,1.774,0,0,1,3063.329-545.148Zm-3.606,7.179a3.208,3.208,0,0,0,.667-2.137,3.368,3.368,0,0,0-.667-2.17,2.263,2.263,0,0,0-1.87-.768,2.367,2.367,0,0,0-1.87.768,3.131,3.131,0,0,0-.667,2.17,3.208,3.208,0,0,0,.667,2.137,2.415,2.415,0,0,0,1.87.768A2.367,2.367,0,0,0,3059.723-537.969Z" transform="translate(-3051.91 545.615)"/></g><g transform="translate(40.234 4.734)"><path class="a" d="M3096.041-544.441a5.034,5.034,0,0,1,1.168,3.606v5.109a1.536,1.536,0,0,1-.434,1.169,1.76,1.76,0,0,1-1.2.434,1.588,1.588,0,0,1-1.168-.434,1.511,1.511,0,0,1-.434-1.135v-.167a2.553,2.553,0,0,1-1.135,1.3,3.662,3.662,0,0,1-1.836.467,4.47,4.47,0,0,1-2.037-.467,3.542,3.542,0,0,1-1.436-1.269,3.1,3.1,0,0,1-.534-1.8,2.678,2.678,0,0,1,.634-1.9,3.54,3.54,0,0,1,2-1,18.408,18.408,0,0,1,3.773-.3h.6v-.4a1.917,1.917,0,0,0-.4-1.369,1.81,1.81,0,0,0-1.4-.434,9.532,9.532,0,0,0-2.8.668,2,2,0,0,1-.868.234.989.989,0,0,1-.8-.334,1.336,1.336,0,0,1-.3-.9,1.269,1.269,0,0,1,.2-.735,1.871,1.871,0,0,1,.668-.534,6.911,6.911,0,0,1,1.937-.668,10.41,10.41,0,0,1,2.237-.234A4.611,4.611,0,0,1,3096.041-544.441Zm-2.671,7.346a2.5,2.5,0,0,0,.6-1.736v-.367h-.367a7.722,7.722,0,0,0-2.571.3,1.043,1.043,0,0,0-.734,1.068,1.292,1.292,0,0,0,.434,1.035,1.439,1.439,0,0,0,1.035.4A2.237,2.237,0,0,0,3093.369-537.1Z" transform="translate(-3086.992 545.55)"/></g><g transform="translate(52.989 0)"><path class="a" d="M3119.4-541.633a1.447,1.447,0,0,1-.5-1.2V-555.79a1.447,1.447,0,0,1,.5-1.2,1.894,1.894,0,0,1,1.236-.4,1.864,1.864,0,0,1,1.2.4,1.447,1.447,0,0,1,.5,1.2v12.955a1.447,1.447,0,0,1-.5,1.2,1.866,1.866,0,0,1-1.2.4A1.9,1.9,0,0,1,3119.4-541.633Z" transform="translate(-3118.9 557.393)"/></g><g transform="translate(58.498 4.641)"><path class="a" d="M3135.454-534.931a4.721,4.721,0,0,1-2.037-2,6.332,6.332,0,0,1-.734-3.072,5.98,5.98,0,0,1,.734-3.071,4.908,4.908,0,0,1,2.037-2,6.556,6.556,0,0,1,3.1-.7,6.653,6.653,0,0,1,3.105.7,4.721,4.721,0,0,1,2.037,2,6.329,6.329,0,0,1,.735,3.071,5.978,5.978,0,0,1-.735,3.072,4.9,4.9,0,0,1-2.037,2,6.557,6.557,0,0,1-3.105.7A6.65,6.65,0,0,1,3135.454-534.931Zm5.576-5.075a3.759,3.759,0,0,0-.634-2.4,2.22,2.22,0,0,0-1.837-.8c-1.669,0-2.47,1.069-2.47,3.172,0,2.137.834,3.172,2.47,3.172C3140.2-536.8,3141.03-537.869,3141.03-540.006Z" transform="translate(-3132.683 545.782)"/></g></g></g></svg>