<svg xmlns="http://www.w3.org/2000/svg" width="157.53" height="36.381" viewBox="0 0 157.53 36.381"><defs><style>.a{fill:#fff;}</style></defs><path class="a" d="M105.481,938h0c0,.006,0,.012,0,.019l.01-.017Zm25.969,2.188c-.27,2.175-.568,3.191-1.136,3.9a14.319,14.319,0,0,0-1.327-2.931.862.862,0,0,1-.055-.964,6.747,6.747,0,0,0,.68-2.551c.086-.976-.388-2.615-1.34-3.053a5.379,5.379,0,0,1-.525,4.647c-.421-.473-.792-.917-1.191-1.331a12.642,12.642,0,0,0-1.256-1.19.678.678,0,0,1-.228-.937,3.5,3.5,0,0,0-2.791-5.023,3.051,3.051,0,0,1,1.41,4.1c-.136.327-.249.46-.613.218a11.475,11.475,0,0,0-2.367-1.2c-.264-.1-.338-.2-.221-.488.735-1.812-.385-2.916-1.908-3.187a12.313,12.313,0,0,0-10.494,4.261c-1.452,2.027-.8,3.659,1.647,4.139.356.069.366.193.316.484-.114.69-.216,1.384-.285,2.081-.131,1.328-.124,1.342-1.462,1.023-1.983-.472-3.155-1.8-2.808-3.833a1.421,1.421,0,0,0-.015-.346,3.474,3.474,0,0,0,1.616,5.278,7.719,7.719,0,0,0,2.32.618c.165.022.4-.04.42.244a24.074,24.074,0,0,0,.735,3.911c-2.626-.188-5.093-.473-6.422-3.234,0,.182-.007.276,0,.369a3.321,3.321,0,0,0,.057.367,4.255,4.255,0,0,0,2.072,2.729,8.785,8.785,0,0,0,4.3,1.208.735.735,0,0,1,.763.535,13.948,13.948,0,0,0,1.577,2.793c.1.138.29.248.214.509a12.666,12.666,0,0,1-6.585-1.594,8.243,8.243,0,0,0,6.287,2.721,3.156,3.156,0,0,1,2.533.917,5.717,5.717,0,0,0,1.636,1.1c.349.182.7.356,1.121.568a22.093,22.093,0,0,1-4.838-.046,13.753,13.753,0,0,0,12.307-1.325c1.844-1.145,3.952-3.362,4-4.2a15.609,15.609,0,0,1-1.91,1.691,10.566,10.566,0,0,0-.441-1.827,1.6,1.6,0,0,1,.665-2.254,10.7,10.7,0,0,0,2.191-2.361,19.754,19.754,0,0,1,.378,3.369,2.6,2.6,0,0,0,.3-1.226c.046-1.854-.1-3.734.789-5.465a.388.388,0,0,0,.035-.119A5.558,5.558,0,0,0,131.45,940.186Zm-7.047-3.044a18.248,18.248,0,0,1,2.525,2.711.437.437,0,0,1,.016.634,16.529,16.529,0,0,1-2.716,2.694c-.244.2-.362.154-.513-.1a25.224,25.224,0,0,0-1.876-2.757c-.2-.255-.12-.377.088-.542A11.961,11.961,0,0,0,124.4,937.142Zm-7.831,5.631a18.685,18.685,0,0,0,3.866-1.921c.239-.155.387-.165.553.089.607.933,1.228,1.856,1.844,2.784.045.068.083.141.125.216.027.19-.136.235-.249.309a24.855,24.855,0,0,1-4.452,2.27c-.306.123-.44.02-.559-.258-.43-1-.869-2-1.326-2.992C116.247,943,116.285,942.875,116.571,942.772Zm-.592-1.612c-.307.124-.439.062-.539-.243-.27-.818-.559-1.63-.846-2.442-.083-.237-.118-.416.2-.523a11.93,11.93,0,0,0,2.449-1.151c.052-.031.112-.052.172-.081.165,0,.242.133.33.234.568.652,1.116,1.318,1.7,1.958.248.274.146.39-.11.551A21.671,21.671,0,0,1,115.979,941.16Zm3.037,6.957a22.962,22.962,0,0,0,4.624-2.317c.249-.165.351-.089.461.141q.69,1.448,1.4,2.886a.305.305,0,0,1-.12.461,25.248,25.248,0,0,1-4.424,2.312c-.056.022-.118.035-.175.052-.188.017-.244-.131-.314-.252-.542-.947-1.074-1.9-1.621-2.84C118.708,948.321,118.75,948.217,119.016,948.117Zm.836-13.606c.155-.222.294-.209.513-.1a21.122,21.122,0,0,1,2.388,1.4c.253.17.257.307.078.539a13.052,13.052,0,0,1-2.083,2.093c-.173.143-.273.167-.454-.009-.732-.717-1.487-1.413-2.259-2.139A9.057,9.057,0,0,0,119.853,934.511Zm-9.785,2.855a1.723,1.723,0,0,1-1.362-2.626,5.141,5.141,0,0,1,1.685-1.942,10.1,10.1,0,0,1,6.778-2.227,2.723,2.723,0,0,1,1.445.484,1.439,1.439,0,0,1,.657,1.258c-.016.858-.18.981-1,.805a10.008,10.008,0,0,0-2.883-.274c.913.234,1.848.377,2.741.683.649.223.654.219.222.715-.012.015-.027.03-.041.046-1.03,1.147-1.026,1.143-2.3.3a2.585,2.585,0,0,0-1.276-.585l1.808,1.7a9.576,9.576,0,0,1-2.206,1.1c-.322.123-.281-.138-.322-.289-.2-.706-.38-1.415-.618-2.116a6.292,6.292,0,0,0,.1,2.208c.058.387-.037.507-.4.574a13.662,13.662,0,0,1-1.524.238c-.4.031-.59-.021-.416-.489.257-.694.465-1.4.694-2.108-.036-.031-.071-.063-.105-.1a9.6,9.6,0,0,0-1.136,2.323A.4.4,0,0,1,110.067,937.366Zm.458,4.546c.016-.309,0-.618,0-.941.061-.623.134-1.258.182-1.895.024-.309.159-.434.468-.429a8.863,8.863,0,0,0,2.26-.3c.279-.068.351.006.414.255.227.9.458,1.793.727,2.678.088.29-.016.362-.245.426a20.821,20.821,0,0,1-3.4.621C110.585,942.364,110.51,942.217,110.526,941.912Zm.794,5.4a20.751,20.751,0,0,1-.626-2.955c-.035-.279.011-.4.333-.413a15.888,15.888,0,0,0,3.772-.607c.3-.087.465-.064.6.268.4,1.012.819,2.02,1.28,3.007.176.375.026.458-.271.539a22.65,22.65,0,0,1-4.278.807C111.588,948.206,111.454,947.791,111.32,947.307Zm3.457,5.919a.5.5,0,0,1-.543-.177,16.951,16.951,0,0,1-2.068-3.5,22.512,22.512,0,0,0,5.061-.859.469.469,0,0,1,.644.257c.529.929,1.085,1.844,1.658,2.747.191.3.138.4-.185.5A25.3,25.3,0,0,1,114.777,953.227Zm4.688,3.694a.686.686,0,0,1-.419-.036,11.134,11.134,0,0,1-3.566-2.444,14.6,14.6,0,0,0,3.442-.683,1.971,1.971,0,0,1,2.871.884,7.858,7.858,0,0,0,1.16,1.276A17.978,17.978,0,0,1,119.465,956.921Zm7.7-3.5c.035.227-.145.292-.273.383a19.644,19.644,0,0,1-2.994,1.721.433.433,0,0,1-.626-.15c-.515-.694-1.036-1.385-1.575-2.062-.233-.292-.126-.4.167-.517a21.927,21.927,0,0,0,3.984-2.093c.138-.092.3-.291.411.028C126.57,951.631,126.869,952.528,127.17,953.425Zm2.4-8.012a15.608,15.608,0,0,1-3.168,3.149,33.894,33.894,0,0,0-1.472-3.322.277.277,0,0,1,.09-.414,15.519,15.519,0,0,0,3.1-3.156,15.766,15.766,0,0,1,1.533,3.339A.414.414,0,0,1,129.568,945.413Z" transform="translate(-104.146 -930.085)"/><path class="a" d="M1237.084,1092.92a6.912,6.912,0,0,0-5.833-6.667,19.187,19.187,0,0,0-7.746,0,6.664,6.664,0,0,0-5.595,5.332,12.548,12.548,0,0,0-.058,5.338,6.7,6.7,0,0,0,5.353,5.569,19.251,19.251,0,0,0,4.237.417,21.7,21.7,0,0,0,3.693-.313,6.83,6.83,0,0,0,5.786-5.672A14.077,14.077,0,0,0,1237.084,1092.92Zm-5.944,1.654a7.558,7.558,0,0,1-.1,1.13,3.543,3.543,0,0,1-4.564,3.121,3.1,3.1,0,0,1-2.57-2.295,7.222,7.222,0,0,1,.045-4.38,3.028,3.028,0,0,1,2.844-2.2,3.873,3.873,0,0,1,3.29.955,2.822,2.822,0,0,1,.234.279,3.4,3.4,0,0,1,.379.665,4.355,4.355,0,0,1,.207.591c.038.14.073.286.1.438a8.128,8.128,0,0,1,.131,1.529C1231.142,1094.466,1231.141,1094.519,1231.14,1094.574Z" transform="translate(-1079.622 -1066.555)"/><path class="a" d="M832.668,1097.887c.949,0,1.9.01,2.848-.005.328-.005.537.036.592.432a1.061,1.061,0,0,0,.879.857,5.67,5.67,0,0,0,2.816.043,1.113,1.113,0,0,0,.994-1.158c-.017-.567-.388-.943-1.094-1.063-2.214-.377-4.436-.713-6.643-1.124a4.09,4.09,0,0,1-3.615-3.751,4.516,4.516,0,0,1,2.5-4.873,10.94,10.94,0,0,1,4.5-.971,17.3,17.3,0,0,1,7.366.923,4.576,4.576,0,0,1,3.018,3.693c.06.37.049.557-.423.551-1.878-.026-3.756-.013-5.634-.008-.262,0-.457,0-.516-.35a1.219,1.219,0,0,0-.84-.916,4.9,4.9,0,0,0-3.155-.133.954.954,0,0,0-.819,1.011c.021.6.452.707.927.786q3.506.582,7.01,1.181a6.22,6.22,0,0,1,.835.22,4.2,4.2,0,0,1,3.268,3.691,4.773,4.773,0,0,1-2.551,5.128,10.441,10.441,0,0,1-4.04,1.057,21.958,21.958,0,0,1-7.8-.46,4.734,4.734,0,0,1-3.734-3.478c-.307-1.271-.3-1.281.956-1.281Z" transform="translate(-739.347 -1066.889)"/><path class="a" d="M1067.752,1092.6c-.908,0-1.816,0-2.724,0-.215,0-.349-.011-.439-.287-.64-1.968-1.475-2.567-3.359-2.468a3.2,3.2,0,0,0-3.208,2.868,7.47,7.47,0,0,0,.146,3.791,3.019,3.019,0,0,0,3.136,2.29,2.94,2.94,0,0,0,3.182-2.2c.127-.385.266-.55.711-.541,1.733.033,3.468.041,5.2,0,.607-.015.605.219.5.68-.788,3.545-2.438,5.2-6.012,5.81a18.5,18.5,0,0,1-7.5-.164,6.773,6.773,0,0,1-5.4-6.035,13.683,13.683,0,0,1,.1-4.553,6.576,6.576,0,0,1,5.305-5.532,16.7,16.7,0,0,1,9.1.262c2.661.886,3.992,2.9,4.454,5.585.077.447-.1.51-.479.5C1069.569,1092.585,1068.66,1092.6,1067.752,1092.6Z" transform="translate(-934.419 -1066.465)"/><path class="a" d="M538.116,1098.665c0-2.455.009-4.91-.009-7.365,0-.416.085-.568.537-.566q7.09.024,14.18,0c.4,0,.53.107.517.515-.029.927-.036,1.858,0,2.784.019.46-.105.586-.575.582-2.786-.024-5.573,0-8.359-.025-.521-.005-.65.133-.639.645.033,1.494.009,1.495,1.514,1.495,2.271,0,4.541.01,6.812-.009.419,0,.583.1.567.543-.031.927-.035,1.858,0,2.784.018.472-.135.589-.594.585-2.559-.022-5.119,0-7.678-.021-.477,0-.628.112-.621.609.024,1.533,0,1.534,1.542,1.534,2.456,0,4.913.021,7.369-.016.573-.009.687.167.662.69-.043.906-.023,1.815-.006,2.723.006.323-.048.473-.428.472q-7.183-.018-14.366,0c-.45,0-.433-.223-.432-.534Q538.121,1102.379,538.116,1098.665Z" transform="translate(-484.333 -1070.827)"/><path class="a" d="M696.845,1094.141a4.075,4.075,0,0,0-3.18-3.186,8.77,8.77,0,0,0-2.147-.223c-3.675,0-7.349.009-11.025-.012-.472,0-.577.13-.574.585.024,2.456.011,4.911.011,7.367,0,2.476.009,4.952-.009,7.429,0,.4.1.52.51.514q2.322-.035,4.644,0c.4.005.535-.1.527-.512-.026-1.279.012-2.559-.021-3.838-.012-.487.126-.622.616-.616,1.981.025,3.964.035,5.945-.006a4.582,4.582,0,0,0,4.838-4.121A8.453,8.453,0,0,0,696.845,1094.141Zm-7.064,3.6c-1.294.093-2.6.041-3.9.057-.214,0-.289-.1-.289-.3,0-.908.009-1.817,0-2.724,0-.3.165-.32.393-.318.62.006,1.238,0,1.857,0v.01c.6,0,1.2-.027,1.794.006a1.423,1.423,0,0,1,1.556,1.544C691.236,1097.088,690.834,1097.669,689.78,1097.746Z" transform="translate(-608.573 -1070.815)"/><path class="a" d="M401.951,1095.191c-.248-2.4-1.375-3.758-3.478-4.249a6.441,6.441,0,0,0-1.471-.182c-3.88,0-7.758,0-11.638-.02-.425,0-.506.144-.5.529.015,2.455.007,4.908.007,7.363,0,2.5.01,4.991-.009,7.487,0,.408.112.519.515.513q2.322-.033,4.642,0c.379,0,.5-.1.488-.481-.022-1.3.012-2.6-.02-3.9-.011-.464.119-.59.586-.585,2,.024,4,.031,6-.007a4.585,4.585,0,0,0,4.613-3.162A7.961,7.961,0,0,0,401.951,1095.191Zm-5.974,1.794a1.263,1.263,0,0,1-.937.729,11.414,11.414,0,0,1-2.219.106c-.7,0-1.275-.024-1.851.007-.392.021-.491-.126-.481-.5.025-.8.024-1.606,0-2.409-.011-.359.118-.453.461-.447,1.154.02,2.309-.01,3.462.017A1.66,1.66,0,0,1,395.977,1096.985Z" transform="translate(-350.075 -1070.832)"/><path class="a" d="M997.591,1098.689c0,2.435-.017,4.87.013,7.3.007.533-.16.644-.659.633-1.506-.033-3.014-.028-4.521,0-.419.007-.506-.13-.505-.522q.018-7.429,0-14.857c0-.411.12-.518.52-.512,1.548.022,3.1.024,4.645,0,.422-.007.518.135.515.529C997.584,1093.737,997.591,1096.213,997.591,1098.689Z" transform="translate(-881.911 -1070.825)"/><path class="a" d="M114.926,993.93l.016,0-.026,0Z" transform="translate(-113.581 -986.016)"/><path class="a" d="M167.05,966.04a.016.016,0,0,1,0,.007h.007s0-.005,0-.007Z" transform="translate(-159.255 -961.585)"/><path class="a" d="M167.05,966.04h.011s0,0,0,.007Z" transform="translate(-159.255 -961.585)"/><path class="a" d="M167.14,965.1l.037-.135c.015.011.04.021.042.035C167.233,965.063,167.208,965.1,167.14,965.1Z" transform="translate(-159.334 -960.639)"/><path class="a" d="M167.059,966.049h-.007a.016.016,0,0,0,0-.007Z" transform="translate(-159.255 -961.585)"/><path class="a" d="M165.585,966.341c-.036-.031-.071-.063-.105-.1.057-.067.056-.2.2-.175A.238.238,0,0,1,165.585,966.341Z" transform="translate(-157.88 -961.608)"/><path class="a" d="M188.464,960.25l-.042.041-.042-.02c.014-.02.027-.041.042-.061C188.436,960.224,188.449,960.237,188.464,960.25Z" transform="translate(-177.942 -956.477)"/></svg>