<svg xmlns="http://www.w3.org/2000/svg" width="41" height="41" viewBox="0 0 41 41"><defs><style>.a,.b{fill:#fa0;}.a{opacity:0.2;}</style></defs><g transform="translate(-400 -1205)"><rect class="a" width="41" height="41" rx="9" transform="translate(400 1205)"/><path class="b" d="M9.244,0C6.7,0,4.622,2.588,4.622,5.777s2.08,5.777,4.622,5.777,4.622-2.588,4.622-5.777S11.786,0,9.244,0ZM4.414,11.554A4.626,4.626,0,0,0,0,16.176v2.311H18.487V16.176a4.61,4.61,0,0,0-4.414-4.622,6.49,6.49,0,0,1-4.83,2.311A6.49,6.49,0,0,1,4.414,11.554Z" transform="translate(411.513 1216.513)"/></g></svg>