<svg xmlns="http://www.w3.org/2000/svg" width="41" height="41" viewBox="0 0 41 41"><defs><style>.a,.b{fill:#fff;}.a{opacity:0.2;}</style></defs><g transform="translate(-968 -1871)"><rect class="a" width="41" height="41" rx="9" transform="translate(968 1871)"/><g transform="translate(-251.915 796.056)"><path class="b" d="M1234.584,1096.019a4.105,4.105,0,0,1-2.42-.74,5.023,5.023,0,0,1-1.651-1.993,6.393,6.393,0,0,1-.6-2.79,6.466,6.466,0,0,1,.6-2.819,5.027,5.027,0,0,1,1.651-1.993,4.349,4.349,0,0,1,4.854,0,4.968,4.968,0,0,1,1.623,1.993,6.605,6.605,0,0,1,.584,2.819,6.152,6.152,0,0,1-.627,2.79,5.306,5.306,0,0,1-1.665,1.993A3.951,3.951,0,0,1,1234.584,1096.019Zm0-2.534a1.454,1.454,0,0,0,1.324-.854,4.392,4.392,0,0,0,.469-2.135,4.505,4.505,0,0,0-.455-2.135,1.445,1.445,0,0,0-1.338-.854,1.483,1.483,0,0,0-1.338.854,4.281,4.281,0,0,0-.484,2.135,4.393,4.393,0,0,0,.47,2.135A1.474,1.474,0,0,0,1234.584,1093.485Zm.342,11.7a1.639,1.639,0,0,1-.968-.385,1.2,1.2,0,0,1-.513-1.01,1.743,1.743,0,0,1,.284-.854l11.331-17.11a1.456,1.456,0,0,1,1.167-.683,1.651,1.651,0,0,1,.983.37,1.206,1.206,0,0,1,.5,1.025,1.744,1.744,0,0,1-.285.854l-11.33,17.109A1.458,1.458,0,0,1,1234.926,1105.186Zm11.872.228a4.011,4.011,0,0,1-2.363-.74,5.24,5.24,0,0,1-1.679-1.992,6.148,6.148,0,0,1-.626-2.79,6.465,6.465,0,0,1,.6-2.818,5.022,5.022,0,0,1,1.651-1.992,4.349,4.349,0,0,1,4.854,0,4.961,4.961,0,0,1,1.622,1.992,6.6,6.6,0,0,1,.584,2.818,6.154,6.154,0,0,1-.626,2.79,5.3,5.3,0,0,1-1.666,1.992A3.948,3.948,0,0,1,1246.8,1105.413Zm0-2.534a1.454,1.454,0,0,0,1.324-.854,4.393,4.393,0,0,0,.47-2.135,4.5,4.5,0,0,0-.456-2.135,1.444,1.444,0,0,0-1.338-.854,1.482,1.482,0,0,0-1.338.854,4.275,4.275,0,0,0-.484,2.135,4.387,4.387,0,0,0,.47,2.135A1.473,1.473,0,0,0,1246.8,1102.88Z"/></g></g></svg>