<svg xmlns="http://www.w3.org/2000/svg" width="291.333" height="292.318" viewBox="0 0 291.333 292.318"><defs><style>.a,.b{fill:#7063ef;}.a{opacity:0.05;}</style></defs><path class="a" d="M16.257,276.42a54.855,54.855,0,0,1-.333-77.624L134.818,78.906l-36.568.166c-19.519.071-37.684-13.2-40.89-32.46A39.21,39.21,0,0,1,95.828.665L251.265,0a39.234,39.234,0,0,1,39.417,39.014v.024l.641,155.437a39.2,39.2,0,1,1-78.383,1.733c-.024-.475-.024-.926-.024-1.4l-.19-38.61L93.833,276.088a54.862,54.862,0,0,1-77.576.333Z" transform="translate(291.333 292.318) rotate(180)"/><path class="b" d="M361.671-103.082,301.836-133v29.918L242-133V-13.329H391.589v-89.753ZM286.877-43.247H256.959V-73.164h29.918Zm59.836,0H316.795V-73.164h29.918Z" transform="translate(-169.922 219.494)"/></svg>