<svg xmlns="http://www.w3.org/2000/svg" width="41" height="41" viewBox="0 0 41 41"><defs><style>.a,.b{fill:#fff;}.a{opacity:0.2;}</style></defs><g transform="translate(-968 -1957)"><rect class="a" width="41" height="41" rx="9" transform="translate(968 1957)"/><path class="b" d="M1679.161,1071.39a7.624,7.624,0,0,0-7.621,7.621c0,2.936,3.708,7.581,5.954,10.123a2.228,2.228,0,0,0,3.34,0c2.242-2.542,5.949-7.187,5.949-10.123A7.624,7.624,0,0,0,1679.161,1071.39Zm0,11.387a4.212,4.212,0,1,1,4.214-4.214A4.211,4.211,0,0,1,1679.161,1082.777Z" transform="translate(-690.54 896.61)"/></g></svg>