<svg xmlns="http://www.w3.org/2000/svg" width="60.543" height="26.307" viewBox="0 0 60.543 26.307"><defs><style>.a{fill:#fff;}</style></defs><g transform="translate(0)"><path class="a" d="M-1195.438,767.376h-9.056c.13-.081.247-.145.356-.222a3.831,3.831,0,0,0,1.481-2.116c.635-2.119,1.31-4.225,1.97-6.336q1-3.211,2.009-6.421.987-3.152,1.975-6.3c.248-.794.5-1.587.738-2.385a1.548,1.548,0,0,0-.533-1.754c-.03-.025-.059-.053-.109-.1h.129c3.856,0,7.713-.01,11.569.007a8.506,8.506,0,0,1,4.176,1.024,4.665,4.665,0,0,1,2.46,3.313,6.26,6.26,0,0,1-.026,2.331,11.392,11.392,0,0,1-1.647,4.173,10.525,10.525,0,0,1-4.83,3.935,15.8,15.8,0,0,1-3.768,1.053,21.813,21.813,0,0,1-4.166.219c-.3-.01-.6-.037-.9-.075-.126-.016-.173.015-.209.132-.23.746-.468,1.49-.7,2.234q-.839,2.67-1.677,5.34a1.53,1.53,0,0,0,.738,1.918C-1195.452,767.347-1195.449,767.359-1195.438,767.376Zm2.29-11.644a.689.689,0,0,0,.076.027,5.365,5.365,0,0,0,1.652.068,5.606,5.606,0,0,0,2.521-.891,7.3,7.3,0,0,0,2.46-2.83,14.2,14.2,0,0,0,1.341-3.968,6.08,6.08,0,0,0,.072-2.175,2.684,2.684,0,0,0-.625-1.4,2.807,2.807,0,0,0-2.065-.853c-.491-.023-.984,0-1.476-.013-.15,0-.2.05-.242.184q-.76,2.443-1.531,4.883-1,3.18-2,6.359C-1193.027,755.326-1193.086,755.528-1193.148,755.732Z" transform="translate(1204.494 -741.453)"/><path class="a" d="M-11.981,745.427h9.848c-.263.143-.538.274-.794.434a3.063,3.063,0,0,0-1.32,1.745q-1.445,4.6-2.889,9.2a.413.413,0,0,1-.241.274,20.31,20.31,0,0,1-5.12,1.657,15.842,15.842,0,0,1-3.587.252,12.3,12.3,0,0,1-5.2-1.348,6.408,6.408,0,0,1-2.623-2.6,9.947,9.947,0,0,1-1.156-3.646,14.823,14.823,0,0,1-.062-3.179,18.52,18.52,0,0,1,1.156-5.079,16.3,16.3,0,0,1,2.039-3.826,15.381,15.381,0,0,1,1.793-2.019,16.291,16.291,0,0,1,3.8-2.745,16.168,16.168,0,0,1,4.29-1.5,14.862,14.862,0,0,1,2.474-.314c.761-.023,1.524-.048,2.283-.017.681.028,1.36.118,2.037.2a22.737,22.737,0,0,1,3.775.852c.048.015.095.036.157.061L-2.378,737.2c-.058-.044-.1-.075-.142-.109a10.163,10.163,0,0,0-3.57-1.99,6.734,6.734,0,0,0-2.345-.292,6.735,6.735,0,0,0-2.929.891,10.639,10.639,0,0,0-3.1,2.746,19.941,19.941,0,0,0-3.161,5.882,30.849,30.849,0,0,0-1.265,4.839,14.8,14.8,0,0,0-.252,3.152,6.462,6.462,0,0,0,.6,2.689,3.476,3.476,0,0,0,2.7,1.958,5.861,5.861,0,0,0,1.869-.035.3.3,0,0,0,.269-.242c.421-1.363.85-2.724,1.277-4.085.506-1.613,1.007-3.227,1.519-4.837a1.766,1.766,0,0,0-.973-2.263l-.111-.054Z" transform="translate(61.859 -732.7)"/><path class="a" d="M-585.1,943.135c.147-.245.284-.45.4-.668a4.1,4.1,0,0,0,.449-1.664,1.339,1.339,0,0,0-.5-1.152c-.019-.016-.045-.026-.047-.067h3.189c-.063.39-.111.768-.186,1.141a7.474,7.474,0,0,1-1.945,3.618c-.276.3-.276.3.009.588a14.315,14.315,0,0,0,2.321,1.816,17.665,17.665,0,0,0,3.181,1.676,1.782,1.782,0,0,1,.281.127h-.507c-1.824,0-3.649,0-5.473,0a.638.638,0,0,1-.36-.1c-.476-.357-.943-.726-1.4-1.1-.229-.186-.443-.391-.654-.6a.187.187,0,0,0-.286-.022,13.464,13.464,0,0,1-3.908,1.9,7.94,7.94,0,0,1-2.918.269,5.684,5.684,0,0,1-2.517-.758,4.558,4.558,0,0,1-2.272-3.453,5.444,5.444,0,0,1,1.758-4.9,9.99,9.99,0,0,1,3.239-1.953c.664-.261,1.337-.5,2.009-.738a.159.159,0,0,0,.122-.18c.005-.544-.015-1.09.033-1.63a8.145,8.145,0,0,1,1.55-4.432,5.572,5.572,0,0,1,3.34-2A4.682,4.682,0,0,1-583,929.2a3.017,3.017,0,0,1,1.7,2.043,3.135,3.135,0,0,1-.4,2.328,6.427,6.427,0,0,1-1.966,2.043,19.508,19.508,0,0,1-3.08,1.672c-.206.1-.409.2-.617.293a.15.15,0,0,0-.1.193,11.78,11.78,0,0,0,1.833,4.558C-585.46,942.583-585.293,942.837-585.1,943.135Zm-5.683-4.079c-.075.03-.134.048-.189.075a7.831,7.831,0,0,0-2.4,1.747,3.646,3.646,0,0,0-1.039,3.286,2.475,2.475,0,0,0,1.075,1.679,3.507,3.507,0,0,0,2.5.5,8.611,8.611,0,0,0,2.582-.852c.146-.071.284-.157.434-.241A18.9,18.9,0,0,1-590.781,939.056Zm2.974-3.205.065.019c.1-.055.2-.1.294-.166a9.822,9.822,0,0,0,2.51-2.4,4.034,4.034,0,0,0,.857-2c.073-.83-.344-1.251-1.127-1.185a1.736,1.736,0,0,0-.992.476,4.572,4.572,0,0,0-1.264,2.031,6.4,6.4,0,0,0-.338,1.76C-587.826,934.87-587.807,935.361-587.807,935.851Z" transform="translate(617.152 -922.622)"/></g></svg>