<svg xmlns="http://www.w3.org/2000/svg" width="92.18" height="64.261" viewBox="0 0 92.18 64.261"><defs><style>.a{fill:#fff;}</style></defs><path class="a" d="M-495.9-12.67c0-.138,0-.275,0-.413.007-.346-.141-.446-.461-.3a8,8,0,0,1-4.946.194,10.073,10.073,0,0,0-4.578-.061,5.255,5.255,0,0,0-4.2,5.31c-.013,1.541,0,3.083,0,4.624,0,3.468,2.024,5.648,5.493,5.981a6.335,6.335,0,0,0,3.907-.863c-.042.8-.091,1.487-.108,2.17-.018.715,0,1.431,0,2.147,0,2.121.512,2.779,2.572,3.253.453.1.925.12,1.384.2.762.131.963-.176.96-.933C-495.914,1.531-495.9-5.569-495.9-12.67Zm-4.906,9.659a2.328,2.328,0,0,1-2.446,2.261c-1.16.03-1.876-.682-1.928-2.087-.062-1.646-.061-3.3-.015-4.945.044-1.6.763-2.266,2.371-2.327,1.964-.075,2.023-.019,2.023,1.9q0,1.03,0,2.061C-500.8-5.1-500.789-4.055-500.809-3.011Z" transform="translate(527.718 54.667)"/><path class="a" d="M-241.508-48.075a6.819,6.819,0,0,0-5.168.6,45.063,45.063,0,0,0,.152-4.956,2.124,2.124,0,0,0-1.3-2.11,7.785,7.785,0,0,0-2.872-.682c-.564-.052-.71.172-.709.7q.016,10.324,0,20.649c0,.455.091.7.625.722a14.33,14.33,0,0,1,2.919.536,13.642,13.642,0,0,0,5.238.373c3.715-.471,5.4-2.366,5.4-6.094,0-1.4.008-2.808,0-4.212A5.4,5.4,0,0,0-241.508-48.075Zm-.688,10.892a1.64,1.64,0,0,1-1.475,1.551,5.728,5.728,0,0,1-.981.1c-1.71.007-1.877-.162-1.877-1.821q0-1.115,0-2.231c0-.992-.015-1.983,0-2.974a2.47,2.47,0,0,1,3.25-2.177,1.662,1.662,0,0,1,1.088,1.532A36.579,36.579,0,0,1-242.2-37.184Z" transform="translate(311.804 89.5)"/><path class="a" d="M-343.561-11.931a10.233,10.233,0,0,0-2.728-.61c-.7-.092-.829.167-.824.8.025,3.3.012,6.607.012,9.911,0,1.7,0,1.7-1.714,1.782-.083,0-.165,0-.248.005-1.881.027-2.467-.55-2.47-2.45,0-2.478-.026-4.956.011-7.433a1.872,1.872,0,0,0-1.2-1.88,9.3,9.3,0,0,0-2.871-.711c-.6-.075-.829.05-.823.712.031,3.414,0,6.828.026,10.242a4.455,4.455,0,0,0,3.22,4.5,9.759,9.759,0,0,0,5.772.219,7.06,7.06,0,0,1,4.385.142c.628.247.805.142.795-.543-.033-2.119-.012-4.24-.012-6.36,0-2.092-.029-4.185.012-6.277A1.988,1.988,0,0,0-343.561-11.931Z" transform="translate(399.449 53.886)"/><path class="a" d="M-584.955-249.555a15.865,15.865,0,0,0-19.1-12.51c-11.869,2.637-16.189,16.534-9.352,25.631a15.487,15.487,0,0,0,12.946,6.472c2.066,0,4.133,0,6.2,0,2.507,0,5.014-.012,7.521.007.855.006,1.621-.126,1.991-1a1.874,1.874,0,0,0-.691-2.2c-.751-.729-1.461-1.5-2.226-2.214a.75.75,0,0,1-.1-1.185A15.983,15.983,0,0,0-584.955-249.555Zm-4.467,14.276c1.044,1.019,2.048,2.081,3.061,3.132.164.17.434.336.309.618s-.419.225-.662.225c-2.479,0-4.959,0-8.014,0-2.2-.1-4.988.172-7.763-.137a14.749,14.749,0,0,1-12.353-10.934,14.917,14.917,0,0,1,10.01-18.125,14.713,14.713,0,0,1,18.559,11.076,14.934,14.934,0,0,1-3.219,12.92C-589.911-235.99-589.859-235.706-589.422-235.279Z" transform="translate(616.666 262.473)"/><path class="a" d="M-400.278-9.938a1.964,1.964,0,0,0-1.309-1.981,9.474,9.474,0,0,0-2.886-.628c-.584-.061-.7.157-.7.679.02,2.117.008,4.234.009,6.351,0,2.089.023,4.179-.011,6.268a1.886,1.886,0,0,0,1.2,1.881,9.745,9.745,0,0,0,2.791.675c.7.107.91-.077.906-.791Q-400.318-3.711-400.278-9.938Z" transform="translate(440.146 53.884)"/><path class="a" d="M-404.845-44.4c.012,1.044.432,1.5,1.485,1.561.658.037,1.318.015,1.978.015,1.186,0,1.186,0,1.187-1.217,0-2.627-.1-2.735-2.732-2.735a6.953,6.953,0,0,1-.906-.006c-.769-.1-1.129.154-1.024.983A12.269,12.269,0,0,1-404.845-44.4Z" transform="translate(439.898 82.468)"/><path class="a" d="M-138.08-13.1a12.21,12.21,0,0,0-8.649-.075,4.71,4.71,0,0,0-3.314,4.737c-.025,1.734-.018,3.469,0,5.2a4.873,4.873,0,0,0,3.706,5.044,13.95,13.95,0,0,0,6.374.329,6.749,6.749,0,0,0,2.846-1.044,4.349,4.349,0,0,0,2.08-3.64V-8.98A4.421,4.421,0,0,0-138.08-13.1Zm-1.76,9.565c-.034,1.684-.6,2.277-2.273,2.405a5.8,5.8,0,0,1-1.151-.05,1.843,1.843,0,0,1-1.872-2c-.006-.082-.012-.165-.012-.248q0-1.2,0-2.4h.022c0-.881-.043-1.764.011-2.642a1.769,1.769,0,0,1,1.739-1.851,5.991,5.991,0,0,1,.74-.061c2.113-.055,2.794.6,2.8,2.707C-139.828-6.293-139.813-4.915-139.841-3.539Z" transform="translate(227.22 55.033)"/><path class="a" d="M-579.8-237.1a12,12,0,0,0-11.931,11.956,12.008,12.008,0,0,0,11.877,12.183A11.98,11.98,0,0,0-567.939-225,11.942,11.942,0,0,0-579.8-237.1Z" transform="translate(595.856 241.292)"/></svg>