<svg xmlns="http://www.w3.org/2000/svg" width="41" height="41" viewBox="0 0 41 41"><defs><style>.a,.b{fill:#00b1ff;}.a{opacity:0.2;}</style></defs><g transform="translate(-400 -1277)"><rect class="a" width="41" height="41" rx="9" transform="translate(400 1277)"/><path class="b" d="M9.771.563a9.208,9.208,0,1,0,9.208,9.208A9.207,9.207,0,0,0,9.771.563Zm2.12,13-3.275-2.38a.448.448,0,0,1-.182-.36V4.573a.447.447,0,0,1,.446-.446h1.782a.447.447,0,0,1,.446.446V9.685L13.465,11.4a.445.445,0,0,1,.1.624l-1.047,1.441A.449.449,0,0,1,11.891,13.562Z" transform="translate(410.438 1287.438)"/></g></svg>