<svg xmlns="http://www.w3.org/2000/svg" width="41" height="41" viewBox="0 0 41 41"><defs><style>.a,.b{fill:#fff;}.a{opacity:0.2;}</style></defs><g transform="translate(-968 -1957)"><rect class="a" width="41" height="41" rx="9" transform="translate(968 1957)"/><g transform="translate(548.073 1074.328)"><path class="b" d="M441.579,899.887a6.937,6.937,0,0,1,.241-1.846H427.757l-1.017,5.074v2.024h1.017v6.082h9.694v-2.06a4.79,4.79,0,0,1,.446-2.051V905.14h1.57a4.977,4.977,0,0,1,2.773-.99l.446-.018s.339-.214.206-.173A6.737,6.737,0,0,1,441.579,899.887Zm-5.716,9.31h-6.082V905.14h6.082ZM427.757,895v2.024h14.429a5.55,5.55,0,0,1,1.48-2.024Z"/><g transform="translate(440.126 895.633)"><path class="b" d="M452.62,899.856c0,2.845-1.855,5.155-4.12,5.155a3.3,3.3,0,0,1-1.6-.41,5.3,5.3,0,0,1-2.524-4.744,6.2,6.2,0,0,1,.276-1.846,5.172,5.172,0,0,1,.419-1.017,4.9,4.9,0,0,1,.812-1.115,3.63,3.63,0,0,1,2.613-1.168C450.765,894.71,452.62,897.011,452.62,899.856Z" transform="translate(-440.251 -894.71)"/><path class="b" d="M456.239,910.38v2.06H439.75v-2.06a4.12,4.12,0,0,1,3.228-4.022,3.815,3.815,0,0,1,.713-.1,5.583,5.583,0,0,0,1.694,1.373,5.729,5.729,0,0,0,2.613.687,5.81,5.81,0,0,0,4.307-2.06A4.109,4.109,0,0,1,456.239,910.38Z" transform="translate(-439.75 -895.96)"/></g></g></g></svg>