<svg xmlns="http://www.w3.org/2000/svg" width="41" height="41" viewBox="0 0 41 41"><defs><style>.a,.b{fill:#fff;}.a{opacity:0.2;}</style></defs><g transform="translate(-968 -1957)"><rect class="a" width="41" height="41" rx="9" transform="translate(968 1957)"/><g transform="translate(659.09 1086.762)"><g transform="translate(322.91 883.553)"><path class="b" d="M334.417,888.44h-1.184v1.146a1.1,1.1,0,0,1-1.1,1.1h-5.057a1.1,1.1,0,0,1-1.1-1.1V888.44h-1.184a1.873,1.873,0,0,0-1.873,1.873v12.375a1.879,1.879,0,0,0,1.873,1.877h9.634a1.879,1.879,0,0,0,1.873-1.877V890.313A1.873,1.873,0,0,0,334.417,888.44Zm-1.386,12.866h-6.862a.515.515,0,1,1,0-1.029h6.862a.515.515,0,0,1,0,1.029Zm0-3.6h-6.862a.515.515,0,1,1,0-1.029h6.862a.515.515,0,0,1,0,1.029Zm0-3.6h-6.862a.515.515,0,1,1,0-1.029h6.862a.515.515,0,1,1,0,1.029Zm-5.959-4.1h5.057a.416.416,0,0,0,.419-.419V888.44h-5.894v1.146A.416.416,0,0,0,327.072,890Z" transform="translate(-322.91 -888.44)"/></g><g transform="translate(326.653 881)"><path class="b" d="M339.714,883.134V884.7a.416.416,0,0,1-.419.419h-5.057a.416.416,0,0,1-.419-.419v-1.564a.416.416,0,0,1,.419-.419h.813a1.715,1.715,0,0,1,3.431,0h.813A.416.416,0,0,1,339.714,883.134Z" transform="translate(-333.82 -881)"/></g></g></g></svg>