<svg xmlns="http://www.w3.org/2000/svg" width="54.712" height="60.512" viewBox="0 0 54.712 60.512"><defs><style>.a{fill:#fff;}</style></defs><g transform="translate(0)"><path class="a" d="M-308.324,938.4l.05.021h0Z" transform="translate(349.231 -922.619)"/><path class="a" d="M-309.99,937.692l-.1-.041Z" transform="translate(350.897 -921.913)"/><path class="a" d="M-502.077,652.486c.183.3.149.407-.157.6-.186.114-.382.213-.567.327s-.195.232-.009.348c.161.1.34.174.51.261.508.26.536.544.088.9-.222.175-.453.338-.67.518a.262.262,0,0,0-.094.2c.011.051.114.1.184.117.167.04.339.062.509.089.41.066.471.166.291.547s-.387.742-.573,1.116c-.069.139-.113.291-.169.437l.068.05a3.445,3.445,0,0,0,.383-.234c.264-.21.515-.435.774-.651.365-.3.536-.247.643.221.032.141.041.288.068.43s.059.255.094.4c.07-.033.111-.04.132-.064.117-.139.232-.28.341-.425.255-.34.292-.351.67-.147.152.082.3.169.454.252a3.853,3.853,0,0,0,4.922-1.038,3.948,3.948,0,0,0,.691-3,3.322,3.322,0,0,0-1.769-2.633,4.441,4.441,0,0,0-3.747-.217c-1.007.364-.835.352-1.511-.3-.045-.043-.087-.089-.13-.133h-.055c-.05.263-.121.525-.145.791-.04.44-.153.524-.551.335s-.775-.4-1.169-.591a1.959,1.959,0,0,0-.389-.1l-.044.072c.086.167.162.34.261.5C-502.527,651.8-502.29,652.136-502.077,652.486Zm3.113-.739a1.938,1.938,0,0,1,1.239-.433,2.554,2.554,0,0,1,2.876,2.591,3.588,3.588,0,0,1-.489,2.36,2.709,2.709,0,0,1-3.736.63c-.182-.128-.413-.3-.265-.555s.408-.1.608-.024c.286.116.558.267.841.391a.276.276,0,0,0,.227,0c.039-.027.035-.146.018-.216-.051-.2-.117-.4-.179-.6-.116-.374-.041-.467.353-.417.316.041.628.1.944.145a2.823,2.823,0,0,0,.37,0l.057-.086a3.174,3.174,0,0,0-.27-.387c-.224-.24-.469-.459-.7-.7-.179-.186-.164-.28.065-.392.278-.136.566-.251.844-.386a2.32,2.32,0,0,0,.3-.206l-.013-.106c-.212-.038-.423-.087-.637-.111-.28-.032-.564-.035-.844-.068-.333-.039-.391-.153-.245-.456.055-.115.131-.221.176-.339a.98.98,0,0,0,.028-.252.913.913,0,0,0-.231,0c-.344.082-.686.177-1.03.261-.186.046-.378.047-.478-.15S-499.111,651.878-498.964,651.747Zm-2.162,2.006a2.488,2.488,0,0,1-.235-.29l.073-.082c.2.019.4.031.591.059a.277.277,0,0,0,.352-.244c.055-.223.127-.441.192-.662l.1-.009c.067.138.14.275.2.416.22.512.218.511.729.313.114-.044.234-.07.351-.105l.063.068c-.094.153-.184.309-.282.459-.165.254-.161.274.115.386l.667.269,0,.088a2.12,2.12,0,0,1-.246.1c-.1.03-.213.043-.32.065-.4.082-.394.081-.2.436.071.131.126.272.188.408l-.052.071a4.093,4.093,0,0,1-.522-.162.387.387,0,0,0-.567.186,1.809,1.809,0,0,1-.245.328c-.107.115-.2.088-.219-.072a2.533,2.533,0,0,1-.042-.489c.014-.249-.1-.315-.325-.3a5.342,5.342,0,0,1-.584-.025l-.033-.078c.087-.1.167-.2.261-.286C-500.659,654.181-500.66,654.185-501.126,653.754Z" transform="translate(533.26 -650.423)"/><path class="a" d="M-1047.663,1562.111a.591.591,0,0,0-.953-.314,1.869,1.869,0,0,0-.573.632,1.878,1.878,0,0,0-.091,1.46c.1.367.234.726.349,1.09a6.355,6.355,0,0,1,.086,3,6.359,6.359,0,0,1-.792,2.333,2.2,2.2,0,0,1-3.692.069,4.668,4.668,0,0,1-.6-2.1,17.145,17.145,0,0,1,.292-4.615,8.415,8.415,0,0,0,.14-1.457c0-.287-.146-.367-.439-.353a1.328,1.328,0,0,0-1.275.984c-.257.935-.461,1.884-.667,2.831-.071.326-.083.664-.122,1v.711c.041.4.069.794.127,1.188a4.36,4.36,0,0,0,1.358,2.807,3.739,3.739,0,0,0,2.138.863c.125.013.248.043.371.065h.383a1.506,1.506,0,0,1,.235-.055,3.625,3.625,0,0,0,2.492-1.207,6.266,6.266,0,0,0,1.566-3.957,34.109,34.109,0,0,0,0-3.545A5.113,5.113,0,0,0-1047.663,1562.111Z" transform="translate(1056 -1511.785)"/><path class="a" d="M-296.642,1628.2a2.477,2.477,0,0,0-1.887.121,3.534,3.534,0,0,0-1.628,1.64c-.385.731-.7,1.5-1.059,2.244-.052.107-.184.246-.275.244a.406.406,0,0,1-.285-.241,7.305,7.305,0,0,1-.271-1.05c-.106-.6-.17-1.205-.278-1.8-.025-.141-.15-.368-.237-.371a.617.617,0,0,0-.462.211,2.444,2.444,0,0,0-.359.753,7.84,7.84,0,0,1-1.295,2.688,2.994,2.994,0,0,1-1.314,1.034,1.89,1.89,0,0,1-1.584-.078.554.554,0,0,1-.253-.352c-.013-.071.15-.208.26-.26.337-.158.691-.281,1.031-.433a2.014,2.014,0,0,0,1.424-2.1,1.852,1.852,0,0,0-1.968-1.669,2.43,2.43,0,0,0-1.7,1.037,4.129,4.129,0,0,0-.775,3.278,1.921,1.921,0,0,0,1.265,1.62,3.247,3.247,0,0,0,3.083-.467,5.692,5.692,0,0,0,1.733-2.08c.056-.106.121-.208.222-.382.114.47.192.861.3,1.243a12.559,12.559,0,0,0,.5,1.522.505.505,0,0,0,.946.075,6.886,6.886,0,0,0,.492-.909c.432-.9.836-1.819,1.285-2.712a3.746,3.746,0,0,1,1.024-1.334c.506-.389.826-.342,1.174.17a.975.975,0,0,0,.989.387.835.835,0,0,0,.723-.621c.021-.059.047-.117.07-.175v-.219A1.368,1.368,0,0,0-296.642,1628.2Zm-11.589,4.049c-.046-.22-.062-.447-.1-.731.045-.242.077-.541.159-.825a.914.914,0,0,1,1.094-.7.964.964,0,0,1,.541,1.193,1.969,1.969,0,0,1-1.525,1.208A.234.234,0,0,1-308.23,1632.252Z" transform="translate(350.458 -1574.559)"/><path class="a" d="M-855.808,1547.784a1.48,1.48,0,0,0-.444.47,2.413,2.413,0,0,0-.3,1.58,4.025,4.025,0,0,1,.133,1.777,5.033,5.033,0,0,1-.507,1.16c-.229.356-.587.337-.877.023a1.17,1.17,0,0,1-.261-.38c-.271-.78-.527-1.564-.783-2.349-.186-.569-.341-1.15-.554-1.708-.129-.338-.426-.37-.66-.087a2.155,2.155,0,0,0-.339.615,13.791,13.791,0,0,1-1.278,2.8,2.99,2.99,0,0,1-1.594,1.347,1.573,1.573,0,0,1-1.577-.279c.471-.387.936-.714,1.335-1.108a2.153,2.153,0,0,0,.351-2.86,1.294,1.294,0,0,0-1.991-.48,2.34,2.34,0,0,0-.462.381,4.787,4.787,0,0,0-1.24,3.9c.051.458.05.484-.406.609a1.146,1.146,0,0,1-.268.041,2.219,2.219,0,0,1-1.876-1.291.452.452,0,0,1,.021-.3c.114-.258.246-.508.381-.756a10.3,10.3,0,0,0,1.177-6.042,2.834,2.834,0,0,0-.493-1.4,1.265,1.265,0,0,0-2.071-.158,4.713,4.713,0,0,0-.727,1.176,10.165,10.165,0,0,0-.116,7.1.508.508,0,0,1,.04.305,2.211,2.211,0,0,1-2.044,1.118,1.705,1.705,0,0,1-1.443-2.24,3.141,3.141,0,0,0,.012-1.8c-.084-.274-.207-.556-.527-.606a.735.735,0,0,0-.726.394,3.226,3.226,0,0,0-.51,1.592,2.956,2.956,0,0,1-.534,1.626c-.436.576-1,.608-1.4,0a5.035,5.035,0,0,1-.508-1.051c-.254-.69-.459-1.4-.707-2.091-.341-.952-.785-1.043-1.444-.28-.47.544-.9,1.125-1.345,1.688a5.129,5.129,0,0,1-.376.433c-.2.2-.341.178-.469-.068a2.534,2.534,0,0,1-.2-.478c-.1-.367-.186-.74-.281-1.109-.067-.259-.173-.307-.42-.2a.961.961,0,0,0-.527.689c-.312,1.158-.632,2.314-.938,3.474a4.66,4.66,0,0,0-.163.907.387.387,0,0,0,.578.378,1.193,1.193,0,0,0,.305-.178c.523-.439,1.039-.886,1.558-1.329.658-.562,1.3-1.142,1.979-1.678a.7.7,0,0,1,1.145.18,8.571,8.571,0,0,1,.553,1c.257.5.475,1.026.762,1.509.337.568.911.876,1.5.108.3-.39.568-.8.864-1.2.347-.461.545-.449.853.035.191.3.362.612.572.9a1.514,1.514,0,0,0,1.063.7,2.905,2.905,0,0,0,1.6-.248,12.622,12.622,0,0,0,1.212-.732c.446-.286.6-.28.984.072.175.16.346.325.531.472a1.847,1.847,0,0,0,1.425.408,3.6,3.6,0,0,0,1.573-.575.277.277,0,0,1,.417.049,1.674,1.674,0,0,0,1.042.548,3.98,3.98,0,0,0,1.923-.294,5.562,5.562,0,0,0,2.136-1.745,7.308,7.308,0,0,1,.51-.57c.221-.216.41-.184.535.092.1.231.166.48.264.714a9.682,9.682,0,0,0,.576,1.287,1.09,1.09,0,0,0,1.185.489,2.611,2.611,0,0,0,1.625-1.021,7.515,7.515,0,0,0,1.443-3,5.648,5.648,0,0,0,.222-1.943C-854.846,1547.7-855.292,1547.455-855.808,1547.784Zm-13.838,2.34c-.156.238-.35.223-.461-.043a2.011,2.011,0,0,1-.149-.549,11.34,11.34,0,0,1,.139-4.036,2.931,2.931,0,0,1,.2-.533.484.484,0,0,1,.466-.32.5.5,0,0,1,.485.339,7.393,7.393,0,0,1,.192.953,2.831,2.831,0,0,1,0,.436,9.019,9.019,0,0,1-.662,3.344A2.408,2.408,0,0,1-869.646,1550.125Zm4.234,1.877a2.19,2.19,0,0,1-.171-1.885.5.5,0,0,1,.021-.05.921.921,0,0,1,.9-.576.875.875,0,0,1,.538.866c0,.054,0,.109,0,.163a1.607,1.607,0,0,1-1,1.572C-865.26,1552.145-865.342,1552.129-865.412,1552Z" transform="translate(895.049 -1493.968)"/><path class="a" d="M-961.8,651.646c-.344.254-.715.47-1.065.716-.3.215-.6.441-.888.679a.362.362,0,0,0-.115.279c.007.055.152.124.239.131.617.045,1.235.072,1.852.113a6.78,6.78,0,0,1,.839.087c.313.06.365.189.188.46a6.648,6.648,0,0,1-.534.691c-.553.642-1.124,1.269-1.666,1.92a3.818,3.818,0,0,0-.5.808c-.111.235.023.4.284.378a1.334,1.334,0,0,0,.474-.114c.776-.38,1.543-.779,2.317-1.163a5.109,5.109,0,0,1,.752-.318c.25-.078.387.028.4.292a5.262,5.262,0,0,1-.02.627c-.026.47-.08.941-.076,1.41a.319.319,0,0,0,.449.328,1.985,1.985,0,0,0,.607-.339c.225-.169.412-.388.637-.557.259-.2.422-.144.493.173.1.424.14.859.218,1.287.073.4.145.8.255,1.195a.428.428,0,0,0,.3.263.438.438,0,0,0,.321-.23,6.848,6.848,0,0,0,.353-.942c.184-.608.335-1.227.527-1.832.1-.322.3-.357.549-.116.182.178.329.392.515.566a.587.587,0,0,0,.383.19c.088-.011.184-.2.22-.332.092-.323.134-.659.229-.981s.294-.4.586-.229a3.913,3.913,0,0,1,.492.344c.469.377.926.768,1.4,1.138a2.849,2.849,0,0,0,.608.361c.326.142.545-.026.505-.381a2.281,2.281,0,0,0-.129-.584c-.268-.676-.561-1.342-.829-2.018a4.659,4.659,0,0,1-.242-.805c-.046-.231.062-.33.3-.286.3.057.6.138.9.219.788.215,1.569.456,2.362.647.45.109.692-.2.5-.629a2.6,2.6,0,0,0-.445-.68c-.54-.593-1.107-1.161-1.654-1.747a3.937,3.937,0,0,1-.448-.584.376.376,0,0,1,.127-.6,3.859,3.859,0,0,1,.6-.316c.466-.2.942-.387,1.4-.6.1-.045.156-.177.232-.268a.986.986,0,0,0-.333-.135,6.742,6.742,0,0,0-1.252.058,15.338,15.338,0,0,0-2.161.535c-.74.257-.765.512-.218,1.087.408.429.829.847,1.228,1.285a2.224,2.224,0,0,1,.371.566c.124.272-.042.481-.339.434a5.051,5.051,0,0,1-.684-.179c-.5-.154-1-.338-1.508-.466-.333-.083-.524.128-.46.473a4.556,4.556,0,0,0,.211.787c.171.45.376.888.556,1.335a2.57,2.57,0,0,1,.151.52c.026.148-.063.216-.2.126a6.473,6.473,0,0,1-.517-.4c-.419-.351-.828-.713-1.255-1.054-.1-.077-.3-.155-.359-.11a.557.557,0,0,0-.137.377c-.021.345,0,.693-.026,1.038-.008.107-.106.287-.173.292-.109.008-.233-.092-.34-.163-.048-.032-.071-.1-.1-.159a5.876,5.876,0,0,0-.334-.563,1.587,1.587,0,0,0-.32-.258,1.516,1.516,0,0,0-.233.313c-.078.192-.116.4-.176.6-.107.356-.211.713-.334,1.063a.273.273,0,0,1-.2.137c-.049,0-.135-.1-.151-.163a4.272,4.272,0,0,1-.1-.615c-.039-.434-.043-.873-.1-1.3-.043-.307-.2-.346-.422-.126a4.034,4.034,0,0,0-.414.505c-.19.256-.36.526-.559.775-.057.071-.224.146-.268.115a.4.4,0,0,1-.138-.29,3.185,3.185,0,0,1,.072-.54c.063-.385.138-.768.188-1.155.03-.234-.1-.348-.333-.3a2.907,2.907,0,0,0-.539.183c-.4.18-.784.385-1.186.555a1.032,1.032,0,0,1-.386,0,1.041,1.041,0,0,1,.13-.358c.306-.337.639-.65.951-.981a6.873,6.873,0,0,0,.568-.662c.2-.271.138-.437-.192-.509s-.666-.09-1-.141a6.464,6.464,0,0,1-.908-.17c-.316-.1-.367-.333-.128-.557a6.484,6.484,0,0,1,.674-.507c.251-.18.523-.335.756-.536.291-.25.252-.421-.1-.587a.7.7,0,0,0-.179-.064q-1.192-.2-2.385-.4l-.013.095c-.237,0-.475-.015-.71,0a2.662,2.662,0,0,0-.585.117.307.307,0,0,0-.191.2c-.007.064.093.17.17.2a4.383,4.383,0,0,0,.588.211c.383.114.775.2,1.152.33C-961.533,651.28-961.509,651.432-961.8,651.646Z" transform="translate(968.909 -650)"/><path class="a" d="M-769.955,1342.032a5.756,5.756,0,0,0,4.811-1.742c.6-.622,1.16-.676,1.552.283a2.712,2.712,0,0,0,1.116,1.313c.932.565,1.889.582,2.341-.685.143-.4.254-.815.4-1.215a.372.372,0,0,1,.256-.213c.234-.01.412-.062.487-.3s-.107-.336-.23-.481a3.1,3.1,0,0,1-.341-.532c-.046-.085-.02-.217-.078-.284-.086-.1-.218-.221-.33-.221s-.232.128-.327.222c-.051.049-.056.145-.085.228-.091-.018-.163-.028-.232-.047a4.791,4.791,0,0,0-2.477-.151.394.394,0,0,1-.271-.108c-.184-.148-.337-.338-.53-.469-.324-.219-.671-.406-.978-.59a9.8,9.8,0,0,1-.572,1.157,3.9,3.9,0,0,1-2.895,1.646.289.289,0,0,0-.288.259,1.225,1.225,0,0,1-.953.947,2.44,2.44,0,0,1-1.371-.081.447.447,0,0,1-.346-.371,3.168,3.168,0,0,0-.74-1.442,2.658,2.658,0,0,0-.914-.712,2.307,2.307,0,0,1,0,.385,3.8,3.8,0,0,1-.211.92,1.9,1.9,0,0,1-1.715,1.028c-.357.031-.72.005-1.093.005a3.5,3.5,0,0,0,2.369,1.338,9.681,9.681,0,0,1,.978.092,3.789,3.789,0,0,1,1.394.778,6.8,6.8,0,0,0,7.307.422l.317-.165a1.578,1.578,0,0,0,1.716.942,4.384,4.384,0,0,0,.946-.12,3.775,3.775,0,0,0,.893-.381c.1-.057.12-.253.176-.386a1.329,1.329,0,0,0-.362-.107c-.345,0-.692.055-1.035.038a3.1,3.1,0,0,1-2.113-.825,6.552,6.552,0,0,1-.824-1.106c-.209-.32-.359-.374-.656-.143-.137.106-.267.22-.4.332a5.158,5.158,0,0,1-4.305,1.08,1.408,1.408,0,0,1-.993-.535C-770.309,1342.03-770.131,1342.019-769.955,1342.032Zm8.23-2.825a.692.692,0,0,1,.689.671.685.685,0,0,1-.674.685.69.69,0,0,1-.7-.656A.694.694,0,0,1-761.724,1339.207Z" transform="translate(791.287 -1299.446)"/><path class="a" d="M-356.224,896.557a3.186,3.186,0,0,0,.622-2.775,2.978,2.978,0,0,0-1.434-1.855,5.319,5.319,0,0,1-1.809-1.765,4.915,4.915,0,0,0-1.68-1.616,4.364,4.364,0,0,0-2.585-.322,10.048,10.048,0,0,1-1.6.022,4.058,4.058,0,0,1-.917-.295,5.971,5.971,0,0,0,.415,2.256,4.128,4.128,0,0,0,4.747,2.747,9.808,9.808,0,0,0,2.012-.58,1.037,1.037,0,0,1,.581-.062,2.2,2.2,0,0,1,1.768,1.76,2.567,2.567,0,0,1-.641,2.253c-.327.385-.6.339-.836-.106a1.844,1.844,0,0,1-.073-1.2c.069-.476.148-.952.191-1.431.028-.309-.08-.37-.352-.235a2.887,2.887,0,0,0-1.245,1.155,1.161,1.161,0,0,0,.172,1.611,9.089,9.089,0,0,0,1.184.818c.125.083.262.147.373.209l-1.145,2.261c-.02-.086-.034-.173-.059-.258a24.712,24.712,0,0,0-1.585-4.058,1.873,1.873,0,0,0-1.135-.969c-.334-.1-.684-.16-1.026-.238l-.048.059a5.015,5.015,0,0,0,.3.462c.674.825,1.37,1.634,2.031,2.47a5.34,5.34,0,0,1,1.11,2.229,1.886,1.886,0,0,1,0,1.074c-.068-.161-.105-.269-.158-.37-.283-.538-.542-1.091-.862-1.606a6.751,6.751,0,0,0-1.74-1.761,3.276,3.276,0,0,1-1.183-1.662,4.888,4.888,0,0,0-.263-.657,1.653,1.653,0,0,0-1-.86,3.094,3.094,0,0,1-.157,1.57,1.31,1.31,0,0,0,.943,1.793c.331.123.679.2,1.019.3a3.322,3.322,0,0,1,1.445.79,6.406,6.406,0,0,1,1.441,2.233c.208.518.381,1.05.582,1.61.132-.224.233-.426.363-.609a3.757,3.757,0,0,1,.6-.763.711.711,0,0,1,1.218.376,6.347,6.347,0,0,1,.14.716,3.125,3.125,0,0,0,.877-1.332,4.142,4.142,0,0,0,.216-1.222c0-.612-.474-.82-.981-.474a2.172,2.172,0,0,0-.329.286c-.209.216-.4.455-.619.655a4.151,4.151,0,0,1-.543.36l-.092-.093a4.848,4.848,0,0,1,.331-.8C-357.184,897.95-356.708,897.25-356.224,896.557Zm-2.708-5.114c-.047.086-.314.11-.46.076a1.117,1.117,0,0,0-1.116.343,2.513,2.513,0,0,1-.4.332.256.256,0,0,1-.24,0,.255.255,0,0,1-.052-.24c.1-.19.246-.357.358-.542a2.2,2.2,0,0,0,.136-.334,1.031,1.031,0,0,0-.352-.089,1.518,1.518,0,0,0-.487.153c-.285.141-.556.31-.839.457a.917.917,0,0,1-.332.112.335.335,0,0,1-.254-.087c-.032-.037.014-.171.06-.237.067-.095.183-.156.248-.252a2.091,2.091,0,0,0,.158-.3c.016-.035.032-.069.049-.1l-.05-.021-.1-.041-.179-.076c-.429.052-.762.095-1.1.132a.491.491,0,0,1-.243-.007,1.124,1.124,0,0,1-.231-.189c.066-.067.121-.17.2-.195.2-.061.41-.078.612-.129.255-.065.3-.16.186-.394-.07-.148-.162-.286-.219-.438a.239.239,0,0,1,.038-.216.239.239,0,0,1,.222-.018,1.4,1.4,0,0,1,.309.26c.186.2.35.421.549.607.081.076.264.145.333.1a.488.488,0,0,0,.157-.338c.017-.16-.037-.326-.026-.488.006-.086.083-.168.127-.252.077.052.181.087.225.159.15.249.259.523.421.764a1.869,1.869,0,0,0,.462.487c.206.144.351.052.39-.2a3.087,3.087,0,0,1,.072-.429c.023-.076.112-.192.158-.186a.367.367,0,0,1,.219.161.609.609,0,0,1,.07.261,1.345,1.345,0,0,0,.645.994C-359.055,891.136-358.819,891.234-358.931,891.443Z" transform="translate(403.407 -874.932)"/><path class="a" d="M-957.521,1013.156a17.167,17.167,0,0,1-1.251-1.295,2.074,2.074,0,0,1,.067-2.5,1.564,1.564,0,0,0,1.665.937,5.964,5.964,0,0,1-.471-.841,1.934,1.934,0,0,1,.093-1.464c.372-.849.768-1.688,1.173-2.521a17.955,17.955,0,0,0,1.587-4.111,2.5,2.5,0,0,0,.019-.731.341.341,0,0,0-.2-.246.369.369,0,0,0-.29.137,1.777,1.777,0,0,0-.227.432c-.228.545-.425,1.1-.681,1.635a6.936,6.936,0,0,1-.647,1.005c-.054.076-.2.09-.3.132-.023-.108-.09-.229-.063-.323.225-.795.473-1.583.7-2.377.107-.375.193-.756.274-1.137.039-.187.008-.406-.195-.45-.108-.024-.294.1-.376.212a2.409,2.409,0,0,0-.3.606c-.318.871-.62,1.747-.937,2.618-.052.143-.111.378-.31.291-.108-.047-.138-.279-.2-.43a.227.227,0,0,1,.009-.108c.079-.456.168-.911.235-1.369.057-.386.1-.775.121-1.164.005-.1-.091-.292-.16-.3a.49.49,0,0,0-.372.133,1.1,1.1,0,0,0-.236.453c-.111.412-.193.831-.289,1.246-.1.442-.2.886-.319,1.322-.028.1-.186.247-.247.231a.46.46,0,0,1-.263-.261,1.436,1.436,0,0,1-.07-.51c.007-.455.039-.91.045-1.365a.864.864,0,0,0-.1-.281c-.1.048-.249.07-.288.148a4.779,4.779,0,0,0-.392.95,10.957,10.957,0,0,0-.2,3.959,6.627,6.627,0,0,0,.438,1.59c.141.364.447.41.718.126a5.684,5.684,0,0,0,.7-.963.863.863,0,0,0-.036-1.041,1.056,1.056,0,0,1-.106-1.113c.183-.4.491-.458.8-.15.25.252.49.514.726.78a.724.724,0,0,1,.156.74,3.387,3.387,0,0,1-.331.714c-.257.408-.547.8-.819,1.194a6.235,6.235,0,0,0-1.3,3.444,4.068,4.068,0,0,0,.98,3.009,22.173,22.173,0,0,0,1.825,1.552,8.1,8.1,0,0,0,.3-1.072A1.744,1.744,0,0,0-957.521,1013.156Z" transform="translate(966.211 -980.312)"/><path class="a" d="M-568.22,1173.193a4.31,4.31,0,0,0,4.227-3.538c.035-.187.042-.38.061-.562a4.854,4.854,0,0,1-.9.329,14.034,14.034,0,0,1-2.112.217,4.01,4.01,0,0,1-2.56-.88,2.443,2.443,0,0,0-.493-.239,3.021,3.021,0,0,0-.19.565c-.045.326-.046.346-.374.308-.234-.027-.338.059-.258.274a1.6,1.6,0,0,0,.364.618,1.825,1.825,0,0,0,1.522.46c.543-.074,1.07-.265,1.607-.388.127-.029.346-.044.387.021a.54.54,0,0,1,.008.42c-.123.329-.138.323.2.417.265.072.35.237.164.427a1.673,1.673,0,0,1-.652.412,3.59,3.59,0,0,1-1.838.063,3.208,3.208,0,0,1-2.461-1.835,1.944,1.944,0,0,1,1.264-2.8l.651-.2c.255-.081.538-.155.569-.473s-.221-.428-.535-.555a4.078,4.078,0,0,1,.385-.29,1.885,1.885,0,0,1,1.119-.139,2.944,2.944,0,0,0,.595-.015.386.386,0,0,0,.366-.348.407.407,0,0,0-.295-.441c-.2-.081-.409-.138-.62-.208.049-.268.267-.309.464-.367.165-.049.341-.064.5-.125.2-.077.234-.243.071-.38a1.256,1.256,0,0,0-.428-.227,3.745,3.745,0,0,0-1.811-.016,4.877,4.877,0,0,0-3.8,5.642A4.645,4.645,0,0,0-568.22,1173.193Z" transform="translate(599.528 -1135.497)"/><path class="a" d="M-329.556,654.425a7.093,7.093,0,0,0-2.421.584c.158.074.241.123.331.154.345.116.7.2,1.034.345a6.833,6.833,0,0,1,1.192.642.8.8,0,0,1,.233,1.012.8.8,0,0,1-.826.463,1.672,1.672,0,0,1-1.12-.5c-.136-.121-.263-.253-.4-.367a.521.521,0,0,0-.192-.052.768.768,0,0,0-.031.2c.021.208.052.415.083.621a1.214,1.214,0,0,1-.7,1.324c-.157.089-.308.188-.462.283a.479.479,0,0,0,.279.139c.944.06,1.889.153,2.834.159a7.5,7.5,0,0,0,2.989-.541,3.062,3.062,0,0,0,2.022-2.353,4.883,4.883,0,0,0-.232-2.394,1.537,1.537,0,0,1,.306-1.758s0-.016,0-.024c-.334-.073-.667-.159-1-.217-1.029-.177-1.568.368-1.467,1.409a6.7,6.7,0,0,1-.044,1.434.549.549,0,0,1-.624.487.61.61,0,0,1-.6-.562,2.518,2.518,0,0,1,.221-1.22.9.9,0,0,0-.679-1.315,2.127,2.127,0,0,0-.292-.07,7.01,7.01,0,0,0-2.444.076c-.331.062-.653.17-.979.258l-.008.115A4.809,4.809,0,0,1-329.556,654.425Zm3.558-1.767a.434.434,0,0,1,.435.431.436.436,0,0,1-.445.423.432.432,0,0,1-.435-.432A.43.43,0,0,1-326,652.658Zm-.337,2.434a.947.947,0,0,1,.72.87,1.577,1.577,0,0,1-.808,1.529,3.909,3.909,0,0,1-2,.55c-.266.015-.533,0-.8,0l-.03-.065C-327.672,657.618-326.454,656.895-326.336,655.091Z" transform="translate(372.407 -651.995)"/><path class="a" d="M-826.934,926c1-1.245,2.747-2.052,3.558-1.639a6.247,6.247,0,0,0-.409.852,9.871,9.871,0,0,0-.183.99.365.365,0,0,1-.14.239c-.163.078-.143.185-.105.314.109.366.236.727.318,1.1a2.432,2.432,0,0,1,0,.6c-.005.137-.079.3-.031.405.139.324.335.623.486.943a1.033,1.033,0,0,1,.159.557.5.5,0,0,0,.191.519,5.953,5.953,0,0,1,.689.7c.3.413.571.443.916.048a.384.384,0,0,0,0-.557c-.19-.25-.34-.531-.507-.8-.052-.083-.086-.209-.16-.239-.247-.1-.29-.3-.318-.527-.032-.262-.062-.524-.112-.783a.545.545,0,0,0-.144-.329.525.525,0,0,1-.235-.516c.024-.363.064-.725.088-1.087.008-.113.03-.283-.031-.332-.272-.219-.173-.463-.067-.691.191-.408.41-.8.625-1.219a2.538,2.538,0,0,1,1.089,2.92,3.7,3.7,0,0,0,1.278-.849,1.314,1.314,0,0,0,.039-1.866,2.879,2.879,0,0,0-.831-.448,8.563,8.563,0,0,0-.96-.253,2.31,2.31,0,0,1,.317-.111,13.88,13.88,0,0,1,1.451-.216c.828-.046,1.639.007,2.015.958a1.332,1.332,0,0,0-.812-2.219,2.694,2.694,0,0,0-.868.008,5.361,5.361,0,0,0-2.052.917c-.093.058-.189.112-.284.167l-.051-.071c.387-.542.484-1.371,1.461-1.366a2.323,2.323,0,0,0-.828-1.151c-.5-.38-.933-.252-1.05.361a13.35,13.35,0,0,0-.125,1.573c-.008.121-.012.243-.018.365a.493.493,0,0,1-.192-.207c-.178-.3-.341-.6-.541-.885a2.81,2.81,0,0,0-1.315-1.11.958.958,0,0,0-1.158.278,1.889,1.889,0,0,0-.174,1.3c.79-.527,2.241.023,2.8,1.073-.248-.037-.466-.084-.686-.1a14.6,14.6,0,0,0-1.577-.073,1.806,1.806,0,0,0-1.449,1.519A7.765,7.765,0,0,0-826.934,926Z" transform="translate(839.467 -905.94)"/><path class="a" d="M-871.993,1268.6a2.377,2.377,0,0,0,2.032-2.019,4.393,4.393,0,0,0-.956-3.758,2.991,2.991,0,0,0-2.891-1.122,1.879,1.879,0,0,0-1.648,1.992,2.7,2.7,0,0,0,2.412,2.616,1.441,1.441,0,0,0,1.7-1.967,1.673,1.673,0,0,0-1.506-1.155.568.568,0,0,0-.435.238.64.64,0,0,0,.065.545,1.189,1.189,0,0,0,.581.371,4.745,4.745,0,0,0,.867.09.494.494,0,0,1-.3.664,1.669,1.669,0,0,1-2.25-1.139,1.068,1.068,0,0,1,.832-1.39,1.972,1.972,0,0,1,1.5.233,2.654,2.654,0,0,1,1.28,2.594,1.58,1.58,0,0,1-1.153,1.55,3.382,3.382,0,0,1-2.684-.373,3.468,3.468,0,0,1-1.673-3.1c-.01-.4.04-.793.066-1.233a3.38,3.38,0,0,0-.435.288,2.585,2.585,0,0,0-.82,2.6A4.641,4.641,0,0,0-871.993,1268.6Z" transform="translate(887.248 -1228.19)"/><path class="a" d="M-386,1229.837a3.519,3.519,0,0,0,.515-2.11,2.759,2.759,0,0,0-2.936-2.588,2.162,2.162,0,0,0-1.811.881c-.177.22-.368.429-.551.644a3.7,3.7,0,0,1-1.867,1.174c-.2.056-.406.1-.6.175s-.4.2-.362.449a2.631,2.631,0,0,0,.207.67.41.41,0,0,0,.544.226,3.48,3.48,0,0,0,1.387-.846c.552-.489,1.077-1.009,1.615-1.514.135-.127.288-.266.479-.131a.386.386,0,0,1,.091.52,2.217,2.217,0,0,1-.44.612c-.405.365-.848.689-1.268,1.038q-.409.34-.8.705a.389.389,0,0,0-.061.521,1.8,1.8,0,0,0,2.857.42c.558-.606,1.018-1.3,1.52-1.96.1-.125.185-.276.372-.194s.209.249.179.438a3,3,0,0,1-1.107,1.831,15.91,15.91,0,0,1-1.431.936c-.127.085-.3.211-.313.333a.9.9,0,0,0,.462.813c.245.173.464.059.674-.095A9.436,9.436,0,0,0-386,1229.837Zm-1.059-2.333a1.113,1.113,0,0,1-1.181-1.3.491.491,0,0,1,.573-.421,1.651,1.651,0,0,1,1.2.679c.363.486.2.9-.388,1.018A1.6,1.6,0,0,1-387.06,1227.5Z" transform="translate(429.861 -1193.668)"/><path class="a" d="M-815.434,817.519a.5.5,0,0,1-.763-.26c-.087-.226-.109-.477-.185-.709a1.229,1.229,0,0,0-.2-.288c-.09.078-.218.138-.266.237a1.935,1.935,0,0,0,.732,2.372,2.638,2.638,0,0,0,1.963.176,3.851,3.851,0,0,0,1.949-1.2c.1-.1.2-.187.322-.294.028.074.044.107.053.141.014.052.023.106.036.159a4.141,4.141,0,0,0,.783,1.753,1.58,1.58,0,0,0,1.6.6,1.383,1.383,0,0,0,1.06-1.067.785.785,0,0,0,.01-.179c-.406.135-.553.1-.644-.185a2.22,2.22,0,0,1,.165-1.692c.04-.08.184-.175.253-.158a.365.365,0,0,1,.214.237c.057.247.064.5.109.754a.906.906,0,0,0,.129.244c.061-.069.149-.128.18-.209a2.622,2.622,0,0,0,.051-1.663,1.512,1.512,0,0,0-2.358-.949,3.57,3.57,0,0,0-1.1,1.086c-.051.074-.106.145-.16.217a4.127,4.127,0,0,0-.322-1.866,1.8,1.8,0,0,0-1.481-1.074,2.425,2.425,0,0,0-2.539,1.642c.122-.057.2-.1.286-.133.507-.214.817-.027.8.527a5.3,5.3,0,0,1-.167,1.1A1.024,1.024,0,0,1-815.434,817.519Zm5.037,1.089a5.445,5.445,0,0,1,.623-2.181.659.659,0,0,1,.146-.2.323.323,0,0,1,.207-.086c.039,0,.1.113.1.17a14.189,14.189,0,0,1-.151,1.56,4.389,4.389,0,0,1-.391,1.038c-.057.119-.222.186-.338.276-.064-.14-.133-.277-.189-.42A.475.475,0,0,1-810.4,818.608Zm-.508-1.909a.161.161,0,0,1,.279.12,1.783,1.783,0,0,1-.307,1.287c-.109.151-.256.1-.319-.053a4.052,4.052,0,0,1-.147-.521A1.1,1.1,0,0,1-810.9,816.7Zm-1.189-.8a3.983,3.983,0,0,1,.116.635c.072.593-.365.846-.743,1.12-.191.138-.394.034-.4-.217a2.573,2.573,0,0,1,.472-1.64C-812.443,815.533-812.2,815.579-812.094,815.895Zm-2.381,2.081a8.912,8.912,0,0,1,.963-3.29c.061-.108.214-.164.324-.245l.173.322a11.631,11.631,0,0,1-.916,3.2.422.422,0,0,1-.1.157c-.091.061-.218.158-.291.132A.331.331,0,0,1-814.474,817.975Z" transform="translate(830.079 -804.74)"/><path class="a" d="M-714.566,1015.239a.883.883,0,0,1-.115-1.385c.194-.252.4-.5.579-.76.785-1.113-.024-2.283-1.065-2.8a.757.757,0,0,0,.023.108,1.38,1.38,0,0,1-.508,1.714c-.44.339-.892.661-1.327,1.006-.749.593-.78,1.2-.054,1.807.422.355.909.633,1.362.952a2.453,2.453,0,0,1,.461.378.385.385,0,0,1,.062.341.455.455,0,0,1-.308.207.738.738,0,0,1-.419-.078c-.3-.153-.577-.336-.865-.508a2.6,2.6,0,0,0-.739,2.7,3.38,3.38,0,0,0,2.2,2.082,3.176,3.176,0,0,0,1.743.1c-.1-.035-.158-.055-.217-.077a1.634,1.634,0,0,1-1.081-2.024,4.622,4.622,0,0,1,.411-.916c.189-.363.425-.7.6-1.071a1.062,1.062,0,0,0-.252-1.342C-714.23,1015.52-714.405,1015.387-714.566,1015.239Z" transform="translate(736.114 -990.579)"/><path class="a" d="M-503.849,1021.346a2.369,2.369,0,0,1,.464-.5.52.52,0,0,1,.438-.046c.177.08.1.266.033.408-.1.2-.217.4-.31.607a.745.745,0,0,0,.153.9,1.238,1.238,0,0,0,1.131.341.473.473,0,0,0,.354-.74c-.057-.113-.141-.212-.207-.32-.138-.224-.288-.442-.4-.677-.1-.2-.019-.4.2-.418a6,6,0,0,1,1.08.047c.174.02.229.169.159.335-.057.134-.129.261-.191.392-.082.173-.026.268.166.257a5.86,5.86,0,0,0,2.114-.484c.317-.144.333-.246.113-.513a6.235,6.235,0,0,0-1.743-1.387,1.229,1.229,0,0,0-.325-.075c0,.146,0,.244,0,.342.015.534-.117.652-.643.57a2.976,2.976,0,0,1-.292-.062.626.626,0,0,1-.514-.5.717.717,0,0,1,.263-.756,3.087,3.087,0,0,1,.568-.319c.348-.156.709-.284,1.055-.443a.8.8,0,0,0,.47-.518c-.27-.075-.52-.128-.756-.216s-.461-.215-.694-.319a1.8,1.8,0,0,0-.306-.112.666.666,0,0,0-.886.805c.03.225.034.453.043.68s-.076.4-.325.425c-.274.022-.338-.2-.353-.4a4.519,4.519,0,0,1,.016-.845,1.334,1.334,0,0,0-.929-1.685c-.058-.027-.117-.051-.175-.076a1.345,1.345,0,0,1-.923-.894h-.07a10.738,10.738,0,0,0-.408,1.078,1.652,1.652,0,0,0,.894,2.175c.32.193.656.362.953.584a1.4,1.4,0,0,1,.415.521.564.564,0,0,1-.2.724c-.278.16-.457-.014-.642-.189a3.522,3.522,0,0,0-.573-.5.5.5,0,0,0-.817.368,2.24,2.24,0,0,0,0,.649,2.1,2.1,0,0,1-.482,1.906s.011.028.017.042A2.914,2.914,0,0,0-503.849,1021.346Z" transform="translate(536.038 -995.177)"/><path class="a" d="M-716.8,1155.471c.257.2.541.369.8.562.495.361.479.778-.043,1.1a2.687,2.687,0,0,1-1.358.346,3.565,3.565,0,0,1-3.093-1.174c-.234-.28-.545-.183-.59.206a3.632,3.632,0,0,0,.028,1.262,3.714,3.714,0,0,0,3.45,2.823,3.647,3.647,0,0,0,2.941-1.057,3.239,3.239,0,0,0,.841-2.952,1.95,1.95,0,0,0-1.38-1.461,1.979,1.979,0,0,1-1.45-1.587l-.087-.008c-.122.261-.266.514-.362.785A.954.954,0,0,0-716.8,1155.471Zm1.74,1.912c.229-.135.451,0,.461.285a2.333,2.333,0,0,1-1.368,1.866c-.347.094-.51-.019-.5-.35.016-.245.027-.491.049-.735a.57.57,0,0,1,.34-.488C-715.732,1157.784-715.4,1157.581-715.064,1157.383Z" transform="translate(739.447 -1125.982)"/><path class="a" d="M-398.17,1064.787a1.1,1.1,0,0,1,.879.372c.336.4.625.844.934,1.27l.219.3c.046-.057.075-.076.077-.1.021-.181.045-.362.054-.543.02-.4.094-.463.5-.435.226.015.454,0,.68,0a3.1,3.1,0,0,0-.588-.422c-.449-.274-.465-.355-.169-.787.123-.18.24-.364.36-.546l-.06-.064c-.089.032-.18.061-.268.1-.236.1-.466.207-.706.29a2.915,2.915,0,0,1-1.633.167.4.4,0,0,1-.272-.656,1.139,1.139,0,0,1,.463-.4c.368-.147.761-.232,1.143-.343.173-.05.345-.1.517-.156l0-.112-.587-.148c-.365-.094-.393-.147-.248-.483.05-.117.112-.229.158-.348s.084-.26.134-.415c-.079.011-.11.007-.13.02-.142.1-.281.2-.421.3-.408.3-.493.284-.8-.1-.108-.136-.229-.263-.345-.394l-.077.034a2.033,2.033,0,0,0-.021.28c.023.381.058.762.08,1.144a1.448,1.448,0,0,1-.271,1.031.6.6,0,0,1-.451.225.61.61,0,0,1-.4-.342,1.847,1.847,0,0,1-.087-.771c.034-.369.142-.73.2-1.1.041-.249.055-.5.082-.753l-.108-.044c-.114.1-.237.182-.34.288-.613.63-.571.422-.933-.061a4.557,4.557,0,0,0-.326-.354l-.069.045c0,.2,0,.4,0,.6.01.513-.021.543-.528.557-.166,0-.332.036-.5.055l-.026.085c.118.088.232.18.353.263a13.371,13.371,0,0,1,1.386.964,1.211,1.211,0,0,1-.1,1.991,3.648,3.648,0,0,1-1.558.688c-.261.055-.519.122-.779.184l-.005.1.76.228c.335.1.362.173.194.484-.122.225-.242.453-.362.679l.057.052c.088-.039.177-.074.262-.118.17-.088.335-.184.505-.269.213-.107.349-.022.42.189.049.146.084.3.135.443a2.3,2.3,0,0,0,.118.246l.071-.008a2.215,2.215,0,0,0,.1-.352c.032-.28.051-.562.065-.844a2.332,2.332,0,0,1,.726-1.627c.357-.34.748-.232.863.246a2.4,2.4,0,0,1,.083.968,14.932,14.932,0,0,1-.455,1.533c-.047.156-.084.315-.134.506a.584.584,0,0,0,.144-.033c.152-.115.3-.232.453-.35.266-.208.34-.2.564.057.142.166.271.344.416.507a2.028,2.028,0,0,0,.264.208.921.921,0,0,0,.032-.19c-.027-.225-.052-.451-.091-.675-.071-.415-.007-.5.407-.555.195-.024.388-.054.582-.082l.021-.071c-.2-.117-.4-.236-.6-.349a2.79,2.79,0,0,1-1.23-1.277,1.953,1.953,0,0,1-.133-.709C-398.521,1064.894-398.378,1064.789-398.17,1064.787Z" transform="translate(438.494 -1038.259)"/><path class="a" d="M-872.767,1017.18a.621.621,0,0,1-1.025.261c-.068-.054-.134-.109-.217-.178a.785.785,0,0,0-.088.141.879.879,0,0,0,.807,1.138,1.067,1.067,0,0,0,1.1-.7,3.014,3.014,0,0,0,.177-.9c.039-.836.031-1.674.068-2.511a1.7,1.7,0,0,1,.412-1.069c.026.044.042.058.043.073,0,.054,0,.109,0,.164a4.949,4.949,0,0,0,.2,1.751c.194.662.4,1.324.533,2a2.058,2.058,0,0,1-.064.936.455.455,0,0,1-.818.125c-.031-.038-.065-.073-.1-.116a.837.837,0,0,0,.5,1.213,1.034,1.034,0,0,0,1.311-.823,2.256,2.256,0,0,0-.029-.915c-.187-.71-.421-1.409-.653-2.106a5.665,5.665,0,0,1-.406-2.4,2.954,2.954,0,0,1,.316-1.114.647.647,0,0,1,.042.122,7.608,7.608,0,0,0,1.047,3.466c.478.849,1,1.675,1.456,2.532a2.945,2.945,0,0,1,.283.981.514.514,0,0,1-.487.556.576.576,0,0,1-.649-.381c-.029-.082-.044-.17-.081-.321a2.549,2.549,0,0,0-.25.329,1.105,1.105,0,0,0,.456,1.441,1.323,1.323,0,0,0,1.472-.052,1.409,1.409,0,0,0,.631-1.34,3.107,3.107,0,0,0-.594-1.478c-.649-1-1.344-1.973-1.959-2.994a4.578,4.578,0,0,1-.459-4.441,6.082,6.082,0,0,0-2.514,3.164,8.175,8.175,0,0,0-.281,2.375A3.889,3.889,0,0,1-872.767,1017.18Z" transform="translate(884.088 -990.843)"/><path class="a" d="M-462.086,1359.811a.435.435,0,0,0-.492.117,3.688,3.688,0,0,0-1.106,2.316,1.256,1.256,0,0,0,1.194,1.418,6.345,6.345,0,0,0,1.384-.059,5.952,5.952,0,0,0,3.334-1.555,2.831,2.831,0,0,0,.992-1.881,4.47,4.47,0,0,0-.206-.695c-.238-.5-.587-.572-1.043-.277A4.582,4.582,0,0,1-462.086,1359.811Zm3.194.656c.266-.139.387-.064.393.24a1.291,1.291,0,0,1-.362.943,3.1,3.1,0,0,1-2.235.885c.067-.388.128-.735.184-1.082a.96.96,0,0,0,.006-.217c-.024-.347-.025-.356.312-.356A3.624,3.624,0,0,0-458.892,1360.467Z" transform="translate(496.096 -1320.227)"/><path class="a" d="M-878.623,655.707c.389-.035.776-.11,1.165-.124a.778.778,0,0,1,.556.156c.073.083-.055.351-.109.532a.678.678,0,0,1-.125.178c-.172.235-.351.466-.511.709a.644.644,0,0,0-.039.252c.091-.006.2.02.271-.024.227-.151.438-.326.653-.495.244-.192.508-.369.821-.219s.305.47.333.759c.026.272.034.546.073.815.012.085.1.159.151.238.071-.062.168-.111.206-.189a2.57,2.57,0,0,0,.141-.439c.075-.271.126-.551.223-.813.166-.449.489-.526.844-.2a4.671,4.671,0,0,1,.426.5,5.06,5.06,0,0,0,.382.462c.064.061.191.056.289.081a.769.769,0,0,0,.041-.271,3.208,3.208,0,0,0-.158-.434,7.57,7.57,0,0,1-.276-.74c-.118-.445.139-.711.6-.635.242.04.478.108.719.151.147.026.3.027.445.04.074-.252-.1-.332-.224-.42-.3-.209-.619-.386-.909-.606-.419-.317-.377-.663.088-.906l.417-.22-.011-.105c-.289-.037-.579-.078-.869-.109a1.287,1.287,0,0,0-1.245.463.937.937,0,0,1-1.586-.039.934.934,0,0,0-.7-.437,4.928,4.928,0,0,0-.846.007,4.828,4.828,0,0,0-.637.143l0,.093c.112.048.222.1.336.144a.529.529,0,0,1,.414.456c.016.247-.169.377-.359.468-.32.152-.653.276-.976.422a3.359,3.359,0,0,0-.354.213l.016.1A1.227,1.227,0,0,0-878.623,655.707Z" transform="translate(888.644 -653.397)"/><path class="a" d="M-394.458,807.277a4.244,4.244,0,0,0,2.126-.5.953.953,0,0,0,.564-.924,3.807,3.807,0,0,0-.8-1.94.535.535,0,0,0-.679-.177c-.186.072-.375.14-.565.2-.488.153-.619.106-.916-.315a.541.541,0,0,0-.713-.218c-.129.045-.254.1-.379.155a4.349,4.349,0,0,1-1.641.356c-.584.015-.654.039-.516.714,0,.009,0,.018.006.027A3.582,3.582,0,0,0-394.458,807.277Zm-1.635-2.365c.272.068.535.186.809.23.661.107,1.328.182,1.991.277a.974.974,0,0,1,.235.1c-.048.081-.076.188-.146.24a2.044,2.044,0,0,1-1.132.347,2.812,2.812,0,0,1-1.635-.5,1.752,1.752,0,0,1-.359-.4c-.048-.07-.031-.184-.043-.279A.947.947,0,0,1-396.093,804.911Z" transform="translate(434.039 -794.963)"/><path class="a" d="M-697.844,1281.452a.435.435,0,0,0-.549-.286.387.387,0,0,0-.258.48,2.638,2.638,0,0,0,.115.446.714.714,0,0,1-.152.725,1.243,1.243,0,0,0-2.172.436c-.119.245-.235.493-.359.736a1.38,1.38,0,0,1-1.383.834c-.3-.015-.6-.047-.9-.078-.278-.029-.352.056-.257.323a1.671,1.671,0,0,0,.894.95,3.91,3.91,0,0,0,4.228-.856,1.634,1.634,0,0,0,.378-1.672c-.072-.22.037-.283.2-.329.237-.066.41.082.609.173a.538.538,0,0,0,.445,0,.525.525,0,0,0,.176-.41c-.009-.141-.137-.276-.228-.44a.538.538,0,0,0,.048-.751c-.213-.253-.478-.2-.747-.042C-697.787,1281.6-697.811,1281.524-697.844,1281.452Z" transform="translate(723.066 -1246.612)"/><path class="a" d="M-275.4,1144.122c.359.212.745.38,1.122.559a1.738,1.738,0,0,1,1.1,1.592.673.673,0,0,0,.1-.062,5,5,0,0,0,1.594-4.026,2.515,2.515,0,0,0-.59-1.5,1.1,1.1,0,0,0-1.118-.418.99.99,0,0,0-.78.758,1.465,1.465,0,0,0,.191,1.227c.029.045.051.094.038.068a7.923,7.923,0,0,0-1.09-.247,1,1,0,0,0-1.044.754A1.043,1.043,0,0,0-275.4,1144.122Z" transform="translate(318.623 -1113.419)"/><path class="a" d="M-892.376,1179.017a1.052,1.052,0,0,0-.789,1.25,1.026,1.026,0,0,0,1.168.792,5.276,5.276,0,0,0,.525-.112c.4.7.811.9,1.426.7.566-.188.754-.615.638-1.473.9-.318,1.25-.806.991-1.433a1.462,1.462,0,0,0-.517-.6,1.011,1.011,0,0,0-1.107.094c-.048-.093-.083-.166-.122-.236a1.069,1.069,0,0,0-1.324-.524,1.049,1.049,0,0,0-.675,1.2C-892.117,1178.9-892.146,1178.964-892.376,1179.017Zm1.624-.085a.65.65,0,0,1,.658.654.653.653,0,0,1-.625.658.668.668,0,0,1-.665-.653A.668.668,0,0,1-890.752,1178.931Z" transform="translate(902.094 -1148.552)"/><path class="a" d="M-953.018,868.344a.908.908,0,0,1-.418-.643.377.377,0,0,0-.41-.349,9.481,9.481,0,0,0-1.17,0,2.877,2.877,0,0,0-2.605,2.207c-.076.336-.132.677-.225,1.008-.117.415-.035.54.4.5.187.034.374.066.56.1a4.839,4.839,0,0,0,1.014.183,3.254,3.254,0,0,0,3.043-2.565A.381.381,0,0,0-953.018,868.344Zm-2.594,2.279a1.313,1.313,0,0,1-.944-1.78.54.54,0,0,1,.108-.156c.066-.053.159-.131.221-.116s.125.127.139.2a1.811,1.811,0,0,0,.682,1.174c.164.126.345.229.548.363A.763.763,0,0,1-955.612,870.623Zm2.008-1.312a.547.547,0,0,1-.332.266.646.646,0,0,1-.406-.111,1.678,1.678,0,0,1-.676-1.247.319.319,0,0,1,.276-.381c.223-.047.452-.025.536.206a2.381,2.381,0,0,0,.583.874A.433.433,0,0,1-953.6,869.311Z" transform="translate(963.263 -855.44)"/><path class="a" d="M-246.763,844.648a3.933,3.933,0,0,1-3.434,1.786,5.591,5.591,0,0,0,.227.64,6.731,6.731,0,0,0,2.5,2.75c.534.333.712.274.809-.34.136-.86.215-1.731.269-2.6a15.479,15.479,0,0,0-.038-1.691A.563.563,0,0,0-246.763,844.648Z" transform="translate(294.284 -833.998)"/><path class="a" d="M-792.369,1220.85a2.257,2.257,0,0,0-2.169-1.751,1.543,1.543,0,0,0-1.055.294c-.368.291-.335.694.091.877a11.646,11.646,0,0,0,1.133.385,2.461,2.461,0,0,1,1.936,2.172,2.4,2.4,0,0,0,.517,1.415,2.541,2.541,0,0,0,2.35.873.686.686,0,0,0,.606-.967,2.241,2.241,0,0,0-2.273-1.632c-.516.057-.668-.088-.819-.595C-792.158,1221.563-792.257,1221.2-792.369,1220.85Zm1.372,2.266c.417-.162,1.33.461,1.338.958,0,.194-.173.28-.364.264a1.623,1.623,0,0,1-1.192-.679A.357.357,0,0,1-791,1223.116Z" transform="translate(810.08 -1187.96)"/><path class="a" d="M-496.262,845.562a2.325,2.325,0,0,0,1.017-3.118c-.239,1.508-1.625,2.431-2.7,1.813a1.314,1.314,0,0,0,.184-.265,3.174,3.174,0,0,0,.1-.432,1.423,1.423,0,0,0-.382-.064,1.813,1.813,0,0,1-1.506-.487.329.329,0,0,0-.087-.043,2.994,2.994,0,0,0-.019,2.967,2.467,2.467,0,0,0,.332.307c.068-.124.114-.2.152-.279.2-.407.216-.41.643-.28A3.1,3.1,0,0,0-496.262,845.562Z" transform="translate(530.454 -831.915)"/><path class="a" d="M-450.52,1173.822a1.325,1.325,0,0,0,.59,1.4,1.406,1.406,0,0,0,1.573.019,1.709,1.709,0,0,0,.646-1.815,3.091,3.091,0,0,0-2.544-2.376,1.56,1.56,0,0,1,.123,1.469A8.53,8.53,0,0,0-450.52,1173.822Zm1.042-.769c.032-.2.069-.393.1-.59s.141-.265.32-.139a.955.955,0,0,1,.43.742c0,.347-.2.581-.466.567S-449.53,1173.371-449.478,1173.052Z" transform="translate(483.668 -1142.543)"/><path class="a" d="M-868.4,920.7a1.34,1.34,0,0,0,.9-1.493,2.422,2.422,0,0,0-1.668-1.929.25.25,0,0,0-.219.071,3.021,3.021,0,0,0-.639,1.824,4.022,4.022,0,0,0,.079.5A1.341,1.341,0,0,0-868.4,920.7Z" transform="translate(880.201 -902.646)"/><path class="a" d="M-486.494,802.9c.29.209.558.449.869.7a2.755,2.755,0,0,0,.909-2.425c-.035-.165-.139-.2-.258-.121a.534.534,0,0,1-.651-.056,2.227,2.227,0,0,0-1.774-.333,1.494,1.494,0,0,0-1.142,1.916c.726-.868,1.789-1.081,2.178-.439a2.253,2.253,0,0,0-.232.266A.318.318,0,0,0-486.494,802.9Z" transform="translate(519.671 -792.367)"/><path class="a" d="M-429.488,1324.522c-.323-.108-.661-.173-.993-.257l-.013.029c-.208.009-.417.008-.624.031a3.713,3.713,0,0,0-.613.114c-.738.214-.881.423-.881,1.174a.533.533,0,0,0,.353.554,3.2,3.2,0,0,0,2.878-.171c.369-.207.334-.55.334-.882A.6.6,0,0,0-429.488,1324.522Z" transform="translate(466.718 -1287.375)"/><path class="a" d="M-264.678,798.323a3.726,3.726,0,0,1-2.335.86c-.405.025-.652.232-.667.546-.014.287.214.521.609.586a3.415,3.415,0,0,0,2.848-.879,2.438,2.438,0,0,0,.86-1.3,1.064,1.064,0,0,0-.794-1.408A1.349,1.349,0,0,1-264.678,798.323Z" transform="translate(310.812 -788.702)"/><path class="a" d="M-931.742,799.416a2.579,2.579,0,0,0-.4-2.376,1.213,1.213,0,0,0-1.363-.352,1.075,1.075,0,0,0-.666,1.086l-.072.031a4.41,4.41,0,0,0,.377.848,2.42,2.42,0,0,0,1.943.873A.222.222,0,0,0-931.742,799.416Z" transform="translate(940.905 -788.586)"/><path class="a" d="M-388.675,1204.4a.973.973,0,0,0,1.127,1.14,1.2,1.2,0,0,0,.8-1.854,2.147,2.147,0,0,0-1.776-.987,1.358,1.358,0,0,1,.008,1.1A4.407,4.407,0,0,0-388.675,1204.4Z" transform="translate(425.203 -1172.458)"/><path class="a" d="M-701.792,763.818a.291.291,0,0,0,.489,0,1.094,1.094,0,0,0-.046-1.513c-.661-.54-1.348-1.048-2.036-1.554a3.448,3.448,0,0,0-.571-.28l-.07.057a1.944,1.944,0,0,0,.138.414c.324.536.637,1.082,1,1.588C-702.554,762.984-702.165,763.4-701.792,763.818Z" transform="translate(723.283 -754.427)"/><path class="a" d="M-426.613,1004.455a1.109,1.109,0,0,0,1.118-1.128,1.088,1.088,0,0,0-1.108-1.1,1.105,1.105,0,0,0-1.124,1.092A1.128,1.128,0,0,0-426.613,1004.455Z" transform="translate(462.102 -982.953)"/><path class="a" d="M-706.376,1551.018a1.308,1.308,0,0,0-.335,1.283.875.875,0,0,0,1.392.519,1.288,1.288,0,0,0,.566-.9c.016-.691-.152-.982-.526-1.138A.957.957,0,0,0-706.376,1551.018Z" transform="translate(725.867 -1501.418)"/><path class="a" d="M-270.2,797.177a.862.862,0,0,0-.369.076,3.761,3.761,0,0,1-2.235.361l.175.688a.719.719,0,0,0,.831.61,3.209,3.209,0,0,0,1.619-.584,1.4,1.4,0,0,0,.435-.474.593.593,0,0,0-.012-.5C-269.826,797.243-270.042,797.2-270.2,797.177Z" transform="translate(315.655 -789.122)"/><path class="a" d="M-424.836,914.746a1.037,1.037,0,0,0,1.019,1.029,1.038,1.038,0,0,0,1.04-1.036,1.05,1.05,0,0,0-1.034-1.047A1.047,1.047,0,0,0-424.836,914.746Z" transform="translate(459.369 -899.264)"/><path class="a" d="M-456.778,947.228a.951.951,0,0,0-.99-.974.962.962,0,0,0-.973.968.971.971,0,0,0,.979.991A.961.961,0,0,0-456.778,947.228Z" transform="translate(491.418 -930.044)"/><path class="a" d="M-496.036,966.645a.927.927,0,0,0-.918.925.889.889,0,0,0,.918.91.927.927,0,0,0,.92-.924A.962.962,0,0,0-496.036,966.645Z" transform="translate(527.541 -949.321)"/><path class="a" d="M-964.1,820.494a1.623,1.623,0,0,0,1.668-.156,2.043,2.043,0,0,1-1.484-2.151,1.258,1.258,0,0,0-.794,1.145A1.16,1.16,0,0,0-964.1,820.494Z" transform="translate(969.707 -808.985)"/><path class="a" d="M-484.762,1222.568c-.02.329-.038.636-.057.944,0,.072-.014.145-.019.217a.677.677,0,0,0,.384.72.7.7,0,0,0,.793-.1.75.75,0,0,0,.241-.815A1.4,1.4,0,0,0-484.762,1222.568Z" transform="translate(516.09 -1191.241)"/><path class="a" d="M-903.244,943.111a.915.915,0,0,0,.3,1.035,1.258,1.258,0,0,0,1.3.086,2.193,2.193,0,0,1-.546-2.154A1.5,1.5,0,0,0-903.244,943.111Z" transform="translate(911.646 -926.098)"/><path class="a" d="M-966,977.06a4.141,4.141,0,0,0,1.527-.909c-.529.046-1.049.12-1.569.128a1.666,1.666,0,0,1-1.309-.827l-.08.033a7.874,7.874,0,0,0,.191.926A.9.9,0,0,0-966,977.06Z" transform="translate(972.277 -957.646)"/><path class="a" d="M-383.036,982.775a.758.758,0,0,0-.736.784.726.726,0,0,0,.76.718.738.738,0,0,0,.743-.742A.772.772,0,0,0-383.036,982.775Z" transform="translate(420.551 -964.568)"/><path class="a" d="M-960.995,727.579a.269.269,0,0,0-.085-.245,1.229,1.229,0,0,0-1.714,1.125c0,.332.1.456.339.351A3.4,3.4,0,0,0-960.995,727.579Z" transform="translate(967.894 -723.016)"/><path class="a" d="M-680.839,682.119c-.328.091-.368.259-.082.457a6.2,6.2,0,0,0,1.091.6c.283.122.439,0,.508-.3.16-.7.01-.9-.663-.912C-680.271,682.011-680.562,682.042-680.839,682.119Z" transform="translate(701.623 -680.21)"/><path class="a" d="M-384.09,946.268a.667.667,0,0,0-.649.671.669.669,0,0,0,.671.65.679.679,0,0,0,.667-.658A.676.676,0,0,0-384.09,946.268Z" transform="translate(421.465 -930.059)"/><path class="a" d="M-956.545,948.685a1.1,1.1,0,0,0,.62,1.193,1.388,1.388,0,0,0,1.471-.617,6.848,6.848,0,0,1-1.115-.127A6.193,6.193,0,0,1-956.545,948.685Z" transform="translate(961.995 -932.343)"/><path class="a" d="M-486.1,929.223a.634.634,0,0,0-.645.6.632.632,0,0,0,.623.652.654.654,0,0,0,.656-.63A.655.655,0,0,0-486.1,929.223Z" transform="translate(517.887 -913.946)"/><path class="a" d="M-870.051,845.906a.668.668,0,0,0-.633.658.647.647,0,0,0,.641.613.659.659,0,0,0,.637-.621A.682.682,0,0,0-870.051,845.906Z" transform="translate(880.824 -835.187)"/><path class="a" d="M-416.591,968.613a.653.653,0,0,0,.623.6.632.632,0,0,0,.653-.624.656.656,0,0,0-.616-.642A.677.677,0,0,0-416.591,968.613Z" transform="translate(451.575 -950.556)"/><path class="a" d="M-854.773,874.141a.636.636,0,0,0,.633.642.636.636,0,0,0,.631-.619.633.633,0,0,0-.636-.639A.629.629,0,0,0-854.773,874.141Z" transform="translate(865.783 -861.294)"/><path class="a" d="M-456.35,993.12a.63.63,0,0,0,.642.638.617.617,0,0,0,.625-.621.622.622,0,0,0-.621-.627A.637.637,0,0,0-456.35,993.12Z" transform="translate(489.159 -973.77)"/><path class="a" d="M-379.166,1023.637a.613.613,0,0,0-.609.606.614.614,0,0,0,.584.6.617.617,0,0,0,.627-.619A.62.62,0,0,0-379.166,1023.637Z" transform="translate(416.773 -1003.194)"/><path class="a" d="M-401.889,885.121a.572.572,0,0,0,.589.605.582.582,0,0,0,.6-.577.582.582,0,0,0-.595-.605A.57.57,0,0,0-401.889,885.121Z" transform="translate(437.678 -871.712)"/><path class="a" d="M-456.981,914.223a.566.566,0,0,0,.579.585.588.588,0,0,0,.608-.593.609.609,0,0,0-.589-.594A.586.586,0,0,0-456.981,914.223Z" transform="translate(489.755 -899.198)"/><path class="a" d="M-308.255,938.786c-.017.034-.033.069-.049.1.016-.035.032-.069.049-.1Z" transform="translate(349.212 -922.986)"/></g></svg>