<svg xmlns="http://www.w3.org/2000/svg" width="114.584" height="25.9" viewBox="0 0 114.584 25.9"><defs><style>.a{fill:#fff;}</style></defs><path class="a" d="M-834.84-208.735c-.353,2.539-.7,5.057-1.054,7.574-.375,2.636-.765,5.27-1.144,7.906-.069.482-.288.739-.817.728q-1.559-.031-3.12,0c-.5.011-.676-.153-.59-.675.268-1.615.588-3.229.726-4.856.26-3.064,1-6.048,1.38-9.091.359-2.849.844-5.681,1.244-8.525.073-.517.262-.712.79-.7,1.525.027,3.051.024,4.576.006a.952.952,0,0,1,1.013.678c2.114,4.969,4.41,9.862,6.268,14.938a.657.657,0,0,0,.392.417c.233-1.762.45-3.526.7-5.285.478-3.322.994-6.638,1.451-9.963.087-.631.336-.814.933-.789.934.039,1.871.042,2.8,0,.636-.026.859.148.754.828-.688,4.446-1.339,8.9-2.008,13.347-.427,2.84-.9,5.675-1.279,8.521-.114.847-.4,1.207-1.3,1.16a35.65,35.65,0,0,0-3.846.006,1.225,1.225,0,0,1-1.379-.922c-1.983-4.947-4.388-9.72-6.1-14.779C-834.5-208.388-834.529-208.618-834.84-208.735Z" transform="translate(903.029 217.559)"/><path class="a" d="M-1129.551-196.611c.834-2.123,2.112-4,3.054-6.065.567-1.241,1.466-2.381,2.149-3.609,1.485-2.672,3-5.327,4.465-8.01a1.374,1.374,0,0,1,1.454-.866c1.2.072,2.411.019,3.8.019-1.814,3.215-3.549,6.284-5.278,9.355q-3.337,5.928-6.673,11.856c-.2.353-.577.726-.638,1.024-.416,2.043-1.9,1.907-3.411,1.837-.761-.035-1.526-.026-2.288,0-.518.019-.708-.163-.778-.7-.679-5.173-1.27-10.357-2.082-15.513-.371-2.356-.564-4.74-.888-7.1-.085-.616.068-.784.67-.766,1.212.037,2.427.041,3.64,0,.551-.019.668.183.747.7.174,1.131.073,2.305.283,3.387.431,2.217.523,4.465.862,6.687C-1130.074-201.824-1129.706-199.251-1129.551-196.611Z" transform="translate(1136.687 216.603)"/><path class="a" d="M-925.439-170.726a8.125,8.125,0,0,1-6.262,2.82c-3.7-.017-4.468-2.44-3.7-5.281.679-2.515,2.613-3.769,4.828-4.8a15.589,15.589,0,0,1,5.731-1.073c.8-.052,1.038-.27,1.139-1.04.224-1.7-.191-2.489-1.836-2.717a9.681,9.681,0,0,0-5.35.892,3.666,3.666,0,0,1-1.147.283c.064-.864.128-1.684.185-2.5a1.572,1.572,0,0,1,1.313-1.508c2.9-.644,5.773-1.1,8.769-.283,3.049.832,3.182,2.728,2.744,5.457-.617,3.846-1.825,7.574-2.368,11.439-.074.524-.269.8-.864.771a27.5,27.5,0,0,0-2.807,0c-.714.039-.849-.259-.673-.863A3.562,3.562,0,0,0-925.439-170.726Zm-3.322-.73c1.322-.076,2.56-1.135,3.466-2.666.329-.555.877-1.238.565-1.782-.243-.424-1.082-.107-1.656-.12a2.333,2.333,0,0,0-.516.028c-1.489.3-3.031.531-3.876,2.04C-931.555-172.571-930.9-171.463-928.762-171.456Z" transform="translate(977.525 193.806)"/><path class="a" d="M-717.036-178.131c-1.49,0-2.981.025-4.47-.012-.664-.017-.915.2-.938.882-.083,2.5,1.1,3.793,3.616,3.929a13.118,13.118,0,0,0,4.994-.787c.61-.21.829-.1.795.555-.172,3.227.349,2.7-2.564,3.364a13.6,13.6,0,0,1-7.893-.215,5.082,5.082,0,0,1-3.253-3.523A12.453,12.453,0,0,1-722.71-186.3c2.418-1.853,6.6-2.289,8.963-.934,2.214,1.27,3.245,3.77,2.627,6.893-.5,2.531.145,2.18-2.588,2.227-.554.009-1.109,0-1.664,0h-1.664Zm-1.583-3.076v.007c.52,0,1.04,0,1.561,0,1.649,0,2.077-.729,1.348-2.253a2.161,2.161,0,0,0-1.929-1.2,3.9,3.9,0,0,0-3.951,2.71c-.16.508-.03.73.476.737C-720.282-181.2-719.45-181.207-718.618-181.207Z" transform="translate(812.401 195.115)"/><path class="a" d="M-634.662-188.831c-.531,0-.808.008-1.085,0-3.125-.1-4.285-1.493-3.829-4.617.426-2.914.833-5.83,1.319-8.734.145-.864-.143-1.023-.907-.995-1.36.05-1.361.02-1.381-1.319-.03-2.039-.03-2.064,2.051-2.093.654-.009.931-.237,1.008-.876.154-1.271.376-2.534.541-3.8.069-.535.282-.791.859-.773,1,.03,2.012.023,3.017-.011.619-.021.786.237.69.811-.205,1.229-.357,2.467-.583,3.692-.121.658,0,1.024.748.949.172-.017.347-.008.52-.008,2.314,0,2.718.528,2.257,2.864a.611.611,0,0,1-.708.565c-.832,0-1.666.041-2.5,0-.67-.031-.991.165-1.087.892-.312,2.369-.746,4.722-1.04,7.093-.272,2.195.25,2.685,2.447,2.53,1.394-.1,1.394-.1,1.2,1.3-.313,2.3-.353,2.336-2.656,2.487C-634.153-188.854-634.534-188.837-634.662-188.831Z" transform="translate(743.853 214.141)"/><path class="a" d="M-1002.161-167.928a15.662,15.662,0,0,1-2.769-.174c-.706-.075-.752-.5-.505-.913a3.58,3.58,0,0,0,.472-1.82c.022-.773.247-1.278,1.289-.915a8.06,8.06,0,0,0,3.194.282,3.32,3.32,0,0,0,2.167-.881,1.55,1.55,0,0,0-.312-2.656,13.9,13.9,0,0,0-1.885-.816c-3.438-1.26-3.475-3.851-2.268-6.329,1.171-2.407,3.268-3.487,5.865-3.932a13.9,13.9,0,0,1,4.566-.161c1,.156,1.205.428.814,1.41a4.323,4.323,0,0,0-.46,1.251c-.061,1.161-.649,1.058-1.509.851a6.366,6.366,0,0,0-3.483.041,2.032,2.032,0,0,0-1.541,1.885c-.042.84.717,1.175,1.368,1.518a14.062,14.062,0,0,1,3.408,1.883,3.188,3.188,0,0,1,1.055,2.757c-.2,3.138-2.12,4.917-4.888,5.976A10.556,10.556,0,0,1-1002.161-167.928Z" transform="translate(1032.871 193.8)"/><path class="a" d="M-1039.312-184.893c.691,0,1.586-.266,2.022.067.544.416-.078,1.259-.187,1.895-.358,2.1-.872,4.169-1.322,6.251-.647,2.994-1.3,5.988-1.927,8.986-.1.462-.366.515-.747.511-1.041-.01-2.082-.033-3.121.008-.651.026-.85-.138-.7-.823.647-2.879,1.342-5.752,1.831-8.659.4-2.358,1.255-4.607,1.525-6.978.118-1.037.525-1.489,1.583-1.306a6.173,6.173,0,0,0,1.039.009Z" transform="translate(1064.359 192.713)"/><path class="a" d="M-1019.4-219.564c-.043,1.551-1.857,3.064-3.6,3.005a2.174,2.174,0,0,1-2.165-2.395,3.6,3.6,0,0,1,3.878-3.115C-1020.128-222.046-1019.355-221.023-1019.4-219.564Z" transform="translate(1048.387 222.069)"/></svg>